<?xml version="1.0" encoding="utf-8"?>
<!-- Generator: Adobe Illustrator 24.0.0, SVG Export Plug-In . SVG Version: 6.00 Build 0)  -->
<svg version="1.1" xmlns="http://www.w3.org/2000/svg" xmlns:xlink="http://www.w3.org/1999/xlink" x="0px" y="0px"
	 viewBox="0 0 512 512" style="enable-background:new 0 0 512 512;" xml:space="preserve">
<style type="text/css">
	.st0{fill:#FFFFFF;}
</style>
<g id="Calque_2">
	<circle class="st0" cx="256" cy="256" r="256"/>
</g>
<g id="Capa_1">
	<g>
		<g>
			<path d="M385.7,252.9c-2.1-3-51.5-73.1-129.7-73.1c-67.1,0-126.9,69.7-129.4,72.7c-1.7,2-1.7,5,0,7c2.5,3,62.3,72.7,129.4,72.7
				s126.9-69.7,129.4-72.7C387,257.6,387.1,254.9,385.7,252.9z M256,321.3c-53.8,0-104.9-51.3-117.9-65.3
				c13-14.1,64-65.3,117.9-65.3c62.9,0,107.3,51.2,118.2,65C361.7,269.3,310.2,321.3,256,321.3z"/>
		</g>
	</g>
	<g>
		<g>
			<path d="M256,212.4c-24,0-43.6,19.5-43.6,43.6s19.5,43.6,43.6,43.6s43.6-19.5,43.6-43.6S280,212.4,256,212.4z M256,288.7
				c-18,0-32.7-14.7-32.7-32.7s14.7-32.7,32.7-32.7s32.7,14.7,32.7,32.7S274,288.7,256,288.7z"/>
		</g>
	</g>
</g>
</svg>
