<?xml version="1.0" encoding="utf-8"?>
<!-- Generator: Adobe Illustrator 24.0.0, SVG Export Plug-In . SVG Version: 6.00 Build 0)  -->
<svg version="1.1" id="Calque_1" xmlns="http://www.w3.org/2000/svg" xmlns:xlink="http://www.w3.org/1999/xlink" x="0px" y="0px"
	 viewBox="0 0 1280 746" style="enable-background:new 0 0 1280 746;" xml:space="preserve">
<style type="text/css">
	.st0{opacity:0.5;}
	.st1{fill:#F1F1F1;}
</style>
<g transform="translate(0.000000,746.000000) scale(0.100000,-0.100000)" class="st0">
	<path class="st1" d="M12547,7430c-3-14-8-34-10-45c-3-12-5-6-6,13c-1,45-21,31-22-16c-1-37-1-37-11-9c-13,36-28,25-29-21l-2-37
		l-6,35c-5,28-8,31-14,17c-4-10-7-33-8-50l-1-32l-12,33c-15,42-26,31-27-27c-1-44-1-45-9-13c-4,18-10,36-13,39c-9,9-20-45-15-72
		c3-13,1-22-3-19c-5,3-9,21-9,40c0,19-4,34-10,34c-10,0-12-15-11-85v-40l-12,45c-17,60-31,37-24-38l6-57l-16,50c-14,43-17,47-24,28
		c-4-12-3-38,2-58c6-20,8-42,6-48c-2-7-8,5-12,26c-9,44-25,59-25,23c0-14-4-27-9-30c-13-8-21-99-11-140c7-31,5-41-13-59
		c-12-13-32-36-44-52l-22-30l5,35l6,35l-22-32c-30-45-35-41-10,8c31,61,21,84-13,29c-31-52-36-42-7,15c11,22,20,45,20,52
		c0,24-16,13-34-23c-24-52-30-36-6,17c11,24,20,50,20,57c0,23-17,12-30-18c-7-17-16-33-21-36c-5-2-2,11,6,30c8,20,15,42,15,51
		c0,26-18,16-29-17c-6-17-13-29-16-26c-3,3,0,19,6,36c6,17,9,41,7,54c-4,22-5,22-12,3c-22-57-24-58-20-5c4,54,4,55-11,25l-15-30
		l6,43c7,48-7,57-23,15c-9-25-10-23-7,17l4,45l-15-30c-14-30-14-30-10,20l5,50l-15-33l-16-33l-34,41c-38,45-48,34-15-15
		c27-41,26-45-17-46l-38-1l50-13l50-13l-40-2c-32-1-36-3-20-10c11-5,32-9,47-9c15-1,29-5,32-10c3-5-15-6-41-3c-64,7-48-15,17-24
		c59-8,68-21,10-16c-58,6-49-13,13-25l52-10l-49-2c-61-1-51-16,19-29l50-10l-50-1c-58-2-46-16,23-27c60-9,52-24-10-17
		c-64,8-59-9,9-27c62-17,81-34,28-25c-22,4-49,9-60,12c-42,11,10-27,55-40c24-7,46-19,48-26c4-11-1-12-19-7c-47,14-99,23-99,17
		c0-10,49-37,93-50c20-7,37-17,37-21c0-5-19-3-41,5c-23,8-51,15-62,15c-19,0-19-2-7-14c8-8,38-24,65-36c28-11,39-18,25-15
		c-87,19-86,19-72,2c8-9,29-22,48-29c43-15,45-30,2-17c-41,11-47,5-14-16l25-17l-50-69c-28-38-53-69-55-69c-3,0,7,20,21,45
		c15,24,25,54,23,66c-3,20-6,18-32-19c-36-52-45-48-17,7c12,22,21,53,21,68c-1,28-1,28-23-9c-28-47-41-49-21-3c7,19,14,49,14,67
		l-1,33l-25-45c-15-27-23-35-19-20c15,62,16,88,7,94c-6,3-13-7-17-24c-4-16-11-30-16-30c-6,0-7,10-4,23c4,12,9,30,11,39
		c3,10,1,25-4,34c-8,14-11,11-20-15c-15-42-24-39-16,4c3,19,3,43-1,52c-6,15-9,13-20-12c-13-29-13-29-8,18c6,52-7,63-25,20
		c-10-25-10-23-5,20c6,52-7,62-25,20c-11-26-11-25-7,15c7,56-5,76-20,33l-11-33l-28,40c-15,22-37,49-48,59c-21,18-21,18-8-7
		c7-14,24-42,37-63l24-38l-28,7c-15,3-36,8-47,11c-41,11-3-16,45-32c54-18,63-31,11-16c-52,15-36-6,18-24c28-9,50-21,50-25
		c0-5-13-4-30,1c-16,6-37,9-47,7c-15-3,33-26,96-44c32-10,0-14-38-5c-59,13-51-4,12-24c94-31,82-43-18-19c-39,10,16-26,60-38
		c44-13,77-35,35-24c-14,4-38,9-54,13c-45,10-24-13,32-33c47-17,75-34,69-40c-2-2-27,6-56,17c-30,11-59,18-65,16c-13-4,17-22,89-53
		c27-12,51-27,53-34c3-9-1-9-17,0c-12,6-40,18-62,25c-61,22-44-2,31-44c76-43,96-74,24-38c-27,13-60,28-74,32l-25,7l22-23
		c12-13,47-38,77-54c75-40,72-53-4-15c-33,16-65,30-71,30c-21,0,13-31,69-62c29-17,51-32,48-35c-2-3-15,2-28,10c-32,21-68,30-68,18
		c0-5,16-19,35-31c37-23,50-49,15-30c-22,12-27,1-8-18c8-8,4-21-17-52c-35-51-43-56-37-25c7,38-10,30-43-20c-34-51-57-62-26-12
		c37,61,51,92,51,117l-1,25l-19-23c-11-13-28-36-39-50c-30-42-34-20-5,31c16,30,24,58,22,79l-3,33l-28-48c-36-61-47-54-18,12
		c21,51,28,101,13,101c-5,0-17-18-27-40s-22-40-28-40c-5,0-7,6-4,14c22,55,28,95,20,111c-8,14-13,11-27-25c-21-54-32-45-17,14
		c7,28,8,53,2,68l-9,23l-11-28c-6-16-11-33-11-38s-4-9-9-9s-7,27-4,60c6,67-11,85-23,24c-4-21-10-32-15-27c-6,6-5,23,2,41
		c6,18,8,45,4,60l-7,27l-17-38c-20-48-32-40-18,12c6,21,7,47,3,57c-7,17-10,15-20-13c-19-54-26-49-20,15c8,69-7,85-22,25l-9-38
		l-50,67c-28,37-54,67-58,68c-9,0,21-58,58-114l19-29l-38,7c-20,4-45,10-53,13c-11,4-14,2-9-5c4-6,34-21,67-33c67-25,72-34,10-20
		c-61,13-50-5,19-30c33-12,63-26,67-32c3-5-3-7-13-3c-11,3-38,9-62,15c-66,14-36-13,44-39c35-12,66-26,69-31c8-12,0-11-62,5
		c-29,8-53,11-53,6c0-8,95-50,115-50c7,0,18-7,25-15c15-19,9-19-60,0c-66,18-60,17-60,6c0-5,21-17,48-27c88-32,115-44,111-49
		c-3-2-29,2-59,10c-68,18-65,18-50,0c7-8,39-24,71-36c32-12,64-28,70-35c16-19,0-18-52,5c-24,10-57,21-74,25l-30,6l29-24
		c16-13,58-37,93-51c35-15,63-33,63-41c0-9-14-7-52,11c-29,13-64,26-78,30l-25,6l25-22c14-11,52-35,85-51c71-36,61-28,69-55
		c6-20,1-18-69,18c-141,72-135,35,7-46c43-25,78-50,78-55c0-15-7-13-48,15c-20,13-57,31-82,40l-44,16l29-31c17-18,58-48,93-67
		c79-44,75-54-6-13c-32,16-65,30-72,30c-20,0,28-48,72-73c48-26,50-41,3-21c-49,20-52,18-21-15l29-30l-31-38c-17-21-74-81-127-133
		c-73-72-93-88-85-66c15,40,7,42-24,6c-36-44-32-29,8,27c18,27,36,61,40,78l7,29l-22-19l-21-20l21,35c11,19,21,46,21,58
		c0,21-4,19-36-20c-20-23-41-45-47-47c-11-4-5,7,35,63c26,36,52,105,44,114c-3,2-22-19-43-47c-47-64-55-50-13,24c17,30,30,65,28,77
		c-3,21-7,18-33-21c-38-56-44-38-10,29c14,28,25,64,23,78c-3,26-5,24-32-21c-36-60-46-53-17,12c22,51,27,91,13,91c-5,0-17-19-28-41
		c-24-54-30-33-9,31c11,33,13,55,7,66c-8,14-12,11-23-19c-14-40-36-52-24-14c3,12,8,45,11,72l4,50l-17-37c-21-51-36-48-18,3
		c16,45,20,89,8,89c-5,0-16-17-25-38c-16-34-17-35-12-7c3,17,7,48,10,70l3,40l-17-37c-18-41-39-52-28-15c4,12,9,42,12,67l4,45
		l-19-39l-19-39l-41,79c-46,90-52,86-16-13c13-37,22-69,20-71c-2-2-17,4-35,13c-53,28-58,10-6-23c28-18,54-32,58-32c4,0,8-5,8-10
		c0-6-13-4-30,5c-72,37-46-7,29-47c52-28,35-39-21-13c-90,42-71,10,23-40c70-36,72-60,3-29c-30,13-54,20-54,15s29-28,65-50
		c36-23,65-45,65-51c0-5-25,3-56,17c-30,14-58,23-61,20c-5-6,55-51,106-79c17-9,31-22,31-27s-19,1-42,14c-92,53-83,18,10-42
		c28-18,52-38,52-43c0-14-2-14-66,25c-32,19-62,35-68,35c-15,0,43-57,95-93c26-17,50-40,52-49c6-20-8-24-19-7c-8,13-94,69-106,69
		c-17,0,20-43,75-86c36-29,57-53,57-66c0-18-4-17-42,14c-123,97-139,85-30-23c45-45,82-85,82-90s-25,11-55,35c-116,95-131,79-25-27
		c38-39,69-72,67-73c-1-2-23,13-47,32c-25,20-53,40-63,46c-35,18,8-46,64-96c60-54,60-74,0-25c-60,47-61,28-3-33c46-48,50-56,39-75
		c-11-20-188-173-200-173c-2,0-2,12,1,28c4,25,2,24-28-15c-17-24-34-43-37-43c-5,0,1,11,54,91c13,20,27,54,30,75l6,39l-21-25
		c-18-22-18-18,4,27c14,28,24,61,22,74c-3,20-8,15-42-34c-46-66-70-78-31-14c42,67,67,126,63,150c-3,18-10,12-43-37
		c-46-69-60-57-19,17c15,29,31,71,34,95c8,50,0,45-41-25c-36-60-38-33-4,44c16,35,25,71,23,92l-3,35l-32-59c-37-68-43-56-12,24
		c11,30,18,68,17,85c-4,30-5,30-30-24c-31-64-35-51-11,41c9,37,13,74,9,85c-8,19-15,6-40-70c-13-40-19-3-7,46c7,29,11,67,9,83
		c-4,30-4,29-17-12c-8-24-18-43-23-43c-11,0-10,11,7,60c17,48,20,100,5,100c-5,0-15-18-21-40c-7-22-16-40-21-40c-11,0-10,4,8,60
		c9,26,14,59,11,72c-3,20-6,18-22-19c-23-55-38-46-19,11c9,25,14,59,12,78l-4,33l-12-30c-7-16-16-38-20-48c-6-14-17,5-49,80
		c-24,54-43,91-43,83c0-13,25-104,47-173c5-18,3-18-35,2c-85,43-79,20,9-40c68-46,73-61,9-29c-54,28-61,20-14-17c71-55,89-71,83-77
		c-3-4-26,5-50,19c-24,13-48,25-53,25c-15,0,26-40,74-73c25-17,48-35,52-41c17-25,5-25-35-1c-91,52-79,14,13-45c26-17,50-39,53-50
		c4-15-5-13-59,17c-102,56-78,17,39-64c64-44,59-60-6-23c-30,16-57,30-61,30c-16,0,25-44,70-76c51-36,64-51,64-72c0-8-18,2-42,21
		c-24,19-58,42-76,51c-32,17-33,17-23-2c10-19,73-80,124-119c15-11,27-31,27-42c0-21-1-21-27,4c-40,38-102,79-109,72
		c-4-3,28-41,70-84c54-55,76-85,76-102c0-24-2-23-47,20c-50,48-113,95-113,84c0-15,40-66,102-131c61-64,80-94,62-94
		c-4,0-35,27-71,60c-35,33-68,60-74,60c-18,0,24-65,83-126c32-33,58-67,58-74c0-8-15,4-34,26c-32,36-96,83-96,69c0-15,27-55,77-111
		c29-34,53-64,53-68c0-4-21,11-47,33c-26,22-49,38-51,36c-6-5,18-47,50-85c15-19,28-38,28-41c0-4-51-39-112-79
		c-184-118-178-116-171-72l4,27l-18-24c-10-14-26-34-37-45c-18-20-18-20,0,9c41,66,74,139,74,163v24l-20-23c-17-20-16-15,6,33
		c14,32,24,68,22,80c-2,19-10,12-43-40c-35-54-55-75-55-56c0,3,18,36,40,73c26,43,42,84,46,116l5,50l-45-70c-54-83-64-61-16,35
		c18,36,30,75,30,97l-1,38l-37-65c-45-80-54-58-12,33c19,42,30,82,30,109l-1,43l-32-63c-18-35-35-60-38-58c-3,3,5,36,17,73
		c13,38,24,78,24,90c0,40-16,32-35-18c-11-27-23-49-27-49c-11,0-10,8,7,64c17,57,21,150,5,126c-6-8-15-32-20-52c-6-21-15-38-20-38
		c-13,0-13,8,5,66c17,55,19,100,6,108c-5,3-14-14-21-39c-7-25-16-42-20-40c-5,3-2,26,6,52c15,51,19,127,5,119c-4-3-14-26-21-51
		c-8-28-16-42-20-34c-5,6-1,31,7,55c8,23,13,60,11,81l-3,38l-19-54c-13-39-21-50-27-39c-4,8-2,31,6,54c8,21,14,57,14,79v40l-14-30
		c-7-16-17-41-22-54c-8-20-14-10-47,78c-21,56-42,104-47,107c-5,3-7-1-5-8c2-7,10-35,16-63c7-27,19-70,27-94c7-24,12-45,10-47
		c-2-3-25,7-50,22c-65,36-59,13,11-38c87-65,96-86,19-42c-64,35-59,14,8-37c73-55,105-109,35-59c-15,11-39,24-54,30
		c-47,18-29-8,44-61c39-28,70-58,70-65c0-18-9-18-30,1c-8,8-34,21-55,30l-40,16l41-38c23-21,57-52,78-69c43-37,50-66,9-38
		c-33,21-99,54-109,54c-15,0,43-53,99-91c76-53,77-80,0-33c-31,18-59,31-62,28c-6-6,66-77,113-110c18-13,27-27,25-39
		c-4-17-8-16-39,11c-50,43-110,78-110,64c0-7,38-49,85-94c47-46,85-91,85-101c0-16-7-13-37,16c-48,45-93,79-105,79
		c-15,0,47-82,101-133c40-38,51-55,51-80v-31l-52,55c-55,57-118,106-118,92c0-17,46-81,106-149c86-96,82-120-5-33
		c-38,38-74,69-80,69c-20,0,25-74,88-143c81-89,78-106-4-27c-36,34-68,60-71,57c-9-9,23-61,75-124c62-74,67-103,8-45
		c-67,66-79,53-21-23c29-39,33-50,22-60c-13-12-346-205-353-205c-2,0,5,20,16,45s19,58,17,73c-3,26-4,25-31-20c-45-77-40-55,8,37
		c29,54,45,98,45,121c0,19-4,33-9,30c-5-3-2,13,6,36s13,53,11,67c-3,23-8,19-48-41c-24-37-45-66-48-64c-2,3,17,47,43,98
		c36,74,46,103,43,133l-3,40l-45-74c-24-41-46-68-48-62c-2,7,12,48,32,91c29,60,37,88,34,122l-3,43l-36-69c-20-38-38-65-41-60
		s8,43,25,84c31,77,47,170,30,170c-6,0-24-30-41-67c-36-78-41-67-12,25c21,67,27,142,11,142c-5,0-17-24-26-52c-17-52-35-83-35-62
		c0,6,9,46,20,89c19,74,19,152,0,140c-4-2-13-26-20-52c-7-27-17-52-23-58c-10-11-9-5,13,102c10,44,11,68,3,85c-9,21-11,18-28-32
		c-23-70-30-52-10,25c17,67,19,104,6,124c-7,11-14-1-26-43c-24-81-31-61-11,28c13,54,15,79,8,93c-9,15-12,16-16,3c-3-8-13-33-21-55
		l-15-40l5,40c21,160,14,214-15,110c-12-42-30-62-30-32c0,15-76,217-85,226c-9,8,3-57,27-149c34-128,34-128,12-109
		c-10,9-38,26-62,38l-43,22l17-26c9-14,43-46,76-71c32-25,58-50,58-56s-7-5-17,4c-25,22-84,51-90,44c-6-6,47-59,105-108
		c40-33,44-58,5-32c-44,29-96,54-102,49c-7-8,37-52,102-102c76-59,76-83,0-37c-31,19-61,34-65,34c-20,0,17-44,76-90
		c57-45,83-76,73-87c-2-2-15,5-28,15c-24,20-103,62-114,62c-17,0,45-68,99-107c34-25,64-53,68-64c10-25,2-24-34,6
		c-17,14-48,35-70,46c-38,19-39,19-29,1c13-24,55-68,108-112c22-19,44-46,48-60c7-22,3-21-41,16c-65,54-114,87-120,82
		c-10-10,61-101,117-149c37-32,59-59,59-72c0-19-4-17-37,14c-49,47-112,93-118,87c-8-8,50-91,107-153c33-36,57-73,61-92
		c4-18,3-33-1-32c-4,0-25,23-48,52s-62,67-88,86l-47,33l16-38c18-43,47-84,122-170c76-88,69-115-8-31c-33,37-74,76-90,88l-29,20
		l10-25c20-53,40-84,104-161c36-43,64-81,62-83c-3-2-36,29-75,69c-39,39-74,70-77,67c-15-15,79-165,130-207c9-7,16-21,16-29
		c0-10-20,3-53,36c-29,29-56,52-60,52c-15,0,25-76,64-122c21-26,39-49,39-51c0-4-280-160-507-282c-32-17-43-20-45-10s-16,5-47-16
		c-24-17-45-28-47-26s21,21,52,42c59,41,124,110,124,132c0,9-5,11-12,7c-7-5,6,14,30,40c23,27,42,55,42,63c0,16-1,15-82-39
		c-64-43-80-37-20,7c82,61,165,155,149,171c-2,2-36-19-75-46c-65-46-85-53-64-25c4,6,33,33,65,60c52,43,106,119,94,131
		c-2,3-26-13-53-34c-98-77-100-66-5,32c63,64,99,121,87,134c-3,2-30-17-61-43c-67-57-71-50-9,17c42,45,89,127,78,137
		c-2,3-27-17-54-44c-61-60-65-48-9,20c42,51,85,132,75,142c-3,3-26-16-50-43c-56-61-60-44-6,22c37,45,68,109,57,120
		c-2,2-21-14-41-36c-46-51-47-32-1,24c36,44,70,114,61,124c-4,3-22-14-42-37c-47-55-58-45-12,11c42,52,58,81,58,105
		c-1,13-11,7-40-26c-52-56-52-33-1,33c22,28,42,65,46,81l7,30l-42-43l-41-42l6,132c6,154-5,145-33-27l-18-109l-22,35
		c-12,19-31,44-42,54c-21,19-21,19-15-10c4-17,23-59,42-94c18-35,31-66,27-70c-4-3-9,0-12,8c-3,8-20,30-38,50l-33,36l10-40
		c6-22,22-59,36-82c13-23,23-52,21-64c-2-18-8-14-35,28c-18,28-40,56-49,64c-15,12-16,11-10-11c4-14,25-61,47-105c21-44,39-86,39-93
		c0-22-15-12-34,22c-10,19-30,45-43,58l-25,23l7-35c4-19,22-62,41-94c22-37,34-69,32-85l-3-26l-17,31c-25,45-88,118-88,101
		c0-25,26-90,59-145c30-51,39-82,23-82c-4,0-18,20-31,44c-13,25-32,53-44,63c-20,18-20,18-13-21c4-22,22-69,40-105
		c21-43,31-74,27-89c-5-19-11-12-38,45c-18,37-42,79-53,93l-21,25l6-49c4-26,22-85,41-130c23-54,33-89,29-106c-6-21-10-15-36,45
		c-16,39-39,81-50,95l-21,25l7-53c3-29,19-91,36-136c28-77,29-86,16-117l-13-34l-13,50c-13,55-70,185-80,185c-14,0,7-139,34-228
		c19-61,25-96,18-103c-6-6-15,11-27,52c-17,62-61,159-73,159s7-138,31-219c14-47,22-89,19-95c-3-5-12,14-19,42c-14,53-60,152-71,152
		c-10,0,6-123,27-199c12-41,19-79,17-85c-3-6-8-2-11,9c-4,11-18,43-31,70l-24,50v-55c-1-30,6-77,14-104s14-50,13-52
		c-2-1-40-18-84-38c-79-34-277-96-358-112l-39-7l28,37c15,20,25,39,22,42c-2,3-27-9-55-25c-81-51-72-35,16,25c45,31,95,75,112,97
		c30,41,26,61-8,36c-9-7,2,5,24,27c53,50,90,104,72,104c-7,0-48-22-90-50c-82-52-109-52-35,0c103,74,144,110,165,149
		c13,22,19,41,15,41c-5,0-43-22-84-49c-42-28-76-45-78-38c-2,6,11,22,30,36c67,51,131,116,150,153c11,21,17,38,14,38s-36-22-73-49
		s-69-45-70-40c-2,5,28,39,68,76s82,87,96,114c13,27,22,49,20,49s-35-25-72-55c-37-31-69-53-72-50s20,32,52,64c51,54,102,138,90,150
		c-2,3-29-19-59-49s-57-51-60-48s20,36,51,74c95,115,115,189,29,104c-67-66-72-51-9,26c46,58,64,92,64,122c-1,11-18-3-50-38
		c-62-70-66-50-4,22c81,93,106,186,27,98c-26-29-49-47-51-41s15,32,38,59c41,45,70,98,70,124c0,7-23-12-50-42c-39-44-49-51-50-34
		c0,11,14,33,31,50c35,33,63,77,74,114c6,21-1,17-45-25l-52-50l6,100c4,55,9,119,12,143c3,23,1,42-4,42c-9,0-52-207-52-252
		c0-35-11-35-33,0c-19,31-64,82-71,82c-10,0,32-102,59-142c14-22,25-47,23-56c-2-12-9-7-25,19c-12,19-32,44-44,55l-22,19l6-34
		c4-18,23-59,42-91s35-64,35-72c0-31-14-26-40,15c-15,23-40,53-55,67l-27,25l7-25c14-46,32-85,64-134c29-46,41-96,23-96
		c-4,0-16,15-26,34s-34,49-53,68c-34,32-35,32-28,8c7-28,39-93,75-156c15-26,21-47,16-59c-6-16-12-11-40,31c-19,27-46,60-61,74
		l-27,25l7-25c3-14,9-34,12-44c5-17,38-77,76-138c9-14,12-31,7-43c-6-18-9-15-28,20c-11,22-35,56-52,75l-31,35l6-40
		c4-22,24-73,46-114c33-60,38-79,31-100l-9-26l-17,40c-21,49-88,155-99,155c-4,0-5-11-2-25s8-37,11-52c3-16,23-67,44-114
		c24-53,37-95,33-108c-8-33-20-25-37,25c-15,45-73,144-83,144c-14,0,12-112,43-193s33-93,22-123c-7-19-15-34-18-34s-12,23-19,51
		s-30,83-50,123l-36,71l-3-56c-2-43,6-83,33-168c25-77,33-116,27-127c-11-20-15-14-37,61c-16,57-64,155-75,155c-15,0,4-136,30-222
		c32-101,35-118,23-118c-5,0-16,28-26,62c-17,58-62,148-74,148c-13,0,7-141,31-214c14-45,22-86,17-93c-5-10-12-1-20,29
		c-7,24-24,61-37,83l-24,40v-50c0-27,7-75,15-105s15-58,15-61c0-4-19-10-42-13c-79-13-433-66-442-66c-6,0,5,16,24,35
		c18,19,31,37,28,41c-3,3-29-7-58-21c-29-14-54-24-57-21c-3,2,19,17,48,32c81,41,126,73,155,112l27,35l-24-6l-24-6l25,17
		c36,24,99,95,94,104c-3,4-42-11-87-35c-104-53-105-53-89-35c7,9,48,36,91,61c69,40,151,116,151,139c0,4-37-11-82-34
		c-46-24-86-44-91-46c-4-2-4,4-1,13c4,9,35,34,70,56c62,39,121,97,144,139c11,21,9,20-37-6c-26-15-59-35-73-44c-50-33-53-34-41-12
		c6,11,39,40,73,65c70,50,84,64,119,122l24,40l-30-19c-17-11-52-34-79-52c-28-19-52-31-55-28c-3,2,25,32,62,65
		c57,52,121,139,102,139c-4,0-31-20-62-45s-58-43-61-40s22,34,55,68c55,56,115,148,96,147c-5-1-33-23-63-50c-73-65-78-44-7,29
		c31,31,64,74,73,96l16,39l-56-48c-31-26-56-44-56-41c0,4,26,36,59,70c50,54,92,125,74,125c-3,0-28-20-55-45c-70-63-74-47-6,23
		c93,95,109,150,23,77c-70-60-71-41-1,33c87,93,105,148,23,73c-24-23-46-41-49-41c-2,0,6,62,18,138c19,119,22,157,11,141
		c-4-6-54-173-70-234l-13-50l-31,57c-18,31-38,60-44,64c-20,12-1-63,32-128c29-58,41-114,16-75c-7,11-27,40-45,65l-34,47l7-40
		c3-22,19-67,34-100c17-37,25-68,21-79c-5-16-12-9-37,35c-17,30-39,61-48,69c-17,14-18,13-11-24c4-22,23-70,42-107
		c26-52,32-73,25-91c-8-22-9-21-29,17c-11,22-33,56-47,75l-27,35l6-43c4-24,21-73,39-110c30-61,38-112,17-112c-4,0-10,10-14,23
		c-6,24-85,141-91,135c-9-8,19-97,51-166c21-47,32-83,28-95c-5-16-12-8-35,39c-16,33-38,70-50,84l-20,25l6-48c4-27,20-79,36-118
		c20-47,27-77,23-95c-8-31-17-22-34,31c-7,22-26,65-44,95l-31,55l-3-42c-2-29,8-76,33-148c28-83,33-109,25-125c-6-11-12-20-15-20
		c-2,0-11,26-20,57c-18,60-61,153-72,153c-12,0,6-128,30-210c25-83,25-85,7-119l-18-36l-11,40c-6,22-11,46-11,53s-14,50-32,95
		l-32,82l-7-50c-6-50,8-153,34-253c12-42,12-55,1-70c-11-16-13-15-18,8c-19,93-30,131-50,179c-20,47-24,51-29,30
		c-12-42-7-104,13-204c22-107,24-125,12-125c-4,0-13,28-19,63c-12,63-51,163-59,154c-11-11-4-148,11-221c12-56,13-82,6-89
		c-8-8-11-6-11,6c0,27-42,147-51,147c-11,0-11-114,0-162c9-37,8-38-23-42c-45-7-737-48-741-44c-2,2,28,16,66,32
		c65,27,169,105,141,106c-7,0-40-11-74-25s-63-23-66-20c-3,2,6,9,20,14c79,30,167,76,205,107c46,38,56,60,23,49c-33-10-23,3,18,24
		c45,23,113,91,91,91c-8,0-54-16-102-35s-89-35-92-35c-21,0,20,26,108,69c93,45,191,121,175,136c-3,3-48-13-101-35s-100-40-103-40
		c-18,0,27,35,92,71c84,46,124,77,154,119l21,29l-57-25c-31-13-74-34-96-45c-28-14-39-16-36-7c5,13,24,27,123,88
		c50,30,132,116,122,127c-2,2-41-17-87-42c-120-67-120-51,0,32c49,35,120,117,109,127c-2,2-35-16-73-41c-68-44-104-51-55-10
		c14,12,47,39,73,60c46,38,104,113,94,122c-2,3-33-16-69-40c-62-45-99-46-42-2c61,47,105,92,119,120c9,16,14,31,12,33
		c-2,2-30-15-61-37c-31-22-57-36-57-31s28,33,61,62c56,49,99,102,99,123c0,5-29-12-65-38c-63-45-91-47-38-2c76,63,106,93,119,119
		c8,15,11,28,8,28c-4,0-32-18-61-41c-87-65-86-31,0,37c50,39,102,102,92,112c-2,3-30-14-60-37c-31-24-58-41-60-39c-2,1,12,66,30,143
		c30,121,35,160,21,144c-6-8-86-218-86-228c0-5-5-22-10-37l-11-27l-24,49c-14,27-34,60-46,74l-20,25l7-45c3-25,19-73,35-108
		c37-82,27-114-13-40c-16,29-36,60-44,68c-14,13-15,11-8-25c3-22,18-68,31-103c17-40,23-71,19-88c-6-24-9-22-36,33
		c-17,32-39,69-51,83l-20,25l6-45c4-25,21-78,37-118c21-51,28-80,23-99c-6-26-8-24-41,37c-19,36-41,71-50,80c-15,14-16,11-10-29
		c4-24,20-75,36-113c19-45,28-78,24-94c-3-13-9-24-13-24c-3,0-16,24-29,54c-13,29-36,69-52,87l-29,34l5-40c3-22,21-79,40-127
		c24-58,33-95,29-109c-6-19-12-12-40,47c-18,38-40,78-49,89c-17,19-17,18-13-35c3-30,17-85,32-123c24-60,26-71,15-98l-13-31l-27,79
		c-14,43-36,94-48,113l-22,35v-61c0-35,10-95,25-145c29-98,30-109,11-134c-12-16-15-11-30,51c-10,38-28,89-40,114l-24,44l-6-40
		c-7-38,11-156,35-230c8-26,6-38-12-68c-12-20-23-35-25-33c-2,2-10,39-18,83c-7,43-25,106-39,139l-25,60l-7-49c-9-57-1-163,19-256
		c10-48,11-69,2-82c-6-10-13-18-16-18s-11,35-17,78c-6,42-21,104-34,137c-20,54-23,58-30,35c-12-43-10-151,6-245c8-54,11-93,5-99
		c-5-5-11,1-13,15c-3,13-10,50-15,81c-6,31-19,76-30,100l-19,43l-8-60c-5-36-3-101,4-164c8-68,9-107,2-114c-6-6-12,4-16,29
		c-12,69-37,136-47,126c-12-12-14-100-5-172c6-45,4-59-11-76c-17-20-36-23-250-38c-299-21-285-21-242,5c19,12,45,30,58,42
		c27,25,30,52,5,42c-47-19-43-14,17,19c78,44,144,105,130,121c-6,7,0,17,19,28c39,23,97,90,82,95c-10,3-62-15-174-63
		c-75-32-25,5,71,52c95,46,192,122,192,149c0,8-1,14-3,14c-8,0-135-53-169-71c-40-20-51-13-20,13c9,8,50,33,91,54
		c66,35,171,131,171,156c0,5-45-15-101-43c-56-27-99-45-97-38s40,34,84,61c81,50,134,100,168,158l19,33l-59-33c-32-19-76-44-97-58
		c-68-42-51-16,30,44c69,52,143,138,143,166c0,5-36-15-80-46c-99-68-106-49-10,28c60,49,131,139,118,151c-2,2-34-18-71-46
		c-37-27-69-49-72-49c-17,0,19,45,68,84c49,40,106,120,95,132c-2,2-30-17-62-42c-32-25-60-43-64-40c-3,4,27,37,67,74
		c65,59,125,142,104,142c-5,0-34-21-66-46s-61-44-63-41c-10,9,10,34,59,73c49,38,97,96,97,117c0,10-8,5-85-51c-68-50-54-17,24,57
		c64,61,99,107,89,117c-3,2-29-14-59-36c-29-23-55-37-56-33c-2,5,12,75,31,156c18,81,30,150,25,153c-5,3-13-5-18-18
		c-5-13-19-48-31-78c-13-30-35-93-50-140c-27-84-27-85-39-55c-15,37-64,115-72,115c-12,0,10-97,35-154c27-61,33-96,16-96
		c-5,0-10,5-10,12c0,15-62,118-71,118c-12,0,10-96,35-152c21-46,24-63,16-84c-10-25-11-24-45,44c-20,38-43,76-52,83
		c-15,13-16,10-9-31c3-25,20-80,37-122c22-55,29-86,24-105c-6-26-8-25-38,32c-18,33-40,71-50,85l-17,24v-38c0-21,16-78,35-126
		c30-74,34-91,25-115c-11-28-11-28-45,41c-18,38-43,83-55,99l-22,30l6-53c3-29,21-91,40-138c25-61,33-92,27-107c-8-20-10-19-25,17
		c-9,21-16,40-16,42s-16,29-35,61l-35,58v-53c0-34,11-87,31-143c19-57,29-99,25-114c-7-29-26-34-26-7c-1,29-45,146-74,193l-27,44
		l4-85c2-52,15-122,32-179c23-81,25-97,14-118c-12-23-14-21-34,54c-12,43-32,101-45,128l-23,50l-8-55c-6-43-2-82,17-178
		c24-118,24-123,7-152c-9-17-20-30-23-30s-11,37-17,83c-7,45-24,113-39,151c-25,64-28,67-37,45c-15-40-12-157,7-271
		c18-103,16-164-3-128c-5,8-11,40-15,70c-9,74-56,214-67,203c-19-19-21-166-5-265c19-114,19-128,6-128c-5,0-10,15-10,33
		c0,42-24,141-46,192l-17,40l-10-40c-9-39-4-208,9-292c5-29,3-43-5-43c-6,0-11,10-11,23c0,31-41,167-51,167c-18,0-23-176-6-265
		c2-10-37-15-216-30l-88-7l24,39c13,21,29,48,36,61l12,23l-33-17c-18-9-57-34-85-55c-29-22-53-35-53-30c0,6,24,32,53,58
		c84,77,126,124,152,171c14,25,24,46,22,48c-7,7-124-70-170-112c-28-25-53-42-56-38c-3,3,10,19,29,36c97,84,188,181,214,228l28,52
		l-48-28c-68-38-134-87-168-123c-34-35-49-39-44-13c2,10,46,54,98,98c87,74,190,197,176,211c-10,10-149-79-203-130l-53-50l1,29
		c1,47,10,59,98,125c71,54,161,150,161,173c0,11-123-55-179-97c-50-37-54-38-48-16c4,13,7,27,7,30s37,30,82,59
		c79,52,158,123,178,161c10,17,8,17-27,2c-60-25-115-54-160-85c-37-25-43-27-43-11c0,27,9,35,90,82c68,40,157,117,147,127
		c-6,6-117-34-155-56c-19-12-36-19-38-17c-13,13,15,37,79,69c80,39,188,119,169,126c-16,5-108-23-156-48c-44-22-51-21-42,7
		c3,10,39,35,81,56c66,32,162,104,152,113c-6,6-109-27-149-47c-21-11-38-17-38-14c0,23,31,50,91,80c62,32,155,102,146,111
		c-6,6-109-27-149-47c-21-11-38-16-38-11c0,18,28,40,90,75c36,19,79,50,95,67l30,32l-30-8c-31-7-85-25-119-39c-14-6-17-5-12,4
		c4,6,38,27,74,46c72,37,141,90,131,100c-8,7-128-32-146-47c-20-16-16,3,13,68c22,50,84,227,84,240c0,2-4,4-10,4c-5,0-42-64-82-142
		l-71-143l-22,85l-22,85l-11-40c-15-50-15-75,2-152c7-34,10-67,6-74c-9-13-10-8-31,81c-17,75-26,81-34,25c-7-44-4-93,10-190
		c10-61-10-21-25,53c-7,34-16,65-21,67c-4,3-12-19-19-48c-8-42-7-69,5-132c18-93,18-103,6-90c-4,6-14,38-21,73c-7,34-16,65-21,67
		c-4,3-12-18-18-48c-9-41-8-69,3-127c20-104,3-125-19-24c-24,112-31,118-45,48c-11-50-10-74,5-157c9-54,14-101,12-104
		c-3-3-18,36-33,87c-16,53-30,86-34,78c-18-33-19-101-4-170c9-40,18-86,20-103c5-38-3-22-48,95l-32,85l-9-63c-8-54-5-74,19-155
		c44-149,42-177-6-67c-23,52-46,99-51,105c-5,5-9-20-9-63c0-59,7-91,36-168c49-131,39-149-18-31c-26,53-52,97-59,97c-8,0-10-21-7-67
		c3-51,13-89,42-153c57-127,54-148-4-37c-29,53-57,97-62,97c-12,0-6-122,8-154c5-14,4-17-4-12c-26,16-14-101,18-177
		c16-40,23-63,15-53c-8,11-15,23-15,28c0,4-4,8-10,8c-19,0-10-80,15-142c14-34,25-65,25-68c0-4-24-10-54-14c-48-5-194-38-471-106
		c-47-12-89-20-91-17c-3,3,4,20,15,38c12,19,21,37,21,42c0,11-59-21-117-64c-98-74-80-40,31,57c70,61,164,179,152,192
		c-9,8-106-51-170-105c-36-30-66-49-66-43s14,23,32,38c107,90,167,149,205,204c24,34,43,65,43,69c0,15-134-68-201-124
		c-56-47-69-54-69-38c0,12,38,51,109,110c95,79,138,128,186,210c15,26-135-62-205-120c-61-52-70-56-69-37c2,49,17,68,94,125
		c74,55,185,166,185,185c0,12-137-58-191-98c-26-19-49-34-51-34c-3,0-3,11-1,24c4,18,32,42,99,86c86,57,193,155,181,166
		c-8,9-130-45-184-81c-29-19-54-35-56-35c-3,0-2,11,1,25c3,19,23,35,81,67c68,37,177,125,168,135c-7,6-132-36-165-57
		c-39-24-42-24-42-5c0,9,37,34,91,60c78,40,187,121,176,132c-6,5-138-37-179-58c-27-14-38-16-38-7c0,25,17,39,81,69
		c64,30,169,104,169,119c0,9-122-26-163-47c-32-16-40-14-31,11c3,9,38,31,78,50c65,30,183,113,174,121c-7,7-121-26-160-46
		c-47-24-51-24-38,0c5,11,41,36,78,56c76,40,156,104,131,105c-15,0-99-26-141-45c-10-4-18-3-18,2s37,28,83,51c45,22,96,55,112,73
		l30,32l-40-8c-22-3-60-15-84-26c-24-11-46-18-48-16c-2,2,9,30,23,63c42,94,92,244,83,250c-8,4-36-43-122-204l-44-84l-18,74
		c-22,92-32,103-40,44c-7-45-4-90,11-183c12-75-10-46-30,39c-19,81-20,82-32,53c-17-39-17-96,0-170c8-33,11-66,7-73
		c-4-8-15,22-26,72c-10,47-22,86-26,86s-12-22-19-49c-9-40-9-65,4-133c19-98,19-98,8-98c-5,0-14,28-21,63s-16,69-21,77
		c-14,22-33-68-27-125c17-144,18-159,10-145c-5,8-18,50-28,93c-10,42-22,77-26,77c-23,0-26-144-5-235c25-102,2-94-29,11
		c-25,83-30,93-38,73c-5-13-9-51-10-84c0-51,6-85,39-197c3-10,1-18-4-18s-23,39-41,87c-44,123-48,127-56,58c-8-64,4-134,40-231
		c39-104,12-91-36,16c-43,99-44,100-52,68c-14-51-1-119,38-219c55-136,38-141-31-9l-59,115l-3-65c-3-70,15-134,69-242
		c55-110,28-92-34,22l-62,115l-3-52c-2-29,2-69,7-90c8-26,7-39-1-44c-6-4-9-29-6-67c3-45,16-84,51-157c26-54,46-99,45-101
		c-2-1-19,26-38,62c-19,35-38,64-42,64c-17,0-6-88,18-145c14-33,28-67,31-76c4-13-36-26-244-78c-136-34-256-64-267-67
		c-15-5-13,1,11,37c17,24,35,54,42,67l12,23l-48-25c-27-13-73-43-101-65c-91-73-58-18,43,69c83,73,152,155,171,204
		c9,24-116-49-192-112c-35-29-64-47-64-40s48,53,106,102c73,62,120,110,152,158c25,37,43,70,41,72c-9,8-152-82-216-136
		c-62-52-68-55-72-35c-2,15,7,29,30,47c118,89,213,177,248,229c23,33,41,63,41,66c0,16-165-82-229-136c-71-60-77-60-65,0
		c5,26,27,47,113,111c87,65,181,161,181,184c0,12-139-59-197-100c-61-43-74-43-57,0c4,9,56,49,118,90c67,45,128,94,155,126
		c38,46,41,51,20,45c-48-15-169-74-213-104c-25-18-46-28-46-22c0,36,25,60,113,110c94,53,187,131,156,131c-25,0-128-38-175-64
		c-27-15-44-20-44-13c0,23,16,34,115,86c84,43,205,131,180,131s-137-36-187-59c-32-15-58-27-58-25c0,1,4,14,10,28c7,19,33,38,97,68
		c47,24,107,62,132,85l46,42l-59-15c-32-8-82-26-112-39s-54-21-53-17c3,28,25,47,104,85c78,39,183,113,173,123c-8,7-124-29-171-53
		c-41-20-49-22-43-8c3,9,6,20,6,25c0,4,37,26,83,49c79,39,179,121,132,108c-11-3-33-9-50-13c-16-4-50-15-73-26c-77-32-41,4,48,50
		c75,38,156,99,146,109c-5,5-89-19-140-41c-22-9-40-15-42-13c-2,1,8,27,22,57c41,87,105,271,98,282c-6,10-33-34-129-216l-53-99
		l-12,58c-7,32-18,74-25,94l-12,36l-13-56c-11-47-10-68,4-138c11-54,14-87,7-98c-7-14-11-8-20,27c-6,25-17,68-25,95l-13,50l-12-40
		c-15-54-14-93,5-177c10-42,12-74,7-79s-19,30-33,88l-24,98l-12-40c-17-53-17-116,0-195c8-36,10-71,6-79c-5-9-14,14-24,60
		c-22,101-31,111-45,55c-14-58-14-86,4-170c9-41,11-75,6-84c-10-18-10-18-37,93c-24,101-29,105-44,34c-11-51-11-75-1-133
		c33-184,23-204-25-47c-24,80-29,90-37,70c-16-41-10-160,12-234c42-139,21-126-35,23c-21,56-42,102-46,102c-9,0-13-71-10-135
		c2-22,18-83,36-135c49-144,31-156-29-19c-37,85-51,107-56,93c-21-53,0-162,56-289c15-33,22-62,18-70c-6-10-27,23-68,100
		c-33,63-63,115-67,115c-5,0-8-15-8-32c0-72,21-154,65-250c63-142,56-153-16-23c-33,61-66,115-71,120c-17,16-2-135,17-181
		c10-24,11-34,4-26c-22,21-29,13-29-33c0-49,34-148,80-234c17-30,28-56,26-58c-2-2-19,24-38,58c-19,35-40,65-48,67
		c-24,8-2-98,40-185c34-71,36-83,22-87c-9-3-80-21-157-41c-77-20-171-45-210-56l-69-19l41,43c43,44,106,137,98,145
		c-7,7-95-47-147-90c-89-74-50-14,51,80c88,81,183,204,169,217c-9,10-156-89-205-138c-43-41-53-47-53-31c0,11,12,29,28,41
		c102,75,272,266,272,304c0,17-156-84-222-143c-63-55-68-58-68-35c0,19,20,41,82,93c114,94,178,160,212,217c15,27,26,50,24,53
		c-9,9-172-97-235-152l-65-57l7,49c4,27,15,55,24,61c138,104,199,157,233,201c22,30,38,56,35,58c-8,9-139-61-196-105
		c-30-22-57-39-59-36c-2,2-2,15,2,29c4,18,38,47,111,97c89,60,212,175,200,187c-7,8-169-69-217-103c-27-20-52-34-54-32
		c-3,3-2,16,1,30c5,19,30,39,93,76c48,27,109,73,137,100c27,28,47,51,44,51c-18,0-150-51-182-70c-21-12-40-20-43-18
		c-15,15,19,43,105,88c83,44,190,125,179,136c-8,7-125-29-180-57c-32-16-58-27-58-25c0,33,28,60,97,95c84,42,193,123,175,129
		s-122-27-170-53c-23-13-42-22-42-20s4,15,10,29c6,18,33,38,92,67c78,39,184,116,174,126c-7,8-116-27-169-54c-41-20-49-22-43-8
		c3,9,6,21,6,25c0,5,35,27,77,50c65,34,153,100,153,114c0,7-113-25-142-40c-32-16-38-17-38-5c0,5,40,31,90,57c49,26,104,63,122,82
		l33,34l-40-6c-22-4-64-18-94-32c-30-13-55-23-57-22c-1,2,11,35,28,73c30,69,98,262,98,277c0,30-27-12-100-154l-84-163l-13,50
		c-7,28-19,70-27,95l-13,45l-12-57c-10-48-10-71,5-148c11-61,13-95,6-102c-6-6-17,22-32,82c-24,97-34,101-45,18c-4-30-1-79,10-133
		c26-127,5-129-25-2l-23,102l-13-40c-17-54-17-126,1-210c21-96,3-103-19-8c-26,110-31,114-46,43c-11-54-11-75,3-153
		c23-130,5-147-23-21c-12,54-26,103-30,107c-4,5-14-23-21-62c-11-63-10-83,7-171c11-54,17-107,13-117c-6-17-7-16-12,2
		c-35,122-59,196-63,192c-3-2-9-29-14-60c-7-44-5-75,12-149c41-189,34-196-27-25c-46,126-60,123-53-12c3-61,13-111,35-174
		c48-138,30-148-28-16c-27,62-50,114-53,116c-8,9-17-91-11-130c4-23,25-88,47-145c58-150,41-162-30-21c-32,63-62,112-67,109
		c-4-3-7-34-6-70c2-64,18-112,92-277c12-29,20-56,16-59c-4-4-8-5-9-3c-2,2-28,53-59,112c-31,60-60,108-65,107c-14-1-6-125,11-167
		c10-24,12-34,4-25c-21,20-29,14-29-25c1-63,19-123,70-230c52-110,60-141,11-46c-16,32-36,67-44,78c-48,63-23-87,35-207
		c23-48,38-91,34-95c-6-7-352-112-370-113c-5,0,0,10,11,23c22,25,63,90,63,102c0,11-90-44-142-87c-86-71-50-15,50,78
		c60,56,109,113,129,148c18,31,29,56,24,56c-17,0-130-75-185-122c-32-28-56-44-55-36c2,9,48,55,103,103c63,57,114,113,143,157
		c25,38,43,71,41,74c-8,8-154-89-216-143c-57-50-63-54-60-31c2,17,36,53,110,116c71,61,123,116,153,159c24,37,43,69,40,71
		c-9,10-160-87-221-142l-67-61l6,49c4,27,8,50,10,51c12,8,157,119,172,132c21,18,86,98,99,121c13,22-107-37-177-88
		c-37-28-69-50-70-50c-2,0-2,13,1,29c3,23,21,40,98,91c82,54,212,176,200,187c-6,7-150-62-198-94c-69-47-68-47-58-12
		c5,18,11,33,12,34c2,1,38,21,80,45c71,40,186,140,162,140c-22,0-129-41-172-66l-44-26l7,23c9,29-6,18,100,73c81,42,183,121,172,133
		c-7,7-158-46-194-69c-36-22-37-21-24,16c7,17,37,38,98,70c49,25,106,64,128,86l39,40l-54-16c-30-8-79-26-109-40c-29-13-55-24-57-24
		s2,12,8,26c8,17,40,40,98,70c71,36,160,102,160,119c0,7-102-25-158-50c-28-13-52-22-52-19c0,21,29,48,78,73c61,31,167,109,159,118
		c-7,6-86-16-131-38c-22-10-41-17-44-15c-10,10,13,28,83,63c42,20,92,55,113,76l37,38l-30-6c-16-4-57-18-90-31c-32-13-60-22-62-20
		c-2,2,9,32,25,67c38,85,95,256,90,271c-5,13-50-65-122-209c-25-51-48-93-50-93c-2,0-12,35-21,78c-21,94-28,106-36,67
		c-11-49-10-124,3-192c18-101-4-99-26,2c-10,47-22,85-26,85c-22,0-25-117-7-207c22-104,1-92-24,13l-23,99l-12-40
		c-16-52-16-114,0-197c7-37,10-72,6-78s-15,28-25,75c-9,47-21,85-25,85s-12-25-18-55c-9-44-8-74,4-146c22-127,4-132-25-8
		c-19,80-26,97-34,83c-19-33-20-146-2-233c9-46,13-87,8-92c-4-4-21,38-37,93c-25,88-31,98-39,77c-17-43-11-151,12-233
		c12-43,19-81,16-84c-7-8-8-6-50,107c-43,115-53,116-54,3c-1-45,8-91,33-166c18-57,30-109,26-115c-3-7-26,34-49,89
		c-24,55-48,103-53,107c-7,4-9-25-6-83c4-73,11-106,41-180c36-90,44-124,30-124c-5,0-30,48-57,105c-61,130-82,140-72,33
		c6-55,20-102,58-191c27-65,48-120,45-123s-29,41-59,97c-57,109-78,130-78,81c0-33,15-117,25-145c6-13,3-16-9-11c-13,5-16-1-16-33
		c0-54,25-134,71-225c51-101,50-113-1-21c-23,40-46,73-52,73c-19,0,1-101,38-185c20-44,36-86,37-93c1-8-50-37-123-72
		c-69-32-172-83-229-114c-58-31-106-56-109-56c-2,0,12,18,32,41c40,44,63,85,53,95c-4,4-15,1-24-6c-10-8,2,7,27,32
		c51,52,95,124,82,132c-5,3-55-26-112-65c-110-76-133-74-31,3c94,71,140,115,177,171c45,68,30,81-35,33c-28-20-73-52-100-71
		c-84-60-51-6,48,78c65,56,94,89,120,136c18,34,31,64,28,67c-2,3-45-27-96-66c-50-39-91-65-91-58s38,49,85,93c65,63,91,96,116,149
		c17,37,30,69,28,71c-3,2-46-32-97-76c-50-44-92-76-92-71s34,47,75,92c56,63,79,97,94,141c11,33,16,59,12,59s-38-32-76-70
		c-37-39-70-68-73-66c-5,6,7,24,82,119c35,46,59,88,70,125c8,31,14,57,12,59c-1,2-32-30-67-71s-67-75-71-75c-13-1,4,33,37,74
		c17,22,40,54,52,70c22,32,57,135,45,134c-4,0-32-29-62-64c-62-73-83-70-23,3c22,26,49,61,60,77c22,32,57,135,45,134
		c-4,0-34-32-67-70c-60-69-92-80-38-13c63,80,93,128,104,166c5,22,9,41,7,43c-2,2-30-28-63-65c-71-81-88-67-20,16
		c53,66,69,93,83,149l11,40l-65-70l-65-70l7,178c5,128,4,177-4,177c-7,0-14-10-17-22c-13-61-35-201-41-268c-6-74-7-75-23-50
		c-20,31-113,131-118,127c-9-10,36-111,79-174c48-72,57-93,38-93c-5,0-10,4-10,8c0,12-100,122-111,122c-15,0,27-97,70-164
		c25-38,41-74,41-92l-1-29l-22,30c-38,52-121,137-125,127c-6-20,37-112,87-184c41-60,50-79,43-97c-8-22-9-21-35,16
		c-34,49-117,131-117,115c0-29,41-116,88-183c40-58,49-80,45-101c-5-27-6-26-48,30c-23,31-61,75-84,97l-42,40l7-30
		c13-54,42-114,94-190c37-54,50-84,48-103c-3-26-4-25-30,18c-30,50-118,153-125,147c-11-11,32-121,77-200c49-86,57-111,42-134
		c-5-7-19,11-40,50c-32,63-120,182-128,174c-13-13,23-127,74-231c53-109,62-148,43-169c-4-4-20,21-35,57c-15,35-48,93-73,128l-45,63
		l6-68c4-53,17-96,57-184c50-113,51-117,38-160c-6-24-15-40-19-36c-4,4-19,42-34,83s-48,109-74,150l-47,75l-3-36
		c-5-54,22-165,67-281c43-108,46-124,32-146c-5-9-17,13-35,65c-25,71-111,233-123,233c-3,0-2-37,2-82c4-56,20-120,47-198
		c47-136,53-160,41-160c-5,0-17,26-27,58c-10,31-36,90-59,131l-42,74l-3-70c-2-59,3-87,37-188c26-75,37-124,32-133c-6-11-12-5-21,24
		c-7,21-29,68-49,104l-36,65l-3-54c-2-38,5-81,23-139c14-46,25-85,23-87c-58-46-200-130-220-130h-27l35,34c39,38,90,119,80,128
		c-3,3-51-24-107-61c-55-37-103-65-106-62c-3,2,24,26,58,53c97,73,159,133,191,182c52,82,35,81-88-4c-121-85-123-62-4,39
		c75,64,96,88,126,148c41,82,45,82-86-20c-44-34-80-58-80-51c0,6,41,51,91,100c66,65,97,104,115,145c14,31,24,60,22,65
		c-2,4-42-26-90-67c-49-42-88-71-88-65c0,6,31,45,70,87c47,52,76,94,90,132c11,30,19,59,18,64c-2,5-36-24-76-65c-87-90-95-75-12,24
		c57,68,105,164,98,196c-2,9-30-16-70-62c-82-92-91-73-13,27c35,45,61,90,71,125c9,30,14,56,12,58c-1,2-30-28-63-65
		c-32-38-61-67-63-65c-5,5,10,27,73,108c38,50,85,160,73,172c-1,2-30-28-63-66c-61-70-92-92-59-41c9,15,34,47,55,72
		c35,42,69,113,69,146c0,9-102-90-117-115c-2-2-6-2-9,1c-8,9,9,37,55,93c44,53,65,92,75,140c6,27,0,24-58-37l-63-68l5,180
		c3,116,1,180-5,180c-11,0-53-222-54-286c0-21-4-47-8-57c-6-16-11-14-34,20c-31,45-95,109-101,102c-9-9,44-123,84-180
		c23-33,40-67,38-76c-2-12-11-5-31,24c-33,48-85,99-92,91c-10-10,31-103,73-165c23-34,42-69,42-77c0-30-18-25-44,12
		c-25,37-116,131-116,121c0-28,43-119,86-186c35-52,54-91,54-110l-1-28l-27,35c-37,49-124,141-129,137c-10-11,43-127,87-190
		c29-44,50-84,50-100c0-38-10-33-47,21c-44,65-123,141-123,119c0-35,39-118,93-196c44-64,54-86,48-103c-7-19-10-17-34,23
		c-14,24-47,67-71,94c-39,43-45,47-46,28c0-36,34-117,83-196c34-55,44-79,40-99c-3-16-8-28-12-28s-21,28-38,63
		c-29,58-120,183-128,175c-12-12,32-150,79-245c42-84,55-119,50-138c-3-14-9-25-13-25c-3,0-19,30-35,66c-37,81-109,186-114,163
		c-7-36,29-161,72-253l46-98l-19-42c-12-27-20-36-24-26c-42,118-64,168-100,224c-23,36-44,66-47,66s-3-35,1-77c7-73,39-182,89-298
		c16-37,18-51,9-68c-11-20-13-19-26,19c-43,114-57,146-93,205l-40,64v-69c0-72,20-153,70-282c15-40,24-77,20-84c-4-7-16,13-29,51
		c-11,35-40,96-64,137l-42,75l-3-66c-2-54,4-86,38-189c43-133,46-148,30-148c-5,0-10,6-10,14c0,22-80,176-92,176c-15,0-2-108,23-194
		l21-69l-59-53c-59-54-80-66-69-39c15,40-21,5-86-83c-88-117-105-104-25,19c30,46,64,102,75,125c23,46,55,160,49,177
		c-3,11-71-76-125-160c-15-24-30-43-33-43c-13,0,8,66,33,106c74,116,133,283,110,306c-5,5-34-32-67-87c-32-53-62-98-67-101
		c-16-10,4,50,37,111c54,98,83,177,91,244c10,88-6,79-73-44c-64-118-66-89-4,57c43,101,65,218,42,218c-7,0-32-42-57-92
		c-35-73-44-85-40-58c2,19,20,79,40,133c26,72,36,114,36,157c0,33-4,60-9,60c-4,0-26-42-47-92c-50-119-56-89-10,43
		c35,98,49,209,27,209c-5,0-24-36-43-81c-45-110-48-82-4,40c35,98,52,217,31,223c-5,2-23-32-41-75c-56-139-60-99-5,51
		c31,84,42,177,20,170c-6-2-27-40-46-83c-30-71-33-76-30-40c2,22,16,73,31,113c28,76,39,164,21,171c-5,1-23-29-39-68s-32-71-35-71
		s-21,91-39,202c-18,112-35,205-38,207c-15,15-16-29-5-181c6-95,14-194,18-219l5-46l-72,69c-40,38-74,67-77,65
		c-10-11,50-117,107-185c70-86,82-129,18-61c-44,45-108,95-108,84c0-17,56-112,96-162c64-79,61-74,69-112c7-33,6-32-64,38
		c-95,94-114,95-67,3c13-26,51-79,84-118c37-44,61-83,64-102c2-18,4-32,3-32s-35,32-75,71c-127,125-109,37,25-124
		c50-59,65-84,65-109v-31l-63,64c-59,61-127,117-127,104c0-25,73-146,131-214c44-54,69-93,69-108c0-22-10-15-71,51
		c-40,42-80,81-90,87c-18,9-18,7,2-43c24-62,53-109,121-195c42-54,49-68,46-100l-3-38l-38,59c-41,63-134,166-150,166
		c-27,0,31-128,117-259c56-84,66-106,66-143v-43l-44,76c-46,78-129,178-140,168c-14-14,38-142,104-257c63-111,70-128,70-177
		c0-30-4-55-8-55c-4,0-25,35-46,78c-43,87-145,234-157,227c-17-11,35-159,109-305c62-124,77-161,72-185c-5-28-7-26-42,47
		c-32,67-84,150-133,212c-53,68-7-104,70-263c36-73,65-139,65-147c0-27-17-14-36,29c-27,60-114,188-124,182c-17-10,19-131,72-248
		c40-86,27-109-23-40c-27,39-35,44-37,28c-1-11,5-45,13-75c9-30,17-59,18-65c1-5-81-176-183-379c-119-238-186-362-188-348
		c-2,12,21,65,53,123c80,141,120,232,140,317c10,40,16,74,14,77c-10,10-132-156-180-246c-30-53-57-95-61-93c-19,12-5,58,43,141
		c115,199,189,374,189,448c0,17-3,16-25-10c-80-95-121-155-179-259c-61-111-64-115-70-85c-11,57-7,69,73,203c43,73,93,160,110,194
		c32,63,75,204,69,224c-10,30-191-222-254-355c-10-20-21-37-24-37c-4,0-10,36-14,79l-6,79l54,79c30,44,75,113,100,155
		c45,76,101,216,91,226c-12,12-118-107-182-206l-68-104l-3,61l-3,62l78,107c43,59,90,126,105,148c32,50,78,156,78,181
		c0,26-130-106-203-207l-62-85l-3,57l-3,57l87,103c74,89,178,258,158,258c-17,0-144-113-184-164l-45-57l-3,46c-3,45-2,47,88,143
		c78,82,180,227,180,255c0,17-97-60-179-141l-84-84l8,58c6,54,11,62,98,159c82,90,182,241,146,220c-41-25-130-99-173-144
		c-26-29-50-50-52-48c-2,2-1,26,3,53c6,43,15,58,78,124c39,41,82,91,97,110c33,45,80,130,71,130c-15,0-123-87-171-138l-53-57l4,52
		c4,48,9,57,79,133c66,70,152,200,133,200c-11,0-86-59-144-114l-54-51l7,34c4,23,30,60,81,117c68,74,145,184,145,206
		c0,16-93-55-152-116c-48-50-58-56-54-36c27,131,58,585,36,530c-10-27-74-361-86-448c-4-29-10-54-14-57c-3-2-28,43-55,101
		c-26,57-52,104-57,104c-22,0,5-128,49-238c37-93,44-119,38-150l-7-37l-56,115l-56,115l-4-48c-3-53,12-110,65-231
		c27-61,33-86,28-113c-6-34-8-32-60,82c-30,65-57,120-60,123c-3,3-5-24-5-60c0-67,23-147,74-262c14-32,26-68,26-80c0-23-20-61-20-39
		c0,21-92,213-101,213c-24,0,6-155,51-266c31-76,40-110,38-144c-3-36-5-41-12-25c-5,11-34,72-65,135l-56,115l-3-53
		c-4-67,16-145,69-263c40-89,61-179,43-179c-5,0-33,48-63,105c-75,147-80,152-81,89c0-65,21-136,77-254c41-86,69-180,54-180
		c-3,0-19,24-35,53c-24,42-120,199-133,216c-12,16-13-19-3-81c14-85,46-159,125-293c45-77,56-103,53-131c-3-36-3-35-81,77
		c-124,183-124,183-101,69c18-86,48-149,133-278c50-75,61-100,61-133v-41l-71,93C62,1948,8,2012,3,2006c-9-9,39-162,68-216
		c16-30,61-98,99-150c76-104,92-133,88-163c-2-15-32,16-112,116C40,1727,12,1753,25,1708c45-159,69-205,190-364c41-54,75-102,75-106
		c0-5-46,49-102,118c-56,70-104,122-106,115c-7-21,37-145,73-206c20-33,68-101,107-152c38-50,68-99,66-108c-2-10-23,9-61,57
		c-84,107-97,121-102,116c-3-3,4-34,15-70c21-67,65-142,144-242c25-33,46-64,46-70c0-6-14-46-30-89c-17-42-42-125-56-184
		c-29-120-27-198,6-262c16-32,102-136,152-184c22-21,18-31,53,128c31,137,87,328,117,397l20,46l28-31l28-32l-8,45c-11,61-5,62,14,3
		c9-27,30-65,46-84l29-34l-5,40l-6,40l25-50c13-27,31-56,40-64c15-12,17-11,17,6c0,11-7,42-15,68c-8,27-12,51-10,53c3,3,7-1,9-9
		c32-90,50-130,71-159l25-34v35c-1,19-7,52-15,74c-8,22-15,41-15,43c0,1,8-2,18-7s23-31,30-58c7-27,24-67,38-88l25-40l-5,65
		c-7,75,6,69,23-10c6-30,21-66,32-80l21-25l-5,63c-6,71,7,76,18,6c14-95,43-116,46-34c1,19,3,26,5,15c20-102,27-125,35-125
		s13,26,12,72c0,41,16,14,22-37c4-30,13-62,21-72c12-16,13-13,14,30c0,30,4,46,10,42c6-3,10-18,10-33c0-41,20-103,31-97
		c5,4,9,22,9,41c0,21,4,33,10,29c6-3,10-19,10-35s5-41,12-57c11-27,12-27,15-6c6,33,23,28,23-6c0-16,3-36,6-45c11-28,24-17,24,19
		c0,19,5,35,10,35c6,0,10-3,10-8c0-12,121-115,127-108c4,4-9,23-28,44c-19,20-43,48-54,60l-20,24l40-8c36-6,39-6,27,9
		c-8,9-22,19-32,22c-11,3-17,12-14,19c3,7-7,18-20,26c-14,7-23,17-20,22c3,4-8,16-25,26c-17,9-31,22-31,28s-11,17-25,24
		c-15,8-23,20-21,27c4,8-8,20-30,30c-21,11-33,22-29,31c3,8-10,20-38,32c-23,11-34,20-24,20c46,0-7,34-93,60c-35,10-35,10-3,5
		c18-2,35-1,37,4c7,10-34,28-106,46l-53,14l47-6c29-3,48-1,48,5c0,12-71,42-103,43c-21,1-21,1,3,8c24,8,24,8-14,24
		c-21,10-40,17-43,17c-2,0-11,7-19,15c-8,8-31,17-52,21c-20,4-45,13-54,21c-9,8-39,20-67,26l-51,12l86,190c48,105,90,194,95,199
		c4,5,14-7,22-25c9-19,27-47,41-64l25-30l1,28c0,15-7,43-14,62c-9,20-11,35-5,35c5,0,12-8,15-18c17-49,65-141,89-167l26-30l-6,48
		c-4,26-13,64-22,85c-8,20-10,33-5,27c5-5,24-44,41-85c18-41,46-91,63-110l30-35l-6,52c-4,28-13,68-22,88c-8,21-13,39-11,41
		c8,9,26-23,56-101c18-44,45-96,62-115l31-35l-7,55c-4,30-15,74-25,97c-11,24-16,43-12,43c24,0,53-37,67-88c9-31,29-77,43-102l27-45
		l3,44c2,23-2,57-7,74c-12,34-8,45,12,29c7-6,19-40,26-75c7-36,23-82,36-103l23-39l8,29c4,16,2,49-4,75c-11,51-9,59,11,42
		c8-6,17-36,21-67c3-31,14-70,23-87l16-32l9,30c5,17,7,45,4,63c-3,23-1,32,7,29c7-2,15-31,18-64c3-34,12-76,19-94c12-28,15-30,21-13
		c4,10,8,41,8,68c1,40,3,46,15,37c7-6,16-35,20-64c3-29,11-68,18-87c10-30,12-31,19-14c4,10,8,39,8,63c1,65,27,37,34-38
		c2-32,11-69,18-82c12-23,12-23,20-4c4,11,8,37,8,59c1,33,3,37,16,26c9-8,15-29,15-56c0-51,19-101,32-82c4,7,8,28,8,46
		c0,20,4,31,10,27c6-3,10-23,10-44c0-44,18-101,31-101c5,0,9,20,9,45s3,45,6,45c3,0,31-23,62-51c72-66,121-103,128-97
		c3,3-29,42-71,86l-75,80l52-13c101-27,62,13-45,46c-76,24-85,36-13,18c26-6,49-9,52-6c6,6-26,26-71,44c-29,11-29,12-5,12
		c22,1,23,3,9,16c-8,9-37,25-65,36c-27,11-39,18-26,15c12-2,22,0,22,4c0,16-45,41-113,61c-37,12-66,23-64,25s27-3,56-12
		c121-36,68,13-63,59c-45,15-70,25-56,23c67-13,110-18,110-13c0,11-63,40-125,59l-60,18l60-7c54-5,59-4,47,10c-16,19-81,41-172,59
		c-77,14-58,23,23,10c31-5,57-5,57-1c0,17-66,42-159,60l-96,19l83-6c48-3,82-2,82,4c0,13-74,40-140,51c-55,9-55,9-12,10
		c23,0,42,5,42,9c0,5-25,17-55,27c-30,11-55,23-55,27s-33,17-72,29c-40,12-76,26-79,31c-9,13-97,38-138,39c-81,1-81-3,18,194
		c111,221,169,325,181,325c4,0,18-28,29-62c24-70,81-156,81-122c0,11-7,46-15,77c-18,68-18,70-6,62c5-3,21-41,36-84
		c24-73,71-161,92-174c13-8-2,97-22,152c-18,51-18,54-6,47c5-3,21-43,36-88c29-88,51-134,85-183l22-30l-6,66c-3,36-14,89-25,118
		c-10,28-16,51-11,51c15,0,27-26,54-115c26-83,53-141,89-189c13-18,14-14,10,35c-2,30-13,84-24,121c-24,84-24,83,9,58
		c23-17,32-37,47-98c20-89,76-208,83-178c4,19-14,153-25,185c-4,12,0,11,15-4c14-13,27-48,37-100c18-85,52-175,66-175
		c11,0,11,81-1,140c-9,50-7,58,13,41c8-6,17-40,21-75c7-70,33-156,47-156c5,0,9,34,9,76c0,64,2,75,14,65c9-7,15-41,18-94
		c5-90,26-154,39-120c4,10,8,47,8,82c1,63,1,64,21,46c16-14,20-31,20-78c0-61,17-137,31-137c10,0,23,105,15,125c-3,8-2,15,3,15
		c19,0,29-29,34-100c2-41,10-88,17-105l13-30l7,25c5,14,8,47,9,74c2,75,27,43,33-42c3-37,11-79,19-92c13-24,14-23,24,35
		c9,49,12,55,18,35c4-14,7-43,7-66c0-49,18-106,31-98c5,3,9,30,9,60s3,54,8,53c4,0,23-19,42-42c47-56,160-162,160-151
		c0,5-36,54-79,109s-78,101-77,102c1,1,24-4,51-12c63-19,72-19,51,4c-16,17-42,31-130,66c-54,21-40,29,18,9c97-33,56,19-44,56
		c-30,11-61,23-69,26c-8,2-12,7-9,9c3,3,24-2,48-10c66-23,80-19,44,14c-18,16-61,38-98,51c-36,12-68,26-71,30c-3,5,20,0,51-10
		c67-23,64-23,64-10c0,16-84,66-135,80c-24,7-50,19-56,26c-8,10,6,8,46-6c82-28,97-25,55,10c-19,17-69,42-112,58
		c-94,33-103,48-13,22c36-10,67-15,70-10c9,14-91,67-162,86c-81,22-82,36-2,17c34-8,71-13,83-11c37,6-62,56-155,79
		c-46,12-88,26-94,31c-7,7-2,9,15,5c14-4,53-9,85-12l60-7l-25,21c-29,24-88,44-175,61c-130,26-89,35,58,14c48-7,48,10-1,34
		c-45,23-107,38-189,48c-35,3-63,10-63,13c0,4,30,4,68,0c91-11,112-11,112,0c0,10-92,51-115,51c-9,0-13,5-10,10c8,13-87,56-145,66
		c-35,5-41,8-25,14c17,7,15,10-20,25c-22,10-76,23-120,29c-56,8-81,16-82,26c-5,26,95,147,213,257c64,60,121,108,127,108
		c7,0,24-36,39-79c25-71,70-156,83-156c9,0-7,101-21,143c-11,30-11,38-1,35c6-3,26-47,43-99c32-99,60-158,94-199l20-25l-6,55
		c-3,30-14,86-25,124c-11,37-18,70-15,73c7,7,18-22,56-143c26-86,95-223,105-212c8,8-17,161-35,213c-11,32-18,61-15,64
		c14,13,36-33,65-134c31-108,51-155,91-218l21-32l-5,75c-3,41-15,106-27,143c-12,38-19,71-17,74c3,2,19-8,35-24c24-23,34-47,55-136
		c22-94,70-207,83-194c4,4-12,163-22,212l-6,30l22-21c17-16,27-47,41-125c18-103,53-199,72-199c10,0,3,143-9,205l-6,30l21-20
		c17-16,24-40,31-107c6-47,18-106,29-130c18-42,19-42,26-16c4,14,5,58,3,96c-3,67-2,70,15,55c12-12,17-32,17-73c0-65,13-141,31-185
		l12-30l7,30c4,17,8,61,9,99c1,68,1,69,21,51c16-15,20-31,20-83c0-78,29-196,41-166c4,10,8,52,8,93c1,71,2,74,20,57
		c14-13,19-37,24-104c6-92,28-174,41-154c4,7,8,46,9,87c1,41,3,75,5,75c16,0,31-44,32-91c0-30,7-80,17-110c15-48,17-51,24-29
		c4,14,7,49,8,78c1,77,17,55,26-35c7-86,23-153,37-153c8,0,13,57,10,120l-1,35l47-55c75-88,180-195,186-189c3,2-35,60-85,128
		c-49,68-88,125-86,127c2,2,30-5,62-16c32-11,61-18,64-15c10,11-55,55-122,81c-37,15-73,34-80,43c-10,12-9,14,8,7
		c61-24,107-38,112-32c16,15-47,55-161,101c-59,23-37,28,29,5c76-26,83-25,54,6c-26,28-91,64-151,83c-20,7-42,19-48,27
		c-9,9,8,6,53-11c38-14,69-20,72-15c8,14-65,64-132,90c-108,43-111,62-5,26c40-14,72-21,72-16c0,20-77,70-154,100
		c-124,49-133,66-16,30c72-22,80-23,80-12c0,16-99,72-165,93c-107,34-113,50-10,27c47-11,89-17,93-13c18,17-100,76-203,101
		c-38,9-77,23-85,31c-13,13-13,14,5,9c20-5,143-26,158-26c4,0,7,4,7,9c0,18-125,70-205,86c-44,9-87,23-95,31c-13,13-11,14,15,9
		c75-13,176-21,181-13c11,17-122,68-221,84c-55,9-104,21-110,26c-7,7,4,8,30,4c101-14,175-18,175-9c0,12-109,63-133,63
		c-11,0-14,6-11,15c9,23-90,63-198,80c-83,13-86,14-31,11c35-1,63,2,63,6c0,17-86,47-170,59l-84,12l39,35c73,63,328,251,335,247
		c4-3,19-42,34-87c14-46,40-108,58-138c31-51,33-53,36-28c3,24-1,51-24,163c-5,22-3,27,5,20c6-6,25-58,42-115c32-109,63-178,96-219
		l19-24l-7,72c-7,62-23,135-46,198c-5,16-4,16,10,3c8-8,32-71,52-140c34-115,81-220,107-236c17-11-1,128-28,214c-13,42-21,78-18,81
		c14,15,44-47,68-144c28-111,77-235,102-256c29-24,9,149-30,259c-18,50-10,53,31,10c26-28,36-52,56-144c14-61,38-136,54-165l28-54
		l3,61c2,34-4,90-12,125c-8,35-12,66-10,68c3,3,13-4,24-15c14-13,25-53,40-137c20-118,53-217,73-217c10,0,4,182-9,230l-7,25l24-23
		c20-19,26-39,36-125c6-56,20-122,31-147l19-45l8,58c4,33,5,82,2,109c-6,48-6,50,12,34c14-13,19-38,24-114c3-53,14-122,23-152
		c15-49,18-52,25-30c4,14,8,66,8,115c2,88,2,90,20,68c13-16,20-47,25-115c8-107,23-168,43-168c13,0,18,51,14,132c-2,21,1,38,6,38
		c19,0,32-47,36-135c10-177,57-215,57-46c0,53,2,62,14,52c8-7,16-43,20-94c4-45,14-104,24-132c16-49,16-50,23-20c4,17,7,56,8,88
		c1,77,21,65,21-12c0-66,13-142,31-186l12-30l8,45c4,25,8,67,8,94l1,49l37-49c45-60,183-218,195-222c20-8,3,23-82,148
		c-50,73-89,134-87,136c2,2,30-5,62-16c32-11,61-18,63-15c14,14-60,68-130,97c-43,18-78,36-78,40c0,11-2,11,65-12c32-11,61-18,63-15
		c14,14-60,68-130,97c-43,18-78,36-78,40c0,11-2,11,70-17c136-53,76,19-75,91c-97,46-102,57-11,23c120-46,64,22-71,87
		c-51,24-95,49-98,54c-8,13-11,14,78-19c80-30,102-28,64,6c-39,35-80,59-152,88c-65,26-112,55-90,55c6,0,39-9,73-20
		c85-27,101-27,76,1c-26,29-87,62-164,89c-115,41-120,58-10,30c111-29,123-27,76,16c-30,25-66,43-140,65c-126,38-146,46-146,58
		c0,5,15,5,37,0c76-17,153-26,153-18c0,28-140,89-241,104c-25,4-56,16-69,27l-25,19l35-5c85-14,185-24,190-20c3,3-4,13-15,21
		c-44,33-125,62-220,78c-121,20-154,40-50,31c39-4,87-9,108-12c83-13,8,47-97,77c-44,13-53,18-32,18c23,1,26,4,17,15
		c-21,25-110,57-199,71c-73,12-78,14-29,11c38-2,57,1,57,9c0,20-91,55-175,68l-80,13l155,104c85,57,163,104,174,104
		c15,1,25-19,50-100c29-88,97-224,113-224c12,0-7,147-26,203c-20,56-20,57-1,47c12-7,27-37,40-83c41-142,80-240,121-303
		c23-36,43-63,44-62c10,11-20,193-44,267c-25,79-26,89-11,81c11-6,26-39,39-88c58-214,149-417,176-390c3,2,0,42-5,89
		c-8,71-27,147-66,273c-6,18-5,18,23-2c24-17,32-35,47-99c47-197,125-388,165-401c25-8-11,217-53,337c-9,24-15,46-13,48
		c2,1,24-13,49-32c41-32,47-42,57-98c26-134,52-225,83-289c17-38,35-68,40-68c15,0,8,155-11,235c-11,44-17,82-15,84c3,3,17-8,33-25
		c25-25,31-45,50-162c22-137,65-272,90-280c11-4,13,17,8,124c-4,71-9,145-13,164l-6,35l29-28c28-26,30-35,41-147c8-82,21-142,39-192
		l27-73l9,45c4,25,6,89,5,142l-3,97l22-21c19-17,23-32,23-77c0-138,40-335,62-313c7,7,13,67,16,141l5,129l23-27c20-25,25-45,33-152
		c11-136,42-254,55-209c4,14,10,72,13,129l6,104l24-27c20-24,23-37,23-115c0-55,7-117,20-166c32-126,40-119,47,45l6,122l22-28
		c19-23,23-45,28-129c6-112,38-229,51-185c3,14,9,63,13,109c9,117,28,86,36-56c6-119,32-219,49-188c6,9,11,59,12,111c0,52,2,94,3,94
		c2,0,30-35,63-77c74-93,232-271,243-272c19-2-1,31-105,180c-62,87-119,168-127,179c-13,19-6,18,68-10c124-45,139-40,63,23
		c-23,20-79,50-125,67c-77,30-117,54-117,70c0,4,36-6,81-21c106-38,121-38,83,2c-32,34-93,68-181,100c-60,23-83,36-83,49
		c0,5,43-7,95-26c52-18,97-30,100-25c7,12-65,76-112,99c-21,11-70,32-110,47s-74,34-78,42c-4,11-1,13,12,8c93-37,155-56,160-51
		c22,22-126,119-237,155c-19,6-41,21-49,32c-12,20-11,21,6,14c60-24,187-64,192-60c9,10-64,77-111,101c-26,13-82,38-125,55
		c-43,17-84,35-90,41c-31,25-6,23,89-7c57-18,107-30,111-28c5,3-4,19-20,35c-32,34-136,86-238,118c-67,22-100,38-92,47
		c2,2,51-8,108-22c107-26,149-31,149-17c0,4-28,26-63,49c-58,39-150,73-272,102c-47,11-94,36-84,45c2,2,47-4,99-15
		c160-31,185-24,102,30c-61,39-111,56-236,82c-69,14-107,27-121,41l-20,20l35-6c138-24,250-31,250-16c0,5-29,25-64,45
		c-64,35-177,66-301,81c-33,4-69,13-80,21c-18,14-15,15,35,9c30-3,98-9,150-12c85-6,93-5,80,9c-27,27-121,70-194,88
		c-47,13-57,17-28,14c118-14-33,74-170,99c-46,8-109,18-141,22c-31,3-59,9-61,13c-3,4,21,4,52,0c31-4,74-8,95-8c103-2-23,63-169,87
		l-106,18l108,66c60,36,151,89,202,118l92,52l32-19c27-16,36-33,70-136c33-102,112-256,124-244c8,8-17,170-35,228l-19,60l20-13
		c14-9,32-53,58-138c47-154,64-197,115-284c36-62,40-65,43-41c6,49-16,180-47,274c-16,50-26,91-21,91c17,0,38-40,55-105
		c38-146,87-283,127-352c23-40,45-73,50-73c24,0-3,192-46,325c-14,43-24,81-22,83c2,1,16-7,30-20c21-18,33-49,60-153
		c19-71,44-159,56-195c23-71,97-203,108-196c16,10-8,196-41,309c-18,64-32,117-29,117c2,0,26-18,52-40c43-36,49-46,59-102
		c37-189,104-388,132-388c17,0,10,160-12,252c-12,49-19,91-17,94c2,2,18-11,36-29c28-29,33-44,52-162c11-71,25-148,31-170
		c15-55,60-155,70-155c14,0,10,198-5,280c-8,41-13,76-12,77c1,2,16-12,33-30c30-30,32-39,47-168c13-120,43-235,67-263
		c11-13,22,158,15,233l-7,66l24-25c22-23,25-38,35-170c7-102,17-164,33-210l23-65l9,40c5,22,10,93,11,157c1,112,2,116,19,100
		c32-28,36-46,47-178c10-133,28-215,48-222c14-4,13-11,21,141l6,119l24-33c21-29,25-48,32-158c7-127,33-241,49-225
		c15,15,28,133,22,196c-2,32-3,58,0,58c2,0,14-14,27-31c19-25,24-50,31-147c5-64,16-139,26-166c16-47,18-48,26-25c5,13,12,66,15,117
		c5,76,8,89,18,75c7-10,15-69,19-131c7-106,13-137,39-207l12-30l6,30c4,17,7,72,8,123c1,59,5,91,11,87c5-3,36-41,69-83
		c81-108,254-297,259-284c3,11-45,86-185,284c-45,65-80,118-77,118s44-14,91-30c92-33,103-35,103-20c0,21-102,88-184,120
		c-47,19-96,45-108,58c-28,30-25,30,94-14c42-16,80-25,84-21c10,10-34,55-81,82c-22,12-76,37-120,54c-45,18-86,40-92,51
		c-12,18,17,10,169-49c46-17,41,5-12,52c-31,28-81,57-137,81c-114,47-136,58-140,73c-3,8,33-1,91-22c52-19,97-31,100-26
		c16,25-138,125-245,160c-20,6-47,23-60,38c-14,15-18,24-9,21c8-3,59-20,112-39c136-48,140-32,15,61c-21,16-82,46-135,66
		c-82,32-149,70-139,80c1,1,52-12,112-31c61-18,114-30,119-27c14,8-61,70-124,102c-30,15-93,40-140,55c-84,27-110,40-110,55
		c0,4,53-6,117-21c175-43,191-38,96,28c-63,44-155,80-275,109c-54,12-85,25-100,42c-22,23-22,24-3,19c58-18,250-46,258-38
		c9,9-65,60-133,90c-25,11-98,31-163,44c-69,15-126,32-138,43c-10,9-18,19-16,21c2,1,55-4,117-12c147-19,196-20,181-2
		c-6,8-9,16-6,18c17,18-38,303-81,412c-6,17-5,18,15,5c14-8,28-37,42-83c77-268,114-362,176-457c37-55,46-48,38,25
		c-13,125-49,276-91,381c-7,19-7,19,26,0c40-23,41-27,85-189c19-71,46-164,60-205c26-77,102-220,117-220c25,0-2,199-47,351
		c-19,65-35,121-35,125c0,3,26-16,59-43c57-47,59-49,75-128c38-179,68-280,103-351c20-40,40-74,45-74c17,0,7,167-16,275
		c-14,60-23,111-21,113c2,2,20-11,39-30c36-32,37-36,61-183c13-82,32-175,41-205c21-70,61-150,76-150s4,243-15,328c-8,34-11,62-8,62
		c4,0,22-16,41-35c33-34,34-37,47-170c12-125,39-233,71-291c14-25,26,115,20,228l-6,90l27-26c25-25,27-35,37-179
		c8-107,19-175,35-225c13-40,26-72,29-72c14,0,32,200,25,272l-7,73l35-40c34-40,34-40,41-168c7-123,20-198,47-262c12-29,13-28,26,50
		c8,47,12,113,9,160l-5,80l33-39c33-38,33-39,38-166c6-134,41-291,61-271c5,5,12,73,16,152l6,143l26-35c23-30,27-49,37-159
		c9-116,35-230,52-230c10,0,20,90,20,179c0,74,0,74,19,50c14-19,20-50,25-139c8-131,42-274,59-244c6,10,12,71,15,135l5,118l98-122
		c116-145,264-305,273-296c6,6-175,274-271,403c-21,27-32,47-27,45c90-35,215-72,221-66c8,8-29,42-87,81c-19,13-77,40-129,60
		c-79,31-139,71-126,84c2,2,51-13,109-34c59-20,109-34,113-30c22,21-114,108-244,155c-52,19-124,71-98,71c4,0,57-18,117-40
		c61-23,113-38,116-35c3,3-12,24-34,46c-42,44-108,81-230,130c-64,25-111,56-100,66c1,2,46-13,100-32c129-47,140-45,87,9
		c-42,43-135,94-236,131c-48,18-95,50-95,66c0,5,56-12,125-36c68-24,127-40,130-36c3,5-18,30-46,55c-52,47-142,94-259,136
		c-60,21-110,53-110,71c0,3,46-8,103-26c185-59,205-56,115,13c-70,53-103,69-231,113c-60,20-118,45-129,56c-18,18-6,17,124-14
		c195-45,203-44,117,21c-72,53-135,80-279,117c-78,21-136,41-153,56c-36,29-26,29,108,4c156-29,175-31,175-18c0,7-28,30-61,51
		c-65,42-168,76-308,102c-61,11-95,23-116,41l-30,25l60-7c33-3,111-12,173-19c62-7,115-9,118-4c3,4-10,17-29,28c-33,20-33,21-44,122
		c-7,65-24,143-46,211c-33,102-34,108-14,94c25-16,31-31,82-207c20-69,47-151,59-182c31-76,98-188,111-185c22,7-6,192-51,338
		c-19,62-33,114-31,115c2,2,18-9,35-24c29-24,37-43,67-157c51-192,88-297,134-375c38-63,61-86,61-61c0,70-28,237-56,333
		c-19,66-33,122-31,125c2,2,29-16,59-41c52-42,55-47,67-112c25-141,63-271,101-352c25-52,44-81,51-76c15,9,3,162-22,279
		c-10,49-19,93-19,98c0,4,17-6,39-24c36-31,39-37,51-118c22-155,49-270,81-346c17-41,34-75,39-75c25,0,19,190-10,340
		c-4,25-7,46-6,47c1,1,18-11,38-27c34-28,37-36,43-98c15-162,28-238,52-303c38-102,48-80,48,102v150l26-29c24-27,26-37,32-168
		s16-186,50-279l14-40l12,66c6,36,11,115,11,175l1,109l33-38c33-37,33-37,38-166c6-136,41-292,61-272c5,5,12,75,15,154l5,145l28-33
		c27-30,29-39,38-176c7-105,17-163,34-214c22-65,24-68,31-40c3,17,9,87,13,157l6,127l27-34c25-31,27-44,33-147c4-75,13-137,28-183
		c21-68,22-69,31-40c5,17,12,75,15,129c6,95,7,99,23,78c13-16,18-49,23-144c4-90,12-141,28-188c22-64,23-64,32-35c4,17,9,78,10,137
		c1,60,3,108,4,108c1,0,42-51,91-112c111-139,259-302,280-306c14-4-81,141-223,338c-34,47-64,91-69,97c-4,7,43-5,103-27
		c61-21,113-35,116-31c16,27-148,128-263,162c-37,11-90,55-79,65c2,2,51-13,109-34c59-20,109-34,113-30c4,3-11,22-32,42
		c-40,38-143,92-230,120c-44,15-91,52-79,63c1,2,50-15,109-37c58-22,111-40,116-40c20,0,11,18-28,53c-51,46-108,78-211,118
		c-82,31-120,53-120,70c0,4,49-10,110-31c125-45,141-38,63,28c-56,46-82,60-198,107c-48,19-95,45-105,57c-10,13-17,24-16,26
		c2,1,50-15,107-37c146-54,149-55,149-38c0,19-90,92-150,121c-25,13-83,38-130,56s-98,45-114,61l-29,28l104-33c184-59,204-57,127,9
		c-51,43-110,71-247,119c-101,35-131,50-131,66c0,4,64-8,141-27c78-19,149-31,157-28c11,4-3,20-52,55c-69,50-138,77-316,125
		c-54,14-103,33-114,45c-26,25-24,25,140-5c74-14,140-25,145-25c43,0-79,88-159,114c-26,9-105,29-176,45c-90,20-135,35-149,50
		c-26,26-28,26,128,6c66-8,137-17,158-19c65-7,43,20-55,69c-75,37-118,51-223,70c-71,13-144,25-161,25c-18,0-42,9-55,21l-24,20l65-6
		c36-3,112-10,169-16c57-5,106-7,110-4c21,21-149,100-265,124l-99,21l73-6c85-7,92,3,27,42c-78,45-140,63-297,85
		c-84,12-157,26-163,32c-7,6,7,8,40,4c214-25,239-19,137,32c-60,30-159,55-272,67c-73,7-105,19-80,28c36,13,584,146,602,146
		c11,0,46-16,78-35l58-35l32-98c35-105,67-171,106-217l25-30l-7,70c-3,38-15,98-26,133s-18,65-16,67c13,13,40-36,67-125
		c18-58,44-132,57-164c24-60,103-190,111-183c10,11-22,200-47,277c-15,47-26,87-24,89c12,13,35-34,63-129c50-166,80-239,130-320
		c38-62,47-71,49-52c7,44-19,196-49,287c-16,51-29,95-29,99c0,4,13-2,28-13c24-17,34-38,57-123c44-164,81-265,125-339
		c22-37,44-70,49-73c22-14-12,212-49,327c-16,50-28,92-27,93c1,2,25-14,53-36l50-38l22-104c32-148,57-225,97-293l34-60l1,90
		c0,56-8,121-20,174c-11,46-19,85-17,87c2,2,17-9,35-24c29-25,33-36,52-151c24-147,41-208,80-281l29-55l3,55c3,82-2,167-16,243
		l-13,68l37-36c36-36,38-39,44-131c8-100,23-173,52-239l17-40l9,35c5,19,8,83,6,142l-3,107l26-25c25-24,27-32,32-152
		c4-99,10-142,29-196c31-90,39-74,46,97l5,128l27-26c25-24,27-33,34-140c4-76,14-138,29-187l23-73l12,66c7,36,12,98,12,138v73l24-29
		c20-24,25-45,34-153c9-116,35-230,52-230c10,0,20,90,20,180v75l24-25c21-22,25-40,34-140c6-64,18-134,28-159c17-42,18-43,26-20
		c5,13,10,61,11,106c1,46,5,83,9,83c15,0,28-41,28-92c1-109,37-274,57-255c3,4,9,56,12,117l6,110l58-73c93-114,271-301,275-288
		c4,11-117,186-220,319c-26,34-45,62-40,62s48-13,97-30c102-35,95-33,95-20c0,31-97,90-213,131c-40,14-74,33-82,46
		c-14,20-9,20,85-12c55-18,102-30,105-25c11,18-94,86-191,123c-55,21-105,47-111,56c-9,15,8,11,92-18c57-20,107-32,111-28
		c9,8-27,42-86,81c-19,13-78,40-130,60c-52,21-99,42-104,47c-22,21,6,17,83-11c115-42,126-39,65,18c-39,37-75,57-150,86
		c-54,22-110,50-124,64c-21,21-22,24-5,17c107-39,216-72,220-65c7,11-66,75-116,101c-23,11-83,37-133,56c-79,30-132,60-123,69
		c1,1,54-12,117-31c120-35,145-32,94,11c-46,39-121,75-227,109c-55,18-106,41-115,50c-16,16-16,17-1,12c59-20,253-57,261-49
		c12,12-104,87-172,110c-30,10-98,29-150,42c-57,13-103,30-115,42c-20,20-20,20,5,15c77-17,251-40,257-34c22,23-135,94-272,123
		c-118,25-185,49-185,66c0,5,10,6,23,3c52-12,273-32,280-25c10,9-50,47-125,80c-26,11-107,30-180,41c-73,12-146,27-163,35
		c-28,14-26,14,40,9c218-16,245-17,245-8c0,15-151,84-215,98c-54,12-56,13-22,14c20,1,37,5,37,9c0,12-86,57-145,75
		c-52,16-137,31-243,42c-34,4-64,10-66,14c-3,4,25,4,62-1c145-16,177-6,102,32c-51,26-133,47-239,60c-46,5-96,17-110,27
		c-25,16-25,16,89,44c195,48,300,67,426,80c155,15,171,8,204-83c31-85,73-166,109-208l30-35l-6,55c-3,30-15,85-27,123
		c-13,37-20,67-17,67c19-1,40-32,56-80c36-113,79-207,123-269c26-36,48-59,50-52c8,23-19,164-44,230c-13,35-22,66-19,69
		c11,11,32-24,49-78c41-132,90-243,137-307c46-63,49-66,49-38c0,58-21,161-51,245c-16,46-29,86-29,88c0,2,12-4,28-13
		c23-14,34-36,67-142c47-152,71-206,126-281l41-57l-7,85c-4,51-20,125-40,188c-18,56-31,102-28,102c2,0,24-14,48-30
		c35-24,47-40,55-73c38-149,66-230,98-287l37-65l3,77c2,67-11,153-34,213c-9,21,6,18,39-9c24-19,31-38,53-147c25-121,63-227,90-250
		c20-16,19,104-1,207c-8,43-13,79-12,81c2,1,17-10,35-25c29-25,32-34,42-127c11-89,34-175,59-214c17-27,25,13,25,121v107l22-20
		c18-17,22-35,27-122c6-101,42-246,58-230c13,14,27,137,22,191c-6,57,2,64,34,30c17-19,21-41,26-123c4-69,13-119,29-160l23-60l12,55
		c7,30,12,83,11,118c-2,34,0,62,4,62c4,0,15-12,26-27c14-21,21-53,25-124c4-62,14-117,28-155l22-59l10,30c5,17,10,69,10,117l2,87
		l28-26c24-24,27-34,27-94c0-82,36-213,52-186c5,10,12,54,16,99c6,71,8,78,18,57c7-13,16-67,21-119c6-52,18-113,28-135l17-40l10,30
		c5,17,9,62,10,100v70l159-158c235-232,228-197-19,95c-40,49-72,88-70,88s39-11,83-25c113-35,130-33,82,10c-35,30-185,95-221,95
		c-7,0-21,9-31,20c-23,25-17,25,78-5c86-28,97-29,97-16c0,21-90,73-179,102c-53,17-103,38-111,46c-13,14-12,15,10,9
		c14-3,60-17,102-30c43-13,80-21,83-16c15,24-137,106-257,139c-26,8-53,20-59,27c-14,18-18,18,76-11c44-14,89-25,99-25
		c18,0,18,2-5,26c-27,29-136,83-219,109c-50,16-99,45-75,45c6,0,55-14,109-30c55-17,102-27,105-24c10,11-62,65-124,94
		c-33,15-97,40-142,54c-46,15-85,32-88,37c-9,13,4,11,107-16c104-28,121-30,116-14c-9,27-132,88-240,119c-101,29-144,47-135,56
		c1,2,57-8,122-21c147-30,158-31,125-4c-47,39-116,67-245,99c-128,31-172,47-162,57c3,2,53-3,111-11c169-25,185-19,89,32
		c-64,33-132,53-267,76c-77,13-124,31-113,42c2,2,66-3,142-11c80-8,143-11,148-6c12,12-103,66-179,85c-33,9-110,22-173,30
		c-62,8-118,20-125,26c-8,10-2,11,29,6c63-10,265-20,265-13c0,12-121,68-178,81c-31,8-49,15-39,15c51,3-16,47-113,75
		c-30,9-111,22-178,30c-68,8-126,17-130,20c-3,3,14,4,39,1c130-13,159-15,159-5c0,14-55,41-125,61c-33,10-51,18-40,19
		c11,0,110,7,220,15c272,20,304,19,311-2c14-43,76-161,100-188l26-30l-7,58c-4,32-15,84-26,114c-10,31-17,58-15,60
		c13,13,50-46,77-122c35-101,87-205,125-250l26-30l-7,70c-3,39-19,108-35,154c-17,47-29,86-27,87c1,1,12-5,23-14c13-10,34-57,54-117
		c40-123,90-229,131-275l30-35l-6,74c-4,45-20,113-41,170c-18,52-32,96-31,98c2,1,16-6,32-16c26-15,36-37,74-152
		c46-141,84-224,127-274l25-30l-6,78c-5,65-36,182-71,271c-6,15,6,10,49-20c47-32,59-46,67-79c32-129,66-228,96-282
		c19-35,38-63,41-63c11,0-8,169-27,237c-10,37-18,69-17,70c2,1,19-13,39-30c36-30,39-38,62-156c22-112,78-262,93-248
		c10,11,3,185-10,240c-8,31-12,57-8,57c3,0,21-14,38-30c30-27,34-37,43-121c10-86,39-192,59-212c14-14,25,75,18,154c-3,38-2,69,2,69
		s16-9,26-20c15-16,20-45,26-133c9-133,44-251,62-207c5,14,12,71,15,128l5,103l28-27c26-25,29-34,29-95c0-79,12-149,36-204l17-40
		l9,35c5,19,10,72,10,117l2,83l28-27c26-25,28-33,28-103c0-75,19-171,42-213c11-21,12-21,20,13c5,19,9,72,9,118c1,81,2,83,20,66
		c24-22,27-32,38-139c5-49,17-108,27-130c16-40,17-40,26-15c5,14,10,55,11,92s5,68,8,68c18,0,27-33,32-115c6-86,30-185,47-185
		c10,0,20,63,20,133v59l157-156c86-86,160-156,165-156c20,0,2,26-104,155c-62,75-121,147-131,161l-18,23l48-14c26-8,69-21,96-29
		c38-12,47-13,47-2c0,23-74,65-176,102c-94,34-130,52-120,61c2,3,41-7,86-21c44-14,88-26,96-26c53,0-59,72-171,110
		c-49,17-96,38-105,47c-13,14-13,15,1,10c84-29,183-57,187-53c3,3-1,13-9,22c-27,33-103,74-195,104c-51,17-98,37-104,45
		c-11,13,28,3,158-39c16-5,22-3,22,7c0,28-113,90-237,131c-28,9-57,24-65,33c-11,14-11,16,3,11c64-24,200-60,206-54
		c20,20-134,105-262,146c-38,12-79,31-90,43c-18,17-18,19-2,14c52-19,210-57,215-53c8,9-39,44-93,70c-27,13-93,36-145,51
		s-103,35-113,45c-17,15-8,15,95-6c62-13,124-24,138-24c22,0,20,3-20,30c-59,39-132,67-255,94c-147,34-204,73-72,51
		c103-18,197-28,197-21c0,3-31,21-69,40c-69,35-136,54-266,75c-38,7-81,21-95,31c-24,19-25,20-3,20c12,0,55-4,95-9
		c140-18,188-21,188-13c0,5-11,14-24,20c-20,9-25,20-30,74c-4,35-18,95-32,133c-29,84-30,93-5,71c10-10,31-56,46-104
		c35-111,73-196,115-252l33-45l-7,74c-4,41-20,113-36,160c-16,46-28,86-26,88c1,2,14-6,28-17c18-13,33-43,47-92
		c41-137,73-215,112-274c37-56,39-57,39-29c0,53-20,152-45,226c-13,40-23,75-20,77c2,2,21-9,42-24c21-16,39-29,41-30
		c2-1,16-53,33-115c28-108,69-208,93-228c15-12,4,150-13,202c-17,51-11,61,21,34c24-19,31-38,51-142c17-81,34-139,56-180l32-60
		l-5,115c-3,63-8,129-12,145l-6,30l31-30c28-27,32-40,42-120c6-50,20-115,32-145c19-51,21-53,29-30c5,14,8,64,6,112l-3,87l22-21
		c17-16,23-36,27-97c7-88,19-153,37-196l12-30l7,25c5,14,8,65,9,114l1,90l30-29c28-27,30-34,30-99c0-67,18-158,36-188
		c12-19,21,30,23,122l1,75l24-30c20-24,24-44,29-125c6-105,33-194,50-164c5,9,12,55,15,102c5,82,6,85,22,65c11-15,19-49,23-105
		c3-47,14-104,23-128c17-41,18-42,27-19c5,13,9,52,10,86c3,92,21,72,30-33c9-108,35-196,49-170c5,9,12,50,15,90l6,74l72-82
		c81-90,203-201,212-193c5,6-88,128-185,245c-25,28-40,52-35,52c6,0,36-9,68-20s68-20,79-20c43,1-48,65-136,95c-46,15-89,32-95,38
		c-30,23-8,22,62-1c42-14,79-22,83-17c15,15-65,66-150,96c-49,18-91,36-94,40c-8,14,7,11,86-16c85-29,80-28,80-14
		c0,28-72,71-189,113c-104,38-122,65-21,30c94-32,114-31,75,1c-40,34-86,57-168,86c-38,13-73,32-78,41c-10,18-18,20,134-26
		c26-8,47-11,47-7c0,26-116,89-230,126c-49,16-95,43-87,51c2,2,43-8,92-21c110-31,129-31,95-4c-43,34-113,67-196,90
		c-43,12-87,30-97,39c-16,15-4,14,94-7c61-13,114-21,117-18c19,18-114,80-237,111c-97,24-141,41-141,55c0,3,30,0,68-6
		c107-20,162-25,162-16c0,20-131,72-235,93c-98,19-163,43-151,55c2,2,44-1,92-7c147-17,164-18,164-10c0,4-28,21-62,38
		c-57,28-146,49-283,67c-27,4-58,14-70,22c-19,15-19,15,6,9c14-3,77-8,140-11l114-5l-70,35c-44,22-102,40-155,50l-85,14l68-5
		c37-3,67-3,67,0s-26,19-57,35c-55,29-57,30-26,31c35,0,255,27,289,35c18,4,25-3,39-37c9-24,30-61,46-82l29-40v30c0,29-10,78-24,122
		c-5,16-3,22,8,22c9,0,24-28,41-82c31-95,78-189,107-215c20-18,20-18,13,37c-4,30-17,87-30,125c-13,39-21,72-19,74
		c11,12,34-32,64-124c18-55,39-113,48-130c19-38,73-117,77-113c1,2-1,35-6,74c-8,61-26,127-54,197c-4,9-3,17,1,17c26-1,47-38,75-131
		c33-108,72-196,108-239c19-23,20-23,21-5c0,40-21,150-41,208c-11,33-18,62-15,64c3,3,20-7,39-21c31-24,38-38,57-117
		c12-49,39-122,59-162l36-72l3,47c2,26-6,83-16,127c-11,45-16,81-12,81c3,0,17-11,29-24c17-18,29-53,43-123c10-54,32-125,48-158
		l30-60l-4,110c-2,61-7,119-11,130c-6,16-2,14,23-9c25-23,31-38,37-90c8-81,45-202,56-184c5,7,9,51,9,97c0,81,1,84,19,67
		c14-12,19-37,24-104c4-48,14-109,23-136c16-47,18-48,27-25c5,13,10,59,10,102l1,78l20-21c16-16,24-43,32-118c6-53,17-110,24-127
		l13-30l7,25c5,14,9,57,9,95l2,70l24-28c21-24,25-38,25-96c0-78,27-183,41-160c5,8,9,50,9,93v79l25-23c21-20,25-33,25-80
		c0-72,29-175,41-145c4,11,8,46,8,79c1,51,3,57,16,46c10-9,15-31,15-73c0-61,26-177,40-177c9,0,20,62,20,118v44l123-128
		c67-70,128-125,135-123c7,2-32,60-94,138c-81,103-100,132-82,127c12-3,44-12,70-20c110-34,37,38-83,81c-119,43-137,67-25,32
		c38-11,70-18,72-16c12,11-62,57-133,82c-43,16-82,32-87,36c-21,19,4,17,69-5c39-13,72-22,75-19c12,12-72,66-147,94
		c-106,40-133,68-32,34c84-29,79-28,79-15c0,16-83,65-153,90c-57,21-102,48-94,57c2,1,37-8,78-22s81-24,89-23c25,5-69,66-144,93
		c-101,37-139,55-133,62c3,3,43-4,87-17c45-12,84-19,87-16c13,13-91,69-178,96c-54,17-101,35-104,40c-8,13-13,13,100-10
		c54-11,100-18,103-16c8,8-89,65-137,80c-25,9-78,22-118,31c-39,9-77,23-84,31c-6,8-10,14-8,14s42-7,89-15c47-8,94-15,105-15
		c18,0,18,2-5,20c-37,29-117,57-217,75c-48,9-95,23-103,31c-18,18-8,18,113,3c48-6,93-9,100-6c6,2-16,18-50,36c-46,23-92,35-170,47
		c-180,27-211,49-45,33c56-6,108-9,115-6c20,7-89,57-156,71c-59,13-60,14-22,15l40,2l-48,25c-26,13-73,30-105,38c-63,14-63,15,63,41
		c77,16,251,60,277,70c8,3,20-11,31-38c9-24,31-59,48-78l30-34l-6,50c-4,28-13,65-21,84s-12,36-9,39c11,12,34-26,64-108
		c29-78,93-190,107-190c12,0-6,109-27,165c-12,31-19,58-17,60c10,11,27-18,52-90c37-106,70-173,106-215l29-35l-5,40
		c-9,69-26,138-46,184c-21,49-19,58,10,40c13-8,33-52,56-124c32-96,98-225,116-225c13,0-10,139-33,203c-13,37-21,67-18,67
		c4,0,22-11,41-25c30-22,38-37,57-113c22-82,67-187,85-198c14-9,9,95-8,158c-8,33-14,62-12,63c2,2,13-5,26-16c18-14,29-43,47-123
		c21-95,56-186,72-186c8,0-3,190-12,214c-7,17-5,16,23-4c24-18,32-32,32-55c0-52,21-147,40-185l18-35l7,48c4,27,5,68,1,93
		c-6,48,4,56,28,22c10-14,16-44,16-82c0-60,26-176,40-176c9,0,20,76,20,138v45l24-22c20-19,24-34,28-104c5-90,26-154,39-120
		c4,10,8,50,9,88l1,70l24-28c21-24,25-38,25-91c0-71,27-166,41-145c5,8,9,44,9,82c0,37,4,67,9,67c23,0,41-47,41-103c0-31,7-74,16-95
		c16-36,17-37,24-12c5,14,8,45,9,69c1,37,3,42,16,31c10-8,15-30,15-64c0-29,7-77,17-107c15-48,17-51,24-29c4,14,7,49,8,79l1,53
		l126-121c69-67,128-120,131-117c3,3-43,62-102,132c-60,70-101,125-93,122c41-16,139-40,144-35c9,9-79,56-147,79c-35,11-71,27-79,34
		c-19,19-7,18,69-6c72-22,88-18,51,10c-26,20-151,70-174,70c-8,0-19,7-26,15c-16,19-8,19,68-5c77-24,88-25,71-4c-17,20-90,57-159,79
		c-30,9-62,24-70,31c-12,12-6,12,35-1c69-21,105-29,105-21c0,14-96,66-159,87s-96,38-88,46c3,3,91-21,155-42c6-3,12,0,12,6
		c0,18-90,67-175,94c-113,37-133,60-29,34c42-11,84-18,93-17c29,7-89,66-176,89c-116,31-126,50-15,27c122-25,140-20,73,19
		c-32,19-91,39-150,53c-101,22-147,37-138,46c4,4,31,1,170-21c15-3,27,0,27,5c0,18-108,60-195,75c-49,9-103,23-120,30l-30,14h30
		c17,1,68-4,114-9c119-13,122-1,12,40c-30,12-108,29-173,39s-122,22-126,26c-7,7,148-2,201-11c76-15-24,46-108,65c-22,5-34,9-27,10
		c26,2,10,19-39,40c-28,12-100,29-162,37c-61,8-113,17-116,19c-2,3,31,3,75,0l79-6l-32,18c-18,9-33,19-33,23c0,3,39,25,86,48l87,43
		l38-40c36-37,79-68,79-57s-25,62-43,88c-10,16-15,32-12,38s32-25,64-68c52-70,136-151,146-140c7,7-44,109-75,148
		c-17,21-30,41-30,44c0,18,34-16,75-74c25-36,62-82,81-102c35-37,94-84,94-75c0,17-46,108-74,147c-49,68-49,70-28,70
		c12,0,40-32,84-97c63-92,158-190,158-161c0,23-49,119-85,168c-19,26-35,50-35,53s17,0,38-7c31-11,46-27,87-94
		c48-78,110-152,126-152c12,0-26,103-55,148c-33,53-33,56,3,37c21-10,43-40,71-92c36-69,98-153,113-153c10,0-24,102-49,153
		c-27,51-26,52,9,36c17-8,33-32,51-78c15-36,40-82,57-101l31-35l-6,48c-3,26-13,61-22,78c-17,34-15,43,9,33c9-3,24-27,33-52
		c25-70,52-124,75-152l21-25l-7,54c-3,30-12,69-20,88c-11,26-11,33-1,33c20,0,41-30,65-95c12-34,33-74,46-90l24-30l1,26
		c0,14-7,48-15,74c-8,27-13,51-11,53c12,12,46-29,59-72c16-50,74-152,82-144c5,5-19,115-31,143c-8,19-7,19,16,4c14-9,34-41,46-72
		c21-54,53-106,65-107c6,0-6,77-18,115c-5,17-4,18,9,7c9-7,25-39,37-72c12-33,33-73,46-88c29-32,31-20,11,56c-7,29-11,52-8,52
		c2,0,30-15,61-34c76-46,202-108,208-103c4,5-119,93-192,138c-38,23-39,24-15,27c14,1,45,5,70,8l45,7l-30,13c-16,7-59,13-95,14
		c-121,1-155,27-42,32c62,3,65,4,40,15c-15,7-67,16-115,21l-88,9l67,2c127,2,76,39-67,48c-108,6-125,16-40,23c68,5,69,6,40,19
		c-16,7-61,15-100,18c-115,7-130,17-35,23l85,5l-40,19c-27,13-72,20-138,24c-119,6-139,22-28,22c45,0,81,4,81,8c0,17-80,32-174,32
		c-57,0-96,4-96,10s15,10,33,10c54,0,137,12,137,20c0,20-100,31-209,25c-83-6-112-5-107,4c4,6,17,11,28,11c46,0,149,23,141,31
		c-16,16-130,22-212,10c-122-18-137,1-19,24c106,20,120,25,92,36c-32,13-158,10-240-6c-43-8-82-11-86-7c-5,5,20,14,54,20
		c159,30,175,51,38,52c-49,0-70,3-61,9c24,15-31,24-110,19c-38-3-68-3-65-1c3,3,48,29,102,59l97,53l38-33c42-39,78-60,86-52
		c7,7-21,52-55,89c-16,17-21,27-12,27c7,0,45-31,84-69c39-37,91-78,114-90l44-22l-19,32c-10,18-42,58-72,91c-78,85-38,71,49-18
		c69-69,170-144,170-126c0,16-60,101-102,146c-38,39-42,46-24,46c14,0,46-27,90-75c59-66,156-145,178-145c15,0-48,95-101,153l-56,60
		l34-6c18-4,37-7,41-7s33-32,65-71c52-64,132-135,142-125c7,7-27,67-68,124c-32,42-36,52-22,52c26,0,33-7,92-87c29-40,71-87,93-105
		c39-31,40-31,33-7c-11,36-40,89-69,128c-14,19-24,36-22,39c14,13,51-17,82-66c37-58,92-122,106-122c9,0-17,75-42,117
		c-14,24-16,33-6,33c18,0,39-26,69-85c14-27,42-66,62-85c35-33,37-34,30-10c-4,14-20,53-35,88c-16,34-27,62-25,62c24,0,56-32,83-84
		c18-34,46-76,63-92l31-29l-7,30c-6,24-30,83-53,128c-2,4,7,3,20-3c12-6,37-37,55-68c17-31,46-73,63-92l31-35l-7,35
		c-3,19-15,52-26,73c-11,22-17,41-15,43c12,12,39-13,65-59c17-29,42-63,57-77l27-25l-8,30c-4,17-13,43-21,58c-8,16-13,30-11,32
		c8,8,26-13,52-62c16-28,42-64,58-80l30-28l-7,25c-4,14-15,44-26,68c-10,23-16,42-13,42c2,0,30-10,62-23c76-31,203-69,209-63
		c3,2-50,30-117,62c-126,60-130,66-53,79c24,4,45,10,48,15c9,15-68,21-124,10c-66-12-91-13-91-1c0,5,21,12,46,16c65,9,79,15,62,26
		c-18,12-93,11-147-2c-30-7-47-7-55,1c-7,7-5,10,7,10c38,0,118,23,110,31c-11,11-68,13-163,6l-75-6l70,18c39,10,63,21,55,24
		c-40,15-75,16-141,6c-51-8-74-8-82,0c-8,8-5,11,11,11c35,0,122,21,122,30c0,15-81,20-150,9c-103-16-129-7-42,15c39,10,72,23,72,28
		c0,10-93,7-220-7c-38-4-31,0,38,22c45,14,82,30,82,34c0,16-116,9-194-11c-108-29-127-20-33,14c43,16,80,33,83,37
		c11,19-108,8-183-16c-90-29-155-34-89-7c21,9,64,28,95,44l56,28l-75-4c-55-2-96-12-154-35c-113-46-129-34-18,14c51,21,92,43,92,48
		c0,10-103,3-135-9c-12-5-16-4-11,4c4,6-4,12-21,14c-24,2-3,17,127,92c85,49,162,94,172,100c12,7,24,3,52-22c20-17,50-39,67-47
		c30-16,30-16,19,5c-6,12-28,39-47,61c-30,33-33,39-16,39c11,0,38-21,61-49c38-45,124-111,144-111c14,0-21,54-70,110
		c-67,77-28,59,47-21c56-60,132-119,154-119c12,0-37,73-85,126c-41,44-46,54-30,54c12,0,46-28,86-72c61-66,137-128,158-128
		c14,0-42,82-90,133l-46,47h36c34,0,42-6,92-67c53-67,113-120,123-110c7,7-14,44-59,105l-39,53l28-7c15-4,28-7,29-8
		c25-45,104-142,134-166c22-17,40-30,40-27c0,14-43,99-70,135c-16,23-25,42-19,42c24,0,48-22,74-67c28-49,83-113,97-113
		c9,0-25,90-48,125c-14,22-14,23,3,19c10-3,36-36,57-74c22-38,50-79,63-92c22-20,23-20,23-2c0,10-11,43-25,73s-24,56-22,58
		c12,12,41-16,68-67c17-32,44-71,61-86l30-29l-7,25c-4,14-16,45-26,69c-11,24-18,46-16,48c12,11,37-14,56-55c23-49,79-118,87-109
		c3,3-6,33-19,66c-14,34-22,61-18,61c15,0,39-27,63-70c30-52,68-91,68-69c0,8-9,33-20,57c-27,59-7,52,29-11c16-29,42-64,57-77l26-25
		l-7,25c-4,14-14,40-21,59c-8,18-14,35-14,37c0,3,17-3,38-12c34-15,201-74,209-74c2,0,3,4,3,9c0,4-51,32-112,61l-113,53l52,11
		c28,6,55,14,58,18c14,14-63,19-120,9c-35-7-63-7-68-2s12,12,42,16c28,4,53,11,56,16c11,16-47,22-113,11c-37-6-70-8-75-3
		s17,12,47,15c31,4,58,11,61,16c13,21-138,23-192,3c-7-3-13-1-13,5s23,13,50,17c28,4,50,11,50,15c0,17-70,22-132,11c-41-7-66-7-72-1
		c-7,7-4,10,7,10c40,0,117,22,111,32c-5,7-45,9-120,4c-63-3-114-4-114-2c0,3,27,10,60,17c72,14,84,26,35,35c-31,6-89-2-185-23
		c-50-11-5,14,58,32c35,10,65,22,68,27c10,16-122,8-186-12c-71-22-90-24-90-12c0,4,32,18,70,31c131,45,60,58-86,16
		c-123-36-149-28-46,14c45,19,82,38,82,43c0,20-100,1-201-39c-37-14-73-23-80-20c-9,3-5,8,11,15c14,6,52,23,85,38c56,26,58,28,31,32
		c-26,3-74-5-132-24c-12-3-10,1,6,11c24,16,24,16-32,12c-32-2-57-3-55-1c1,1,43,29,92,61l90,59l43-12c48-14,51-10,20,23
		c-33,36-16,37,49,4c33-16,77-33,98-37l39-7l-39,34c-21,19-54,43-73,55c-19,12-31,24-25,27c5,3,40-13,78-35c72-41,135-68,163-68
		c26,0-45,66-105,97c-29,15-53,31-53,36c0,19,50,2,124-43c84-50,109-62,161-74l30-8l-25,28c-14,15-58,48-98,74l-73,47l38,6
		c33,6,45,1,95-33c60-43,159-92,167-84c8,7-56,68-99,95c-46,28-50,39-15,39c15,0,51-20,88-49c63-49,117-81,137-81c18,0-44,74-85,101
		c-41,29-44,39-9,39c16,0,43-17,77-49c52-48,117-89,117-73c0,4-23,34-51,65c-39,44-46,57-32,57c10,0,37-18,58-41
		c38-39,117-99,130-99c11,0-17,43-57,86l-41,44h28c21,0,45-16,91-60c67-64,99-79,69-32c-10,15-28,38-41,53c-56,60,5,42,71-21
		c52-49,95-77,95-62c0,5-18,30-40,55c-22,25-40,48-40,52c0,16,50-12,98-56c75-69,99-66,41,4c-47,57-26,57,34,0c90-85,129-94,61-14
		c-20,23-35,43-33,45c2,2,45-1,94-6c50-5,110-8,135-6c39,3,32,5-55,21c-55,10-113,21-130,26l-30,7l53,27c28,15,52,30,52,33
		c0,11-77-10-123-33c-71-35-95-24-27,12c50,27,53,30,29,33c-15,2-57-11-94-27c-75-34-75-34-75-23c0,5,23,19,50,32c28,13,50,27,50,31
		c0,13-71-3-128-28c-74-33-98-28-32,7l55,29h-35c-19,1-59-10-88-24c-81-37-110-31-37,8c60,32,60,32,27,35c-20,2-54-7-90-23
		c-117-55-153-53-52,3c33,18,60,35,60,39c0,12-78-11-142-43c-93-47-115-43-37,7c87,56,92,62,44,53c-45-8-75-21-157-71s-91-36-13,21
		c36,27,64,50,62,52c-10,11-92-24-159-68c-42-27-82-48-89-46c-6,2,18,28,55,58c36,29,66,57,66,62c0,18-106-34-176-87
		c-81-60-113-72-41-14c23,18,79,67,124,107c50,44,87,70,95,66c7-5,9-2,5,8c-9,26,2,27,46,7c64-29,77-23,35,16c-21,20-38,37-38,40
		s28-11,63-30c35-19,72-35,82-35c16,0,16,3-6,26c-13,14-38,34-56,45c-32,20-43,39-23,39c5,0,32-16,59-35c42-30,109-65,126-65
		c17,0-23,44-72,80c-56,40-56,40-24,40c22,0,47-12,81-39c90-71,129-68,54,3c-60,58-34,64,34,7c95-79,130-80,57-2c-65,70-31,69,42,0
		c30-28,57-48,60-45c4,3-8,26-26,51c-42,58-20,58,31,0c72-82,106-83,43-1c-48,64-20,59,43-6c57-58,80-59,39-1c-41,57-13,52,44-7
		c57-60,75-60,35,0c-35,53-14,52,41-2c50-49,63-47,27,5c-13,20-22,37-19,37c2,0,28-23,56-51c56-56,77-59,35-5c-14,19-26,37-26,40
		c0,4,55,1,153-8c68-7,29,11-53,24c-44,7-80,16-80,19c0,4,17,17,38,29c31,18,34,22,14,22c-12,0-45-11-72-25c-27-14-51-21-54-17
		c-3,5,12,17,32,27c27,14,32,20,20,22c-10,3-38-6-63-18c-53-27-71-21-20,7c19,10,35,22,35,25c0,11-61-6-107-30c-24-12-43-18-43-13
		s17,17,38,27c32,16,34,19,15,23c-12,2-45-9-73-23c-67-34-76-25-13,11c69,41,30,44-54,5c-36-17-68-29-70-27c-3,3,14,17,37,32
		c62,41,28,42-51,1c-38-19-69-31-69-26s3,9,8,9c4,0,25,16,47,35l40,35l-30-6c-16-3-56-23-88-45c-76-51-94-50-37,2c44,39,44,40,15,34
		c-16-4-53-24-82-46c-71-53-83-49-22,8c27,25,47,48,45,50s-20-3-40-11c-41-17-40-15,8,49c17,22,32,42,33,44c1,2,17-3,35-12
		c41-20,45-15,19,21c-29,42-26,51,7,20c25-24,64-48,76-48c14,0,3,21-35,64c-55,62-41,72,19,14c42-41,81-68,96-68c12,0-47,80-70,95
		c-13,8-24,20-24,25c0,24,37,6,86-40c59-56,87-66,59-22c-10,15-29,39-43,55c-20,21-22,27-9,27c9,0,30-18,48-40c32-40,77-75,85-67
		c2,2-14,29-36,60c-25,37-34,57-25,57c7,0,28-20,46-44c28-40,59-66,59-49c0,3-11,26-25,50c-30,50-17,59,14,10c22-36,71-85,71-71
		c0,5-11,28-25,52c-29,52-8,60,24,9c21-34,61-76,61-63c0,4-9,25-21,47c-11,23-17,44-14,47c4,4,10,0,15-8c20-36,72-101,76-97
		c4,4-13,49-34,90c-2,4,0,7,5,7s24-21,42-46c36-51,52-54,26-4c-25,49-12,45,25-8c35-50,52-45,25,8l-16,31l73-6c81-7,77,5-9,25
		c-29,6-53,14-53,16c0,3,12,16,28,29c37,33,8,33-41-1c-48-32-59-26-17,10c26,21,28,26,13,26c-11,0-34-11-53-25c-18-14-36-23-38-20
		c-5,5,39,44,51,45c4,0,7,4,7,9c0,12-39,2-70-19c-46-31-55-32-20-1c28,26,31,31,14,31c-10,0-36-11-56-25c-53-36-60-30-13,10
		c32,28,36,35,20,35c-11,0-40-13-65-30c-54-36-63-32-18,9c21,19,27,31,18,31c-14,0-34-11-100-57c-14-9-5,5,20,31c39,42,42,47,20,41
		c-30-9-68-35-94-64c-11-12-24-21-29-21c-6,0,0,12,14,28c14,15,31,35,38,44c26,35-32,5-77-39c-54-55-67-49-18,8c39,46,41,57,6,39
		c-30-16-32-10-9,27c20,31,21,32,45,16c33-21,39-12,14,20c-33,42-23,44,19,3c51-49,76-44,31,7c-17,20-28,37-22,37c5,0,17-11,26-25
		c18-27,76-62,76-45c0,5-16,28-36,50c-49,54-33,51,27-5c26-25,53-45,59-45c12,0-13,43-49,83c-20,21-21,27-8,27c9,0,36-21,61-47
		c50-53,60-47,21,12c-15,20-23,40-20,44c4,3,11-2,16-11c17-30,60-78,71-78c5,0-2,21-16,47c-35,61-26,66,14,9c39-57,58-60,30-5
		c-12,23-19,43-16,46c2,3,14-13,25-34c18-36,51-74,51-59c0,4-9,25-20,46c-27,52-8,52,21,0c13-22,26-40,31-40c11,0,10,7-8,41
		c-25,49-8,45,21-5c33-57,53-61,25-6c-11,22-16,40-10,40c5,0,16-13,25-29c16-31,43-56,33-30c-19,46-17,50,7,16c27-39,45-45,26-9
		c-18,34-13,37,41,35l53-3l-53,17l-53,16l22,23c27,29,11,32-24,4s-45-25-17,5c28,30,13,33-23,5c-36-29-48-24-12,5c37,31,11,35-28,5
		c-33-26-49-25-18,1c33,28,17,37-19,11c-39-29-49-28-20,3c32,34,7,33-39-2l-36-26l29,31c38,41,12,44-35,5c-32-27-32-17-1,20
		c30,34-11,18-52-20c-39-38-41-28-3,14c39,44,7,36-38-9c-50-50-58-50-20,2c26,35,26,52,1,31c-8-7-19-10-24-7c-5,3-24-1-41-10
		c-18-9-34-14-36-13c-2,2,15,36,37,76l39,72l37-19c45-24,56-16,20,15c-39,33-35,43,5,13c17-14,43-29,57-33c23-7,24-7,10,11
		c-8,10-26,29-40,42c-28,26-11,20,35-13c70-51,88-36,23,19c-54,47-44,56,13,12c80-61,109-55,39,8c-22,20-40,38-40,41
		c0,11,25,4,44-14c35-31,76-54,76-42c0,5-16,26-35,46c-49,49-22,44,32-6c54-50,68-44,25,10c-46,57-39,62,13,11c47-46,61-43,24,4
		c-12,15-19,29-16,32c3,3,17-10,32-29c14-20,33-38,41-41c12-5,12-2-1,24c-8,16-19,32-25,35c-5,3-10,11-10,18c0,6,20-9,45-33
		c48-47,58-47,24,2c-32,45-17,43,20-3c39-48,52-45,23,6c-27,45-20,45,20,0c37-43,49-39,18,7c-22,33-22,33,15-5c43-44,57-42,25,2
		l-21,31l58,1c42,0,52,3,38,9c-11,5-35,9-52,9c-37,1-40,7-17,39c21,30,3,28-26-3c-13-14-28-25-33-25c-6,0,0,11,13,25
		c13,14,18,25,11,25c-6,0-23-11-37-25c-32-33-45-33-14,0c36,38,17,40-26,3c-36-31-37-32-20-5c24,35,4,35-29,0c-14-15-25-24-25-19
		c0,6,10,20,22,33c34,36,0,28-39-9c-18-18-33-27-33-21c0,7,4,15,10,18c5,3,15,15,21,26c9,19,9,19-9,10c-11-6-29-22-40-36
		c-28-35-38-31-13,4c24,33,26,41,11,41c-6,0-25-20-42-45c-37-53-48-53-17-1c30,52,5,45-33-9c-38-53-45-53-19,1c35,72,4,57-39-19
		c-34-59-40-57-10,3c22,43,18,50-12,23c-20-18-31-14-22,10c3,9,20,19,37,23c52,11,55,19,7,25l-45,5l40,8c79,14,87,17,81,24
		c-4,4-31,9-59,13l-52,6l56,2c31,0,64,7,75,16c18,14,18,14-11,16c-16,1-45,1-62,0c-18-2-33,2-33,7s29,12,65,14c94,6,110,28,21,28
		c-50,0-67,3-64,13c3,7,26,13,59,15c70,3,93,12,59,22c-14,5-40,8-58,9c-18,1-31,5-27,10c3,6,28,7,55,4c27-3,57-2,67,2
		c17,7,17,8-2,15c-11,5-37,9-58,9c-24,1-36,5-32,12c5,6,27,8,61,3c64-8,77,12,14,22c-22,4-40,11-40,16c0,6,8,7,17,4c9-4,37-10,62-13
		c53-7,50,13-4,23c-61,11-49,24,17,19c60-4,61-4,26,8c-59,20-56,28,8,21c65-7,68-2,8,21l-39,15l54-6c38-4,52-3,47,5
		c-4,6-16,11-26,11s-22,5-25,10c-6,10,13,8,68-7c9-2,17,0,17,6c0,5-13,12-30,16c-16,4-30,9-30,12s17,21,38,38c48,43,39,52-16,14
		c-23-16-45-29-47-29c-2,0-5,15-7,33C12554,7453,12554,7454,12547,7430z M12135,6496c-37-48-42-46-9,4c15,22,29,38,31,36
		C12160,6533,12150,6515,12135,6496z M7494,3916c9-24,32-65,51-92c31-43,35-46,35-24c-1,26-11,83-25,133c-6,24-5,28,9,25
		c11-2,28-36,51-101c32-92,48-126,90-190l17-27l-35,15c-48,20-113,34-240,50c-64,9-117,21-130,31c-21,15-20,16,28,10
		c101-11,255-19,255-12c0,4-29,20-64,35c-62,28-113,42-226,61c-51,9-49,9,23,4c42-3,77-1,77,3c0,23-166,73-314,95
		c-11,1,276,24,345,26C7475,3960,7478,3957,7494,3916z M7198,3843c-10-2-26-2-35,0c-10,3-2,5,17,5S7207,3846,7198,3843z M4346,3469
		c51-31,52-33,79-123c30-104,92-237,130-281c25-30,25-30,21-5c-3,14-8,54-11,89c-4,36-17,97-30,138c-20,64-21,71-6,63
		c29-15,38-32,65-128c40-140,82-249,121-315c19-32,35-60,35-62s-19,5-42,15c-47,20-207,55-303,66c-62,7-115,27-115,44c0,5,6,7,13,5
		c30-11,322-34,330-26c9,9-115,81-173,100c-19,6-71,17-115,26l-80,15l78-6c52-4,77-2,77,5c0,19-154,89-231,105c-41,8-117,20-169,27
		c-115,13-158,33-55,24c39-3,94-8,123-11c65-8,68,6,10,40c-56,32-131,53-248,69l-95,12l240,63c132,35,251,67,265,72s27,9,30,9
		C4292,3500,4317,3486,4346,3469z M3620,3286c30-20,39-36,57-99c37-125,61-181,109-253l45-69l-7,75c-5,63-24,149-51,234
		c-6,17-5,18,19,2c19-13,32-40,58-129c47-163,85-255,135-333c24-38,42-70,41-72c-2-2-32,13-67,32c-62,33-180,64-314,81
		c-50,6-95,23-95,35c0,3,48,0,108-6c125-15,202-17,202-6c0,17-144,84-222,102c-73,18-77,19-30,15c69-6,65,9-14,52
		c-66,36-145,57-279,73c-49,6-94,16-100,22c-7,8-5,9,6,5c32-11,199-20,199-10c0,5-29,24-65,42c-50,24-94,36-180,49
		c-63,9-115,19-115,23c0,6,107,39,415,128c55,16,102,30,105,30C3583,3310,3601,3299,3620,3286z M1263,1063c-7-2-21-2-30,0
		c-10,3-4,5,12,5C1262,1068,1269,1066,1263,1063z"/>
</g>
</svg>
