<?xml version="1.0" encoding="utf-8"?>
<!-- Generator: Adobe Illustrator 24.0.0, SVG Export Plug-In . SVG Version: 6.00 Build 0)  -->
<svg version="1.1" xmlns="http://www.w3.org/2000/svg" xmlns:xlink="http://www.w3.org/1999/xlink" x="0px" y="0px"
	 viewBox="0 0 404 305" style="enable-background:new 0 0 404 305;" xml:space="preserve">
<style type="text/css">
	.st0{display:none;}
	.st1{display:inline;}
	.st2{fill:#919191;}
	.st3{fill:#FCFCFC;}
	.st4{opacity:0.52;}
</style>
<g id="Calque_1" class="st0">
	<g class="st1">
		<g>
			<path class="st2" d="M255,213 M363.4,200.2c10.4-1.8,20.9-3.2,31.5-3.9c-10,2.9-10.1,2.9-20.7,6c1.2,1.5,1.8,2.3,2.4,3.1
				c-0.2,0.1-0.4,0.4-0.6,0.3c-8.1-3.2-25.5,3.9-33,5.5c-33.2,7.2-66.8,11.3-100.6,14.2c-20.1,1.7-40.3,2.8-60.4,4.2
				c-0.2,0-0.5,0.1-0.7,0.1c-12.6-2.6-20.7,6.4-30.3,11.7c-0.3,0.2-0.5,0.8-1.1,1.9c3.6-0.6,6.6-1,9.5-1.5c28.9-5,58.1-5.6,87.3-5.2
				c23.1,0.3,46.1,1.6,68.9,5.1c17.4,2.7,34.2,7.6,50,15.2c3.9,1.9,7.4,4.5,11.8,7.1c-11.9-3.3-22.8-6.6-33.9-9.3
				c-16.8-4.2-34.1-5.4-51.3-5.7c-41.4-0.7-82.8-1-124.2-1.5c-5.4-0.1-10.9,0.2-16.2-0.6c-6.3-1-11.3,1.3-16,4.7
				c-2.1,1.5-4.3,2.9-6.2,5.2c0.9,0,1.9,0.2,2.8,0.1c25.8-2.7,51.7-1.8,77.5-0.3c31.5,1.8,63,4.2,94.4,6c16,0.9,31.3,5,46.7,9
				c7.7,2,15.5,3.6,23.2,5.6c-15.5-2-31-4.5-46.5-5.8c-16.9-1.3-34-1.4-50.9-2.1c-18-0.8-35.9-1.9-53.9-2.7
				c-19.4-0.9-38.9-1.4-58.3-2.6c-13.1-0.8-26.3-2.3-39.4-3.5c-0.6-0.1-1.3-0.4-1.8-0.2c-5.8,1.9-10.4,5.9-15.3,9.2
				c0.1,0.4,0.3,0.7,0.4,1.1c4.4,0.1,8.8,0,13.1,0.2c22,1.4,43.5,5.6,64.9,10.4c33.2,7.5,66.3,15,99.4,22.9
				c12.1,2.9,23.9,6.8,35.9,10.2c5.9,1.7,11.9,3.2,17.8,4.8c1.4,0.4,2.7,1.1,4,1.9c-9.1-1.6-18.2-3.2-27.3-4.9
				c-17.2-3-34.5-5.7-51.7-9.2c-14.5-3-28.7-7.3-43.1-10.2c-15.3-3.1-30.9-5-46.2-8.1c-23.1-4.8-46.1-10.2-69.2-15.3
				c-1.4-0.3-3.3-0.2-4.5,0.4c-3.5,2-6.9,4.3-10.3,6.6c-0.5,0.4-0.9,1-1.6,1.9c1.1,0.3,1.7,0.6,2.3,0.6c17.4-1.1,34.4,1.9,51.2,6
				c31.1,7.7,61.2,19,90.4,31.9c13.4,5.9,25.7,14.4,38.3,22.2c8.5,5.2,16.6,11.1,24.5,17.2c-7-3.5-14.2-6.9-21.1-10.6
				c-22.4-12.1-45.5-22.2-69.5-30.8c-21.9-7.9-43.8-15.8-66.5-21.2c-17.4-4.2-34.8-8.1-52.2-12.1c-1-0.2-2.4-0.3-3.2,0.1
				c-4.7,2.9-9.3,6-13.9,9c-0.3,0.2-0.4,0.8-0.6,1.5c0.8,0.2,1.4,0.5,1.9,0.4c19.1-1,37.4,3.6,55.6,8.6c18.1,5,35.7,11.1,52.6,19.4
				c15.7,7.7,30,17.5,44,27.8c9.9,7.3,19.9,14.5,29.8,21.7c3.8,2.8,7.4,5.6,10.8,9.1c-1.7-1-3.3-2-5-3c-12.6-7.5-25.2-15-37.8-22.4
				c-9.6-5.6-19-11.5-28.9-16.4c-14.6-7.2-29.4-13.7-44.3-20.2c-16.8-7.3-34.2-12.5-52.1-16.4c-9.6-2.1-19.2-4.3-28.8-6.5
				c-0.5-0.1-1-0.4-1.4-0.2c-5.7,2-9.9,6.2-14.8,9.3c0.2,0.2,0.4,0.5,0.6,0.7c7.6,0.6,15.1,0.9,22.6,1.8
				c21.1,2.7,40.9,9.3,60.2,18.2c14.7,6.8,26.7,17,38.9,27.3c3.1,2.6,7.3,3.8,11.1,5.4c3.3,1.4,6.6,2.5,10,3.7
				c-0.1,0.1-0.2,0.3-0.2,0.4c-3.9-0.9-7.8-1.9-11.6-2.8c-0.2,0.4-0.5,0.8-0.7,1.1c12,10.9,23,22.6,31.7,36.4
				c-2.8-2.8-5.5-5.8-8.5-8.5c-12.1-10.8-24.4-21.5-36.6-32.2c-0.8-0.7-1.9-1.2-2.9-1.6c-19.2-6.5-38.4-13.3-57.8-19.5
				c-19.1-6.1-38.8-9.1-58.6-11.9c-6.1-0.9-12.2-1.6-18.3-2.1c-1.5-0.1-3.5,0.4-4.7,1.2C15.4,333.2,4.6,341.1-6.3,349
				c-1,0.8-2.2,1.3-3.3,2c-0.4-0.3-0.7-0.5-1.1-0.8c0.6-1.2,0.9-2.7,1.9-3.6c2-1.8,4.3-3.2,6.5-4.8c8.7-6.2,17.5-12.3,26.1-18.5
				c0.9-0.6,1.5-1.9,1.8-3c3-12.9,5.7-25.9,8.9-38.8c6.9-28,12.4-56.2,13.3-85.2c0.5-16.8,2.8-33.6,4.2-50.4c0.3-4,0.5-8.1,0.8-12.2
				c0.1-1.1,0.4-2.2,0.7-3.2c0.3,0,0.7,0.1,1,0.1c-0.2,11.4-0.5,22.8-0.7,34.2c-0.3,17.7-0.4,35.5-0.7,53.2c0,2-0.1,3.9-0.3,5.9
				c-1.8,14.4-3.1,28.9-5.5,43.2c-2.4,14-6.7,27.4-12.7,40.3c-1.4,3-3.1,5.9-4.7,8.9c0.4,0.4,0.8,0.8,1.3,1.2c3-2.1,5.8-4.6,9-6.3
				c4.2-2.3,3.2-6.4,3.8-9.8c4.9-26.8,10.5-53.3,18.2-79.5c2.5-8.6,3.6-17.6,5.7-26.3c4.1-16.7,8.1-33.5,12.8-50
				c4.8-17,10.3-33.8,16.4-50.5c-1.4,8.1-2.5,16.2-4.2,24.2c-6.8,32.4-13.9,64.7-20.8,97.1c-2.7,12.6-4.7,25.4-7.6,38
				c-3.6,15.6-8.3,30.9-14.9,45.5c-0.7,1.4-1.1,3-1.7,4.4c0.3,0.3,0.6,0.6,0.6,0.6c4.7-3,9.5-6,14.1-9.2c0.7-0.5,0.7-2,0.9-3.1
				c4-19.3,7.9-38.6,12.1-57.8c5.1-23.7,10.6-47.3,15.6-71c2.6-12.6,4-25.5,6.6-38.2c3.1-14.9,6.9-29.7,10.4-44.5
				c0.9-3.7,1.8-7.3,2.6-11c0.3,0,0.7,0.1,1,0.1c-0.1,2.2-0.2,4.4-0.4,6.6c-2.2,18.7-3.9,37.5-6.8,56c-4.2,26.8-9,53.4-14.3,80
				c-4.6,23.1-9.5,46.3-18.6,68.2c-1.3,3.2-2.8,6.3-4.2,9.4c-0.1,0.2,0.1,0.5,0.3,1.2c1.1-0.4,2.2-0.7,3.2-1.2
				c7.1-3.9,11.1-9.1,13.1-17.8c7.3-32,17.4-63.3,29.5-93.9c4.6-11.7,7.9-24.1,11.3-36.3c5.1-18.2,12.6-35.4,20.9-52.3
				c5.2-10.6,10.3-21.2,15.4-31.9c0.3-0.6,0.7-1.2,1.8-1.5c-1,3.2-2.1,6.4-3.1,9.6c-6.7,20.7-13.3,41.4-20.2,62.1
				c-6.3,18.9-13.6,37.5-19.2,56.6c-5.9,20.4-11,41.1-19.1,60.9c-4.2,10.2-9.4,20-14.2,30c-0.5,0.9-0.9,1.9-0.7,3.6
				c0.9-0.4,1.9-0.6,2.7-1.1c4-2.6,8.1-5.2,12-8c1-0.7,1.7-2.1,2-3.3c6.1-25.1,14.8-49.2,25.9-72.5c10.7-22.5,19.5-45.6,27.5-69.1
				c6.5-19.1,14.9-37.4,24.8-55.1c6.1-10.9,11.8-22.1,18.1-33.1c-1.4,3.8-2.9,7.5-4.2,11.3c-5.3,14.8-10.3,29.7-16.1,44.4
				c-6,15.3-13.2,30.2-19.2,45.5c-6.9,17.8-12.6,36-19.6,53.7c-7.6,19.3-15.8,38.4-24,57.5c-1.9,4.4-4.8,8.3-7.2,12.4
				c-0.6,1-1.1,2-1.9,3.5c1.3,0,2,0.1,2.4-0.1c5.1-3.3,10.1-6.5,15.1-10c1.2-0.8,2.3-2.3,2.8-3.6c6.3-18.8,14.3-36.9,23.7-54.4
				c9.6-17.7,19.4-35.4,28.7-53.3c5.7-11,10.6-22.5,15.6-33.8c9-20.2,20.6-39,33.1-57.1c3.4-4.9,6.7-9.9,10-14.9
				c0.3,0.2,0.6,0.4,1,0.5c-0.7,1.8-1.4,3.7-2.2,5.5c-11,22-22.2,43.9-33.1,65.9c-10.5,21.3-20.7,42.7-31.1,64
				c-7.8,15.9-15.4,31.9-23.7,47.5c-4.5,8.6-10.3,16.4-15.5,24.6c-0.6,0.9-1,2-1.4,3c0.3,0.2,0.5,0.5,0.8,0.7
				c4.1-2.5,8-5.5,12.4-7.5c7.1-3.2,9.2-9.7,11.9-16c9.9-23.2,22.3-45,36.2-66c8.4-12.8,17-25.4,25-38.4c6.8-11,12.7-22.5,19.4-33.5
				c6.9-11.3,14.2-22.5,21.8-33.5c4.2-6.1,9.1-11.6,13.8-17.3c0.6-0.7,1.4-1.3,2.1-1.9c0.3,0.2,0.6,0.4,0.8,0.6
				c-6.1,9.6-11.7,19.6-18.2,28.8c-13.6,19.3-24.8,39.9-35.7,60.8c-14.8,28.5-29.3,57.2-47.1,84c-4.2,6.2-8.9,12.1-13.4,18.1
				c-1,1.3-2,2.7-3.5,4.7c1.5-0.2,2.3,0,2.7-0.3c5.4-3.3,10.7-6.5,16-10c1.3-0.9,2.4-2.4,3.1-3.8c6.4-12.1,12.3-24.4,19.1-36.2
				c6.6-11.3,13.7-22.3,21.3-32.9c9.7-13.5,20.3-26.3,30.2-39.7c7.6-10.3,14.4-21.1,22-31.5c8-10.9,16.4-21.6,24.6-32.3
				c0.3-0.4,0.9-0.7,1.9-0.6c-7.2,10.7-14.4,21.3-21.5,32c-5.6,8.5-11.2,17.1-16.6,25.8c-5.4,8.8-10.3,18-15.7,26.8
				c-8.5,13.8-16.8,27.8-26.1,41.2c-10.2,14.6-21.4,28.5-32.2,42.7c-0.5,0.7-1,1.4-1.5,2.2c0.2,0.3,0.5,0.6,0.7,0.9
				c2.1-1.3,4.1-2.7,6.2-3.8c5.6-3,9.5-6.9,12.8-12.8c9.6-17.1,19.8-33.8,31-49.8c15.9-22.6,32.7-44.4,49.5-66.3
				c5.6-7.3,12.3-13.7,18.5-20.5c2.7-3,5.4-6.1,8.3-8.9c-12.5,18.6-25.1,37.2-37.5,55.8c-11,16.4-21.4,33.2-32.9,49.2
				c-9.9,13.7-21.6,26.2-31.5,40c-2.9,4.1-6.7,6.6-10.3,9.7 M147.9,346.8c0.2-0.4,0.4-0.8,0.6-1.2c-1.4-0.9-2.7-2.1-4.2-2.8
				c-10.7-5.2-21.4-10.5-32.2-15.5c-19.4-9-40.2-12.9-61.2-16c-5-0.7-14,4.7-15.4,9.2c0.6,0.1,1.2,0.2,1.7,0.2
				c17.6-2.4,35-0.9,51.8,4.1c15,4.5,29.6,10.6,44.3,16.1C138.4,342.7,143.1,344.8,147.9,346.8z M198.4,214.5
				c-8.5,0.4-14.1,5.8-20.3,10.5c0,0,0,0.2,0.2,0.9C221,215.2,315.6,210,359,204c-1.2-0.6-53,2.3-54.2,2.4"/>
			<path class="st2" d="M334.9,98.3c-8.3,12.9-18,24-29.1,33.9c-10.9,9.7-21.6,19.6-32.1,30c20.9-13.5,41.7-26.9,62.6-40.4
				c-4.4,12.4-14.4,19.6-24.9,26.1c-16.2,10.1-33.6,17.5-51.4,24.2c-4.2,1.6-7.8,4.1-10.9,7.6c35.5-14.2,71.4-26.9,109.5-31.4
				c0.2,0.5,0.4,0.9,0.5,1.4c-9.5,4.1-18.8,8.8-28.6,12.1c-26.3,8.9-53,16-80.2,21.5c-3,0.6-6,0.9-8.3,1.2
				c8.3-10,16.5-20.5,25.3-30.4c14.6-16.3,29.4-32.5,47.6-45C321.1,104.8,328.2,101.8,334.9,98.3z"/>
			<path class="st2" d="M373.4,173.4c-53.3,8.4-104.7,21.2-157.3,26.9c0.1-0.4,0.1-0.7,0.2-0.8c6-2.9,9.3-8,12.9-13.5
				c8.8-13.5,18.5-26.4,28.4-39.1c9.3-11.9,19.2-23.4,29.1-34.9c4.5-5.3,9.4-10.4,14.4-15.3c8.4-8.2,17.1-16.2,25.9-24.1
				c-3.6,4.5-7.1,9.1-10.7,13.6c-11.5,14.8-22.9,29.6-34.4,44.4c-7.8,10-15.6,20-23.8,29.7c-6.9,8.1-14.6,15.7-21.6,23.7
				c-3.2,3.7-6.1,7.6-10.8,9.7c0.3,0.4,0.6,0.8,0.9,1.3c2.3-0.8,4.6-1.7,7-2.4c9.8-2.7,19.8-5.1,29.5-8.1
				c19.3-6,39.1-10.1,59.1-13.2c15.1-2.4,30.1-3.2,45.2-0.1c1.1,0.2,2.2,0.5,3.2,0.8C371.1,172.2,371.7,172.6,373.4,173.4z"/>
			<path class="st2" d="M147.9,346.8c-4.8-2-9.6-4.1-14.4-6c-14.7-5.5-29.3-11.7-44.3-16.1c-16.8-5-34.2-6.6-51.8-4.1
				c-0.5,0.1-1.1-0.1-1.7-0.2c1.4-4.5,10.3-9.9,15.4-9.2c21,3.1,41.7,7.1,61.2,16c10.8,5,21.5,10.3,32.2,15.5
				c1.5,0.7,2.8,1.8,4.2,2.8C148.3,346,148.1,346.4,147.9,346.8z"/>
			<path class="st2" d="M178.4,225.9c-0.2-0.7-0.3-0.8-0.2-0.9c6.1-4.7,11.8-10.1,20.3-10.5"/>
		</g>
	</g>
</g>
<g id="Calque_2">
	<path class="st3" d="M-49,106"/>
	<g class="st4">
		<image style="overflow:visible;" width="385" height="136" xlink:href="CF0BFD78.png"  transform="matrix(1 0 0 1 -97 50)">
		</image>
	</g>
	<g class="st4">
		<image style="overflow:visible;" width="454" height="165" xlink:href="CF0BFD79.png"  transform="matrix(1 0 0 1 -73 69)">
		</image>
	</g>
	<g class="st4">
		<image style="overflow:visible;" width="225" height="113" xlink:href="CF0BFD7F.png"  transform="matrix(1 0 0 1 -75 117)">
		</image>
	</g>
	<g class="st4">
		<image style="overflow:visible;" width="301" height="128" xlink:href="CF0BFD7A.png"  transform="matrix(1 0 0 1 -92 108)">
		</image>
	</g>
	<g>
	</g>
	<g>
	</g>
	<g>
	</g>
	<g>
	</g>
	<g>
	</g>
	<g>
	</g>
	<g>
	</g>
	<g>
	</g>
	<g>
	</g>
	<g>
	</g>
	<g>
	</g>
	<g>
	</g>
	<g>
	</g>
	<g>
	</g>
	<g>
	</g>
</g>
</svg>
