<?xml version="1.0" encoding="utf-8"?>
<!-- Generator: Adobe Illustrator 24.0.0, SVG Export Plug-In . SVG Version: 6.00 Build 0)  -->
<svg version="1.1" id="Calque_1" xmlns="http://www.w3.org/2000/svg" xmlns:xlink="http://www.w3.org/1999/xlink" x="0px" y="0px"
	 viewBox="0 0 400 400" style="enable-background:new 0 0 400 400;" xml:space="preserve">
<style type="text/css">
	.st0{opacity:0.6;}
	.st1{fill:none;stroke:#F50057;stroke-width:0.5;stroke-miterlimit:10;}
</style>
<g class="st0">
	<path class="st1" d="M390.9,200.1c0,8.9-0.1,17.9,0,26.8c0.1,4.7-1.7,6.8-6.7,6.8c-12.7-0.2-25.4,0.1-38.1-0.1
		c-4.8-0.1-7,1.8-8.6,6.2c-3.6,9.6-7.5,19.2-11.8,28.5c-2,4.3-1.8,7.2,1.6,10.5c8.9,8.5,17.5,17.3,26.2,26.1
		c4.9,4.9,4.9,6.6,0.2,11.3c-12.2,12.3-24.4,24.5-36.6,36.6c-4.8,4.8-6.2,4.7-11.3-0.3c-8.6-8.5-17.2-17-25.7-25.7
		c-3.2-3.3-6-3.9-10.4-1.8c-9.8,4.6-20,8.5-30.2,12.4c-4.1,1.6-6,3.9-6,8.4c0.1,12.5-0.1,25,0.1,37.5c0.1,5.5-1.6,7.9-7.5,7.8
		c-17.3-0.3-34.6-0.1-51.8-0.1c-6.9,0-8-1.2-8-8c0-12.5-0.1-25,0-37.5c0.1-4.7-1.7-6.9-6.3-8.5c-9.5-3.3-18.9-7.2-28-11.5
		c-4.7-2.2-7.8-1.9-11.5,2c-8.3,8.8-17,17.2-25.6,25.8c-4.8,4.8-6.5,4.7-11.3-0.1c-12.2-12.2-24.3-24.5-36.7-36.6
		c-4.1-4-3.8-7.1,0.2-10.9c8.9-8.5,17.3-17.5,26.2-26c3.5-3.3,3.6-6.2,1.6-10.4c-4.5-9.7-8.4-19.6-12.2-29.6
		c-1.6-4.2-3.8-5.9-8.3-5.9c-12.7,0.2-25.4-0.1-38.1,0.1c-5.4,0.1-7.4-2.1-7.4-7.4c0.2-17.5,0.2-35,0-52.4c-0.1-5.8,2.4-7.6,7.9-7.5
		c12.5,0.2,25-0.1,37.5,0.1c4.8,0.1,6.9-1.8,8.5-6.3c3.5-9.7,7.4-19.2,11.7-28.5c2.3-4.8,1.7-7.9-2-11.5c-8.9-8.5-17.4-17.4-26.2-26
		c-3.8-3.7-3.7-6.9,0.1-10.6c12.5-12.2,25-24.4,37.3-36.8c3.9-3.9,6.9-3.4,10.5,0.3c8.6,8.8,17.5,17.3,26,26.2
		c3.3,3.4,6,3.9,10.4,1.9c9.7-4.5,19.6-8.5,29.6-12.2c4.5-1.7,6.2-4.1,6.1-8.8c-0.2-12.3-0.1-24.6-0.1-36.9c0-7.2,0.9-8.1,7.7-8.1
		c17.3,0,34.6,0.1,51.8-0.1c5.6-0.1,7.9,2,7.8,7.7c-0.2,12.5,0.1,25-0.2,37.5c-0.1,5.1,2,7.2,6.7,8.8c9.7,3.4,19.2,7.5,28.5,11.8
		c4.3,2,7.2,1.8,10.5-1.6c8.6-8.9,17.3-17.5,26.1-26.2c4.9-4.9,6.6-4.9,11.3-0.2c12.2,12.3,24.2,24.6,36.5,36.8
		c3.8,3.8,3.8,6.8,0,10.6c-9,8.7-17.6,17.7-26.6,26.4c-3.2,3.1-3.5,5.8-1.6,9.9c4.5,9.9,8.5,20,12.4,30.2c1.5,3.9,3.5,5.8,7.8,5.7
		c12.7-0.2,25.4,0.1,38.1-0.1c5.6-0.1,8,1.9,7.8,7.6C390.7,182.6,390.9,191.4,390.9,200.1z M200.2,114.5
		c-46.7-0.1-85.5,38.3-85.8,85c-0.3,46.9,38.4,86,85.3,86.1c46.7,0.1,85.5-38.3,85.8-85C285.8,153.6,247.1,114.6,200.2,114.5z"/>
</g>
<g>
</g>
<g>
</g>
<g>
</g>
<g>
</g>
<g>
</g>
<g>
</g>
<g>
</g>
<g>
</g>
<g>
</g>
<g>
</g>
<g>
</g>
<g>
</g>
<g>
</g>
<g>
</g>
<g>
</g>
</svg>
