<?xml version="1.0" encoding="utf-8"?>
<!-- Generator: Adobe Illustrator 24.0.0, SVG Export Plug-In . SVG Version: 6.00 Build 0)  -->
<svg version="1.1" xmlns="http://www.w3.org/2000/svg" xmlns:xlink="http://www.w3.org/1999/xlink" x="0px" y="0px"
	 viewBox="0 0 294 405" style="enable-background:new 0 0 294 405;" xml:space="preserve">
<style type="text/css">
	.st0{display:none;}
	.st1{display:inline;opacity:0.31;}
	.st2{fill:#D8D8D8;}
	.st3{opacity:0.1;}
</style>
<g id="Calque_1" class="st0">
	<g class="st1">
		<path class="st2" d="M87.8,286.5c3.1,0.8,4.3-0.5,4.4-5.3c-0.9,0.5-1.6,0.9-2.3,1.3c0.5-3,1-6,1.6-9.5c-1,1-1.7,1.6-2.9,2.8
			c0.4-1.4,0.8-2.2,0.7-2.9c-0.3-3.5-1.2,0.8-1.8,0c-1.6-2.2-2.8-4.8-4.7-6.6c-1.8-1.7-1.7-5.7-6.2-5.3c1.4,3.2,2.6,6,3.8,8.7
			c-0.3,0.2-0.6,0.3-0.9,0.5c-1-1.5-2-3-3.1-4.5c-0.2-0.3-0.5-0.6-0.8-0.9c-0.2,0.3-0.7,0.7-0.7,1c0.2,3.5,0.7,6.8,4.3,8.7
			c0.8,0.4,1.1,2,1.5,3c0.6,1.8,1,3.6,1.4,5.4c0.4,0,0.7,0,1.1,0c0.5-0.7,1.1-1.5,1.6-2.2c-0.3,2.4,0.4,4.2,2.7,5.3
			c-1.3,2-2.5,4-4,6.4C88.2,292,89.6,289.6,87.8,286.5z M104.9,331.8c-1.6,2.7,0.9,4.3,1.3,6.5C107.8,335.5,107.1,333.5,104.9,331.8
			c-0.3-2.6,0.5-5.5-1.4-8.7c-3.1,4.5-5.8,8.5-8.5,12.5c0.3,0.3,0.6,0.5,0.9,0.8c3.3-1.5,2.8-7.5,7.8-6.8
			C104.2,330.2,104.5,331,104.9,331.8z M230.5,191.6c-0.7,0.2-1.6,0.2-2,0.7c-2.7,3.6-5.3,7.3-7.9,11c-0.3,0.4-0.1,1-0.1,1.5
			c2.6-1.6,4.6-3.5,6.5-5.5c2.1-2.1,3.9-4.2,3.4-7.5c1.3-1.2,2.6-2.4,4.1-4C231.5,187.3,230.6,188.3,230.5,191.6z M167.7,237.7
			c0,1.7,0,3.5,0,5.2c4.3,1.5,7.6,0.4,7.5-1.9c-2-0.9-3.6-1.7-5.3-2.4C169.2,238.3,168.4,238,167.7,237.7c0.2-4.1,1.5-5.8,3.5-5.5
			c2.7-3.6,5.3-7.1,7.9-10.6c-8.3,2.8-11.7,9.2-13.3,17.2C166.5,238.4,167.1,238,167.7,237.7z M78.5,44.3c-1.9,1.7-3.9,3.3-5.8,5
			c0.2,0.2,0.3,0.5,0.5,0.7c2.9-2,5.9-4.1,8.9-6.1c1-0.7,2.2-1.3,3.3-1.7c5-1.9,10-3.7,15.1-5.6c-0.2-0.5-0.3-1-0.5-1.4
			c-4.3,1.5-8.6,3-12.9,4.5c0-0.2,0-0.6,0-0.8c-1.4,0.8-2.8,1.6-4.2,2.4c-1.4,0.8-2.7,1.6-4.1,2.4c0.7-1.5,1.3-3.1,2-4.6
			c-0.2-0.1-0.4-0.2-0.6-0.3c-1.3,1.9-2.6,3.8-3.9,5.6c0.2,0.2,0.3,0.4,0.5,0.5C77.4,44.8,78,44.6,78.5,44.3z M78.8,63.9
			c1.7,1.7,4,1.5,6-0.8c-2.1,0-3.9,0-5.8,0c1.2-2.2,3.1-3.3,5.7-3.7c0.7-0.1,1.3-1.2,1.9-1.8c-0.2-0.2-0.4-0.3-0.6-0.5
			c-0.8,0.6-1.5,1.4-2.4,1.6c-4.3,1.3-8.6,2.5-13,3.6c-2.9,0.8-3.9,3-4.9,6.3c4.5-1.3,8.5-2.4,12.5-3.6
			C78.5,65.1,78.6,64.3,78.8,63.9z M89.2,48.6c-0.7-0.5-1.4-0.9-2.1-1.4c0,0.3,0.1,0.5,0.1,0.8c-2,0.5-4.1,0.8-6.1,1.5
			c-1.5,0.5-2.9,1.4-4.3,2.2c-0.6,0.3-1.1,0.9-1.7,1.3c-2.2,1.4-4.4,2.7-6.5,4.1c-0.4,0.3-0.4,1.4-0.6,2.1c0.6,0,1.3,0.2,1.8,0
			c2.5-0.9,5-1.9,7.5-3c0.8-0.3,1.2-1.2,2.1-2.1c0,0,0.6,0.3,1.1,0.3C84.5,54,86.6,50.9,89.2,48.6c2.5-0.7,5-1.4,7.4-2.2
			c-0.1-0.3-0.1-0.5-0.2-0.8c-2.2,0.4-4.4,0.7-6.6,1.3C89.5,47,89.4,48,89.2,48.6z M211.7,155c0-0.2,0-0.4,0-0.4
			c1.4-0.5,5.8,1.3,6.1,2.8c1.1,5,2.1,9.9,2.6,15c0.3,2.4-0.5,4.9-0.9,7.3c0.2,0,0.4,0.1,0.7,0.1c1.1-5.9,2.3-11.7,3.5-17.9
			c0.2,0.9,0.4,1.5,0.5,2.1c0.1,0,0.3-0.1,0.4-0.1c-0.2-1.8-0.3-3.5-0.5-5.2c0.9,1.3,0.9,2.7,1.4,3.9c1.6,3.7-2.3,8.1,1.4,11.7
			c0.7,0.7,0.1,2.6,0.1,4.6c1-2.3,1.3-4.9,2.7-5.9c2.2-1.6,2.4-3.8,3-6c0.5-1.9,0.7-4,1.1-6c0.2,0,0.4,0,0.6,0c0,2.3,0,4.6,0,7.1
			c1.1-0.6,1.9-1,2.7-1.4c1.4,1.9-0.7,5.7,3.2,5.3c0.3,1.1,0.6,2,1,3.6c1.1-3.4,1.9-5.9,2.8-8.6c0.4,0.9,0.7,1.8,1.1,3
			c0.3-2.7,0.5-4.9,0.7-7c0.2,0,0.4,0,0.6,0c0,1.3,0,2.6,0,4.2c0.6-0.4,0.9-0.6,1.3-0.9c0.3,0.8,0.5,1.5,0.8,2.2
			c0.1,0,0.3-0.1,0.4-0.1c0.1-1.3,0.2-2.7,0.3-4.1c0.6,0.3,1,0.5,1.9,0.9c0.2-3.2,0.4-6.1,0.5-9c0.1,0,0.9-0.1,1.6-0.1
			c-0.1-0.8-0.1-1.7-0.3-2.5c-0.3-1.4-1.1-2.9-1-4.3c0.2-2.1-0.2-3.5-1.7-5c-1.1-1-2-2.4-2.6-3.8c-0.6-1.3-0.5-3-2.6-1.6
			c-0.2,0.1-1.1-0.2-1.2-0.5c-0.9-3.5-4.4-4.2-6.8-5.7c-6.6-4.1-13.6-7.7-20.4-11.5c-0.1,0-0.2,0.2-0.4,0.3c0.9,1,1.7,1.9,2.9,3.2
			c-11.6,2.5-22.3-0.5-33.5-2.7c3,1.9,5.7,3.6,8.4,5.2c-0.2,0.4-0.4,0.7-0.6,1.1c-0.7-0.3-1.6-0.6-2.2-1.1c-1.4-1-2.8-1.8-3.2,0.4
			c0.7,1.3,1,2.5,1.4,3.8c0.1,0.4,0.3,0.9,0.6,1.3c1.7,2.2,3.5,4.3,5.1,6.6c1,1.5,2.6,3.8,2.1,4.7c-2,3.6,0.6,5,2.4,6.9
			c0.2,0.2,0.5,0.2,0.9,0.3c0-0.6,0-1.1,0-1.5c0.2-0.2,0.5-0.3,0.7-0.5c0.3,0.7,0.6,1.4,1.1,2.6c0.3-1.4,0.4-2,0.5-2.6
			c0.3,0,0.5-0.1,0.8-0.1c0.7,2.9,4.4,4.8,2.4,8.6c-0.2,0.4,0.2,1.1,0.4,1.6c0.6-0.3,1.1-0.5,2.3-1c0.4,4.5,1,8.6,1.1,12.8
			c0.1,6.1-5.4,10.9-11.6,10.2c-2.2-0.3-4.3-1.1-6.8-1.7c-0.4,1.5-0.9,3.2-1.4,5.1c2.9-0.2,5.1-0.3,7.5-0.5c0.1,0.6,0.2,1.9,0.3,3.3
			c3.5-3,7-5.9,11.1-9.4c0,3.6,0,6.2,0,8.2c-0.9,1-2.1,1.6-2.3,2.5c-0.5,2.3-0.5,4.7-0.8,7.1c0,0.3,0,0.6,0,0.9
			c-0.7,2.4-1.4,4.9-2.1,7.3c1.8-1.1,3.1-2.4,3.9-3.9c1.3-2.5,2.3-5.1,3.3-7.7c0.8-1.9,1.4-3.9,2.2-5.8c0.6-1.5,1.2-3,1.8-4.5
			c0.3,0,0.8,0,0.9-0.1c0.5-2.3,1.4-4.5,1.4-6.8c0-3.9-0.1-7.9-0.8-11.7C215.5,160.4,214.5,157.1,211.7,155z M199.2,237.5
			c-3.5,3-3.5,3-2.7,5.4c0.3-1,0.4-1.6,0.5-2c1.6,0.2,3,0.4,4.3,0.4c6.6,0.4,13.2,0.8,18.8-3.5c1.2-0.9,2-2.5,3.2-4.1
			c-4.4,1.6-8.1,3-12.4,4.7c1-2.8-0.4-2.6-1.8-2.5c1.9-1.5,3.8-3.1,5.7-4.7c-7.2-1.1-9.6,4.9-13.6,7.9
			C200.5,238.6,199.8,238.1,199.2,237.5c2.7-2.8,5.1-6.1,8.3-8.5c3.9-2.9,8.9-4.6,11.7-9.4c-2-1.7-4.2-3.4-5.9-4.8
			c-4.1,4.8-7.9,9.1-11.7,13.5c-2.2,2.6-2.8,5.8-3.5,9C198.5,237.4,198.9,237.4,199.2,237.5z M244,199c0.6,2,1.1,4,1.7,6.2
			c-0.1,0-0.7,0.1-1.3,0.1c0,0.3-0.1,0.6-0.1,0.9c4-0.2,7.3,3.1,11.6,1.8c-1.4-1-3.2-1.4-4.5-2.4c-1.4-1.1-2.5-2.6-3.9-4.1
			c-0.2,0.6-0.3,1.1-0.6,2.3C245.8,201.9,244.9,200.5,244,199c-0.5-0.7-0.9-1.5-1.5-2.3c-0.8,1.2-1.1,1.9-1.5,2.1
			c-4,1.7-8.1,3.2-12.1,4.8c-0.6,0.3-1.2,0.7-1.7,1.2c-3,3-6,5.9-9.9,7.6c-0.1,0.1-0.1,0.4-0.2,0.9c3.4,1,7.4,0.5,10,3.6
			c0.2,0,0.5,0,0.7,0c0.9-0.1,1.7-0.1,2.6-0.2c-0.3-1.1-0.9-2-0.6-2.8c0.4-1.5,1.2-2.9,1.9-4.3c1.5-3,2.6-3.4,4.4-1.7
			c1.3-0.9,2.5-1.7,3.9-2.7c-0.9-0.5-1.5-0.8-2.1-1.1c0.6-0.5,1-0.9,1.5-1.3C240.9,201.6,242.5,200.3,244,199z M88.6,251.7
			c0.1-0.7,0.4-1.5,0.2-2.1c-0.2-0.8-0.9-1.5-1-2.3c-0.2-1.5-0.2-3-0.3-5.2c1.5,1.7,3,3.2,4.2,4.9c1.2,1.6,1.9,1.2,2.9-0.1
			c0.7-0.9,1.6-1.6,2.4-2.5c0.9,1,1.7,1.9,2.9,3.2c3.3-1.3,0.3,3.7,1.8,3.8c1.4-1,2.3-1.7,3.6-2.6c0.2,1.5,0.2,2.2,0.3,2.9
			c0.5,0.4,0.9,0.9,1.4,1.3c0.5-1.1,1-2.3,1.5-3.5c-0.3,0.1-0.6,0.2-0.8,0.3c0.8,1.3,1.4,2.7,2.4,3.8c0.9,1,2.1,1.8,3.3,2.4
			c0.5,0.3,1.4-0.2,2.2-0.3c0,0.4-0.1,1.3-0.1,1.3c3.4,0.4,5,5.2,9.5,3.4c2.9-1.1,4.5-2.1,3.5-5.1c-1.2-3.3-2.6-6.6-4.2-9.7
			c-1.5-2.9-3.9-4.1-7.4-3.9c-4.7,0.4-9.3,0.5-14,0.4c-6.6-0.2-12.3-2.7-16.2-8.2c-2-2.7-2.8-6.2-4.3-9.4
			c-3.1-6.8-6.3-13.6-9.4-20.3c-3.3-7.1-6.5-14.3-10-21.4c-0.7-1.4-2.2-2.5-3.3-3.7c0.1-1.3,0.4-2.7,0.4-4c0.1-2.6,0-5.1,0-7.7
			c0.3,0,0.6,0,0.9-0.1c0.4,0.5,0.8,1.1,1.5,2.1c0.2-1.8,1-3.8,0.5-4.2c-2.3-1.9-1.3-4.2-0.5-5.9c1.8-4,2.1-8,1.7-12.2
			c-0.2-1.9,0.6-3,3-2.9c-0.4,3.7,2.2,3.8,4.1,4.1c-0.2-1.2-0.8-2.5-0.5-3.6c0.7-2.3,4.2-4.2,6.9-4c-1.8,6.8-0.4,8.4,6.8,7.6
			c1.5-0.1,3,0.1,4.4-0.1c0.7-0.1,1.7-1,1.7-1.5c0.3-3.7-2.6-7.9-6.2-9.2c-2.4-0.9-4.9-1.4-7.3-2.4c-1.2-0.5-2.2-1.5-3.3-2.3
			c0.1-0.2,0.3-0.4,0.4-0.6c2.7,0.6,5.3,1.2,8,1.9c-5.3-4.7-13-5.8-15.4-2.4c1.4,0.2,2.7,0.2,3.8,0.6c0.8,0.3,1.9,1,1.9,1.6
			c0,0.7-0.7,1.7-1.4,2.2c-1.5,1.1-3.3,1.9-5.2,3.1c-0.6-0.8-1.1-3.2-3.4,0.2c0.7-17.3,1.3-33.5,2-49.8c-0.2-0.1-0.4-0.1-0.6-0.2
			c-1.2,2.2-2.4,4.3-3.7,6.7c-0.4-1.8-0.8-3.2-1.1-4.6c-0.4,0.3-0.8,0.6-1.6,1.3c0.5-1.8,0.9-3.2,1.3-4.6c-0.6,0.3-1.1,0.5-1.6,0.7
			c-0.1-0.4-0.3-0.9-0.2-1.3c1.1-4.4,2.3-8.8,3.7-14.1c-1.1,0.7-2.3,1-2.6,1.8c-1.9,4.5-3.6,9.1-5.3,13.7c0.6,0.7,1.2,1.4,1.8,2.1
			c-5.9,8.7-6.1,7.4-2,12.7c1.2-0.4,2.3-0.8,3.9-1.4c-4.3,6.4-4.3,6.4-2.6,10.4c-3.6,2.3-6.6,5.2-8.5,9c0.2,0.2,0.4,0.4,0.6,0.6
			c1.8-1.4,3.5-2.8,5.3-4.2c-0.1,0.8-0.4,1.3-0.8,1.7c-1.8,1.7-2.5,4.9-6,4.4c-0.2,0-0.9,0.9-0.9,1.3c0,0.6,0.3,1.3,0.8,1.8
			c0.5,0.5,1.4,0.7,2.3,1.1c-0.9,1.7-1.7,3.2-2.5,4.7c0.1,0.1,0.2,0.1,0.3,0.2c0.9-1.2,1.8-2.4,2.6-3.4c-0.3,3.2-0.5,6.5-0.8,9.8
			c0.1,0.5,0.2,0.9,0.3,1.4c0.7,0,1.3,0,1.9,0c-0.5,1.9-0.9,3.7-1.3,5.4c0.3,0.2,0.6,0.4,1,0.5c0.8-1.1,2-2.2,2.5-3.5
			c0.6-1.4,0.6-3,0.8-4.3c0.5,0.2,1.3,0.7,2.2,1.1c-2.5,6.3-2.1,12.6,0.7,18.8c-0.2-1.6-0.3-3.3-0.5-5.1c0.6-0.2,1.2-0.4,1.5-0.5
			c0.4-1.9,0.7-3.4,0.9-4.9c0.3,0,0.5,0.1,0.8,0.1c0,1.2,0,2.4,0,4.2c1.2-1.5,2-2.6,2.8-3.6c0.3,0.1,0.5,0.3,0.8,0.4
			c-0.2,0.9-0.3,1.9-0.8,2.7c-2,3.2-2.4,6.7-2.2,10.3c0.2,2.9,0.7,5.7,1,8.5c0.3,2.6,0.6,5.2,1,7.8c0.1,0.8,0,1.6,0.3,2.3
			c2.1,4.3,4.3,8.6,6.5,12.9c0.2,0.3,0.2,0.8,0.2,1.2c0.1,4.1,0,8.1,0.2,12.2c0.2,5.7,0.6,11.4,0.9,17.2c0.5,0,1,0,1.5-0.1
			c0-1.8,0-3.5,0-5.3l-0.1,0.1c0.9-0.8,1.7-1.6,2.6-2.5c0.3,2.3,0.7,4.8,1.1,7.3c0.4,0,0.7-0.1,1.1-0.1c0-1.3,0-2.6,0-3.9
			c0.4,0,0.7,0,1.1,0c-0.1,1.8-0.1,3.6-0.3,5.4c-0.1,0.6-1.3,1.2-1.2,1.7c0.4,3.5,0.7,7.1,3.4,9.9c0.6,0.6,1.3,1.6,1.2,2.2
			c-0.3,1.8-0.1,2.5,1.9,1.8c0.4-0.1,1.1-0.1,1.3,0.2c1.8,2,3.8,3.9,5.4,6.1C87.7,248.7,88.1,250.3,88.6,251.7
			c-1.2-0.7-2.6-1.5-4.1-2.4c2.4,3.6,4.5,6.7,6.6,10c0.3,0.5,0.1,1.3,0.1,2c-0.7-0.3-1.7-0.4-2.1-0.9c-0.8-1-1.4-2.2-2.1-3.3
			c-0.2,0.1-0.4,0.2-0.6,0.2c2,4.8,4,9.5,6.1,14.4c0.4,0,1.2,0,3.2,0c-3.6,4-2.1,7.8-1.3,11.3c0.8-3.1,1.8-6.4,2.4-9.8
			c0.5-2.9,0.7-6-1-8.8C93.4,260.2,91,255.9,88.6,251.7z M121.6,145.4c3.1-2.6,5.6-4.8,8.7-7.4c-0.9,4.6,0.2,8.2,2.4,8.3
			c2.7,0.1,5.6-0.1,8.1-1.1c1.2-0.5,1.6-3,2.5-4.7c0.5,0.6,1.1,1.4,1.6,2c1.7,0,3.3,0,4.9,0c-6.6-5.8-13.8-8.6-22.6-6.1
			c7.4-5.4,14.7-2.4,22.2-0.1c-2.5-1.9-5.1-3.7-7.9-4.4c-6.3-1.6-12.8-2.1-17.9,3.1c-2.2,2.2-4,4.7-7.3,5.5
			c-0.4,0.1-0.5,1.3-0.7,1.9c1.8-0.2,3.1-0.3,4.7-0.5c-0.6,1.6-1.1,2.9-1.7,4.6c2.6,0,4.8,0,6.9,0c0-0.2,0-0.3,0.1-0.5
			C124.7,145.9,123.5,145.7,121.6,145.4z M166.7,83.1c-0.2,0.2-0.3,0.3-0.5,0.4c1.4,1.4,2.7,3,4.3,4.3c4.9,4.1,10.3,7.8,13.9,13.4
			c0.5,0.8,1.6,1.2,2.4,1.8c0.1-0.1,0.1-0.2,0.2-0.3c-0.3-0.4-0.6-0.9-0.9-1.4c0.4-0.1,0.6-0.2,0.7-0.1c2.3,1.1,4.6,1.9,5.7,4.8
			c0.9,2.4,3.5,4.1,4.8,6.4c1.9,3.5,7.4,6.9,11.3,6.6c1.4-0.1,2.8-0.2,3.8-0.3c-8.1-8.7-16.4-17.6-24.7-26.5
			c0.1,0.6,0.1,1.2,0.3,2.4c-3-2-5.5-3.6-8.1-5.3c-0.1,0.2-0.3,0.4-0.4,0.5c1.2,1.1,2.3,2.2,3.5,3.3c-0.1,0.2-0.3,0.3-0.4,0.5
			C177.2,90.1,171.9,86.6,166.7,83.1z M57.7,202.1c0.2,0,0.3,0,0.4,0c0.3,1.4,0.7,2.9,1.2,5c2.7-6.1,1.5-11.5,0.2-16.8
			c-0.1,1-0.2,2-0.3,2.9c-0.9-1.5-1.3-3-1.5-4.5c-0.6-4.6-1.3-9.4-3.4-13.5c-3.7-7.1-6.1-14.4-5.8-22.4c0-0.5-0.4-1.1-0.9-2.4
			c-0.4,1.4-0.9,2.2-0.8,2.9c0.7,4.5,1.5,9,2.2,13.5c0.5,3.2,2.1,6.4,0.5,9.8c-0.4,0.8,0.2,2.1,0.4,3.2c0.2-0.1,0.4-0.1,0.7-0.1
			c-0.2-1-0.3-2-0.5-3c0.3,0,0.7-0.1,1-0.1c3.1,12.9,5.9,25.8,1.5,39.7c1.7-1.2,2.7-1.9,3.3-2.3c1.3-3.3-1-6.9,1.6-9.9
			C57.7,203.6,57.6,202.8,57.7,202.1z M104.5,258.9c0,3.7,0.8,6.6,3.6,9c1.6,1.3,2.4,3.4,3.6,5.2c-0.2,0.1-0.4,0.2-0.6,0.4
			c-1.2-0.8-2.3-1.5-3.4-2.3c2,3.2,3.9,6,5.7,8.9c0-1.1-0.4-2-0.7-2.9c-0.3-0.9-0.3-1.8-0.3-2.3c1.3,1,2.4,1.9,3.6,2.8
			c0.3-0.3,0.5-0.6,0.8-0.9c-0.8-1-1.7-2-2.5-3.1c0.7-0.9,1.4-1.6,2.1-2.4c0.8,1.1,1.6,2.2,2.4,3.3c0.1-0.1,0.3-0.2,0.4-0.3
			c-1.2-2.4-2.4-4.8-3.6-7.2c0.2-0.1,0.4-0.2,0.7-0.3c0.7,0.9,1.3,1.8,2,2.7c0.4-0.3,0.8-0.6,1.2-1c-2.6-3.4-5-6.8-7.7-10
			c-0.6-0.8-1.9-1.3-2.9-1.3c-0.6,0-1.2,1.3-1.9,2.3C106.4,259.3,105.6,259.1,104.5,258.9z M207.3,123.4c0.4-0.4,0.7-0.8,1-1.2
			c-1-0.6-1.9-1.3-3-1.7c-2.6-1-5.4-1.8-7.9-2.8c-5.9-2.4-11.7-5-17.6-7.5c-1.8-0.8-3.8-1.3-5.7-1.9
			C183.1,118.5,194.1,123.6,207.3,123.4z M260.5,242.6c-1.4,1.3-2.6,2.5-3.8,3.6c-0.3-0.1-0.5-0.3-0.8-0.4c0-2.1,0-4.3,0-6.2
			c-1.5,1.9-3.1,4-4.7,6.1c0.6,0.1,1.1,0.1,2,0.3c-3.2,1.8-3.2,1.8-4.6-3.6c-0.4,0.7-0.7,1.1-1.4,2.2c0.2-2.3,0.3-3.8,0.4-5.4
			c-4.3,2.9-5.8,9-12.1,9.2c0.6,0.5,1,0.9,1.5,0.9c6.2-0.1,12.4-0.2,18.7-0.4c0.9,0,2.2-0.4,2.7-1.1
			C259.4,246.3,261.9,245.3,260.5,242.6z M144.9,233.9c0.1,0.3,0.1,0.6,0.2,0.8c1.4-0.4,3.4-0.4,4.3-1.4c2.1-2.2,3.7-0.6,6.4,0.1
			c-4.1,1.8-2.5,4.9-2.9,7.8c5.3-6.8,10.4-13.3,15.7-20.2C160.4,225.5,152.7,229.7,144.9,233.9z M99.3,326c1.1-2.7,1.7-4.9,2.9-6.5
			c0.4-0.6,2.4-0.1,2.4-1.8c0-2,0.1-4-0.5-5.9c-0.8-2.5-3.3-3.6-5.7-4.3c-0.8-0.2-1.9,0.8-2.9,1.2c-0.5,0.2-1,0.2-1.6,0.4
			c0,0.2,0,0.3,0,0.5c1,0.1,2,0.1,3,0.2c-0.2,3.6,5.1,4.5,4.2,8.7c-0.8-0.6-1.5-1.1-2.6-2c2.5,3.8,1.7,6.3-1.8,7.8
			c-0.1-0.3-0.2-0.6-0.2-0.9c-0.2,0-0.4,0-0.5,0c-0.1,1-0.2,2.1-0.3,3.2C97.3,326.4,98.7,326.1,99.3,326z M125.3,205.2
			c0-0.2,0-0.3,0-0.5c-6.8-1.2-13.6-2.4-20.4-3.6c-1-0.2-2.3-0.1-3.2,0.4c-3,1.7-6.1,1.9-9.2,0.7c-3.4-1.3-6.1,0.1-8.8,2
			c1.2,0.5,2.3,0.9,3.5,0.8c1.8-0.1,3.5-0.6,5.2-0.7c7.7-0.5,15.3-1.7,23,0.3C118.6,205.3,122,205,125.3,205.2z M85.5,352.7
			c1-0.5,2.4-0.9,3.2-1.8c2.4-2.6,4.7-5.4,7-8.2c0.2-0.3,0.4-0.7,0.4-1.1c-0.1-0.3-0.4-0.6-0.8-0.8c-0.2-0.1-0.6,0.1-0.8,0.2
			c1.1,3-1.6,0.9-2.2,1.6C89.6,345.7,84.1,346.7,85.5,352.7z M226.3,118.6c6.6,4.5,15.8,6.9,17.2,6c-0.4-0.9-0.8-1.8-1.4-3.1
			C237.5,120.7,232.3,119.7,226.3,118.6z M151.6,280.1c-0.2-0.3-0.4-0.5-0.6-0.8c-6,1.4-11.9,2.7-18.1,4.1c4.9,0.8,9.6,1,14.2-0.6
			C148.7,282.3,150.1,281,151.6,280.1z M203.1,160.4c-1.1,1.1-2.1,2.1-3.1,3.2c-0.9,1-1.6,2.1-2.3,3.3c-0.1,0.1,0.8,1.2,1,1.1
			c1.3-0.5,2.6-1.1,3.8-1.9c0.5-0.3,0.6-1.4,1.1-1.7C206.3,162.7,204.4,161.6,203.1,160.4z M132.5,46.6c0.1-0.3,0.1-0.6,0.2-0.9
			c-5.3-2.2-10.8-1.5-16.3-0.9c0,0.3,0,0.7-0.1,1C121.7,46.1,127.1,46.4,132.5,46.6z M185.7,337.2c-0.1-0.3-0.1-0.5-0.2-0.8
			c-5.7,0.5-11.4,0.9-16.5,3.6c0.1,0.3,0.1,0.6,0.2,0.9C174.7,339.7,180.2,338.4,185.7,337.2z M96.8,347.7c0.5-0.4,1.1-0.8,1.6-1.3
			c1.8-1.7,3.5-3.5,5.3-5.1c1.9-1.6,1.9-4,0-5.7C102.9,340.5,98.1,343,96.8,347.7z M86.7,181.3c2.2,2.1,2.2,2.1,8.5,2.1
			c-2.6-1.7-4.8-3.1-7-4.5C87.6,179.8,87.2,180.5,86.7,181.3z M121.5,290c-1.3,1.3-2.4,3.2-3.2,3.1c-1.2-0.2-2.2-1.8-3.6-3.1
			c0,3.9,3.8,4.3,5,7.2C120.4,294.3,120.9,292.2,121.5,290z M99.6,177.6c-0.2,0.5-0.3,1-0.5,1.5c1.9,0.8,3.8,1.5,6,2.4
			c0.5-0.4,1.3-0.9,2.1-1.5c0-0.3,0-0.6,0.1-1C104.7,178.6,102.1,178.1,99.6,177.6z M93.8,210.8c0,0.2-0.1,0.3-0.1,0.5
			c2.2,1.2,4.5,2.5,6.7,3.7c0.3-1,0.7-2.2,1.2-3.7C99,211.1,96.4,211,93.8,210.8z M74.3,274c-0.8-4.7-2.3-9.4-6.1-12.9
			C70.3,265.4,72.3,269.7,74.3,274z M115.2,340.7c0.4,0,0.7-0.1,1.1-0.1c-0.4-2.9-0.9-5.7-1.3-8.6c-0.3,0-0.5,0.1-0.8,0.1
			C113.5,335,112.9,338,115.2,340.7z M131.8,266.4c0.3-0.3,0.6-0.6,0.9-0.9c-1.1-1.3-2.2-3.5-3.2-3.5c-1.4,0-2.8,1.8-4.2,2.9
			c0.2,0.3,0.4,0.5,0.6,0.8c1.1-0.8,2.1-1.5,2.6-1.9C129.8,264.7,130.8,265.6,131.8,266.4z M175.4,239.3c0.6,0.5,1.2,0.9,1.8,1.4
			c1.1-1.2,2.1-2.4,3.2-3.5c-0.3-0.3-0.6-0.6-0.8-0.9c-0.6,0-1.2,0-2,0c0.2-1.3,0.4-2.4,0.6-3.5c-0.2,0-0.3-0.1-0.5-0.1
			C177,234.9,176.2,237.1,175.4,239.3z M124.5,122.9c-3.6-1.2-6.1,0.1-8.2,3.4C119.2,125.1,121.9,124,124.5,122.9z M235.4,224.6
			c5.1,1.9,5.7,1.7,7.9-1.4C240.9,223.6,238.5,224.1,235.4,224.6z M225.1,255c3.3,0.2,6.6,0.5,10,0.7
			C232,253.4,228.6,254.5,225.1,255z M73.3,243.8c-0.3,0.3-0.6,0.6-0.9,0.8c2.3,2.8,4.6,5.6,6.9,8.4c0.3-0.2,0.6-0.5,0.8-0.7
			c-1.9-2.1-3.8-4.2-5.6-6.4C74.1,245.3,73.7,244.5,73.3,243.8z M248.2,188.4c0.3,0.2,0.5,0.4,0.8,0.7c2-2.2,3.9-4.5,5.9-6.7
			c-0.3-0.2-0.5-0.4-0.7-0.6C252.2,183.9,250.2,186.1,248.2,188.4z M120.3,340.1c1.4-1.5,2.8-2.9,4.1-4.4c-0.3-0.3-0.5-0.5-0.8-0.8
			C122.9,337.2,118.7,335.6,120.3,340.1z M82.4,252.7c0.3-0.3,0.7-0.5,1-0.8c-1.1-1.6-2.3-3.1-3.4-4.7c-0.3,0.2-0.6,0.4-0.8,0.6
			C80.2,249.4,81.3,251.1,82.4,252.7z M70.1,75c-0.4-0.2-0.8-0.3-1.2-0.5c-0.8,2-1.5,4-2.3,6.1c0.3,0.1,0.5,0.2,0.8,0.3
			C68.3,78.9,69.2,77,70.1,75z"/>
		<path class="st2" d="M205.6,195.7c0.2-2.4,0.3-4.8,0.8-7.1c0.2-0.9,1.4-1.5,2.3-2.5c0-1.9,0-4.6,0-8.2c-4.2,3.5-7.6,6.4-11.1,9.4
			c-0.1-1.4-0.3-2.6-0.3-3.3c-2.4,0.1-4.6,0.3-7.5,0.5c0.5-2,1-3.7,1.4-5.1c2.5,0.7,4.6,1.5,6.8,1.7c6.1,0.7,11.6-4.1,11.6-10.2
			c-0.1-4.1-0.7-8.3-1.1-12.8c-1.1,0.5-1.7,0.7-2.3,1c-0.1-0.5-0.5-1.2-0.4-1.6c2-3.9-1.6-5.7-2.4-8.6c-0.3,0-0.5,0.1-0.8,0.1
			c-0.1,0.6-0.2,1.2-0.5,2.6c-0.5-1.2-0.8-1.9-1.1-2.6c-0.2,0.2-0.5,0.3-0.7,0.5c0,0.5,0,1,0,1.5c-0.3-0.1-0.7-0.1-0.9-0.3
			c-1.9-1.9-4.4-3.3-2.4-6.9c0.5-0.9-1.1-3.3-2.1-4.7c-1.6-2.3-3.4-4.4-5.1-6.6c-0.3-0.4-0.4-0.9-0.6-1.3c-0.4-1.2-0.7-2.5-1.4-3.8
			c0.5-2.3,1.8-1.4,3.2-0.4c0.7,0.5,1.5,0.7,2.2,1.1c0.2-0.4,0.4-0.7,0.6-1.1c-2.7-1.7-5.3-3.3-8.4-5.2c11.3,2.2,21.9,5.2,33.5,2.7
			c-1.1-1.2-2-2.2-2.9-3.2c0.2-0.1,0.4-0.4,0.4-0.3c6.8,3.8,13.8,7.4,20.4,11.5c2.4,1.5,5.9,2.2,6.8,5.7c0.1,0.3,1,0.7,1.2,0.5
			c2.1-1.4,2.1,0.3,2.6,1.6c0.6,1.4,1.5,2.8,2.6,3.8c1.5,1.4,1.9,2.9,1.7,5c-0.1,1.4,0.7,2.8,1,4.3c0.2,0.8,0.2,1.6,0.3,2.5
			c-0.7,0.1-1.5,0.1-1.6,0.1c-0.2,2.9-0.3,5.8-0.5,9c-0.9-0.4-1.3-0.6-1.9-0.9c-0.1,1.4-0.2,2.8-0.3,4.1c-0.1,0-0.3,0.1-0.4,0.1
			c-0.3-0.7-0.5-1.4-0.8-2.2c-0.4,0.2-0.7,0.4-1.3,0.9c0-1.5,0-2.9,0-4.2c-0.2,0-0.4,0-0.6,0c-0.2,2.1-0.4,4.3-0.7,7
			c-0.5-1.3-0.8-2.1-1.1-3c-0.9,2.6-1.7,5.1-2.8,8.6c-0.5-1.7-0.7-2.5-1-3.6c-3.9,0.3-1.8-3.4-3.2-5.3c-0.8,0.4-1.6,0.8-2.7,1.4
			c0-2.5,0-4.8,0-7.1c-0.2,0-0.4,0-0.6,0c-0.4,2-0.6,4-1.1,6c-0.6,2.1-0.8,4.3-3,6c-1.4,1-1.7,3.6-2.7,5.9c0-1.9,0.6-3.9-0.1-4.6
			c-3.7-3.6,0.2-7.9-1.4-11.7c-0.5-1.2-0.5-2.6-1.4-3.9c0.2,1.8,0.3,3.5,0.5,5.2c-0.1,0-0.3,0.1-0.4,0.1c-0.1-0.6-0.3-1.3-0.5-2.1
			c-1.2,6.2-2.3,12-3.5,17.9c-0.2,0-0.4-0.1-0.7-0.1c0.3-2.4,1.1-4.9,0.9-7.3c-0.6-5-1.6-10-2.6-15c-0.3-1.5-4.7-3.3-6.1-2.8
			c-1.4-2.2-2.7-4.4-4.1-6.6c-0.3,0.1-0.7,0.2-1,0.3c0.2,1.2,0.2,2.5,0.5,3.7c0.6,1.9,1.5,3.6,2,5.5c0.7,2.8,1.2,5.6,1.8,8.5
			c0.3,1.7,1.4,4.4,0.6,5c-2.9,2.7-0.4,5.8-1.8,8.4c0.4,0.1,0.7,0.1,1.1,0.2c0.3-2,0.6-3.9,0.9-5.6c4.1,4.4,1.1,9-0.8,13.6
			c0.5,0.3,0.9,0.6,1.4,0.9c0.2-0.6,0.4-1.3,0.6-1.9c-0.7,1.9-1.4,3.9-2.2,5.8c-1,2.6-2,5.2-3.3,7.7c-0.8,1.5-2.1,2.7-3.9,3.9
			c0.7-2.4,1.4-4.9,2.1-7.3c0.3,0.2,0.6,0.5,0.8,0.7c0.8-1.6,1.6-3.3,2.3-4.9c-0.3-0.2-0.5-0.3-0.8-0.5
			C207.2,193.2,206.4,194.4,205.6,195.7z M197.5,128.4c-0.1,0.2-0.3,0.4-0.4,0.6c1,0.7,2,1.4,3,2.2c0.9,0.7,1.6,1.6,2.4,2.4
			C202.4,130,199.7,129.6,197.5,128.4z"/>
		<path class="st2" d="M46.5,139.5c0.3-3.3,0.5-6.6,0.8-9.8c-0.7,1-1.6,2.2-2.6,3.4c-0.1-0.1-0.2-0.1-0.3-0.2c0.8-1.5,1.6-3,2.5-4.7
			c-1-0.5-1.8-0.7-2.3-1.2c-0.4-0.4-0.8-1.2-0.8-1.8c0-0.5,0.6-1.3,0.9-1.3c3.5,0.5,4.2-2.6,6-4.4c0.4-0.4,0.7-0.9,0.8-1.7
			c-1.8,1.4-3.5,2.8-5.3,4.2c-0.2-0.2-0.4-0.4-0.6-0.6c1.9-3.9,4.9-6.8,8.5-9c-1.7-4.1-1.7-4.1,2.6-10.4c-1.5,0.6-2.7,1-3.9,1.4
			c-4.1-5.2-3.8-3.9,2-12.7c-0.6-0.7-1.2-1.4-1.8-2.1c1.8-4.6,3.4-9.2,5.3-13.7c0.3-0.7,1.5-1.1,2.6-1.8c-1.4,5.2-2.6,9.6-3.7,14.1
			c-0.1,0.4,0.2,0.9,0.2,1.3c0.5-0.2,1-0.4,1.6-0.7c-0.4,1.4-0.8,2.8-1.3,4.6c0.8-0.7,1.3-1,1.6-1.3c0.3,1.4,0.7,2.9,1.1,4.6
			c1.3-2.3,2.5-4.5,3.7-6.7c0.2,0.1,0.4,0.1,0.6,0.2c-0.6,16.2-1.3,32.5-2,49.8c2.3-3.4,2.8-0.9,3.4-0.2c2-1.1,3.7-2,5.2-3.1
			c0.7-0.5,1.4-1.5,1.4-2.2c0-0.6-1.1-1.3-1.9-1.6c-1.2-0.4-2.4-0.4-3.8-0.6c2.4-3.4,10.1-2.3,15.4,2.4c-2.7-0.6-5.3-1.2-8-1.9
			c-0.1,0.2-0.3,0.4-0.4,0.6c1.1,0.8,2.1,1.8,3.3,2.3c2.4,0.9,4.9,1.5,7.3,2.4c3.6,1.3,6.5,5.5,6.2,9.2c0,0.6-1.1,1.4-1.7,1.5
			c-1.4,0.2-2.9,0-4.4,0.1c-7.2,0.8-8.6-0.8-6.8-7.6c-2.7-0.2-6.2,1.6-6.9,4c-0.3,1.1,0.3,2.4,0.5,3.6c-1.9-0.3-4.6-0.5-4.1-4.1
			c-2.3-0.1-3.2,0.9-3,2.9c0.4,4.2,0.1,8.2-1.7,12.2c-0.8,1.7-1.8,3.9,0.5,5.9c0.5,0.4-0.2,2.4-0.5,4.2c-0.7-1-1.1-1.5-1.5-2.1
			c-0.3,0-0.6,0-0.9,0.1c0,2.6,0,5.1,0,7.7c0,1.3-0.3,2.7-0.4,4l0.2,0c-0.3-2.6-0.6-5.2-1-7.8c-0.3-2.8-0.8-5.7-1-8.5
			c-0.3-3.6,0.2-7.1,2.2-10.3c0.5-0.8,0.5-1.8,0.8-2.7c-0.3-0.1-0.5-0.3-0.8-0.4c-0.8,1.1-1.7,2.1-2.8,3.6c0-1.8,0-3,0-4.2
			c-0.3,0-0.5-0.1-0.8-0.1c-0.3,1.5-0.6,3-0.9,4.9c-0.3,0.1-0.9,0.3-1.5,0.5c0.2,1.9,0.3,3.5,0.5,5.1c-2.8-6.2-3.2-12.5-0.7-18.8
			c-0.9-0.5-1.7-0.9-2.2-1.1c-0.2,1.3-0.3,2.9-0.8,4.3c-0.5,1.3-1.6,2.3-2.5,3.5c-0.3-0.2-0.6-0.4-1-0.5c0.4-1.8,0.8-3.5,1.3-5.4
			c-0.6,0-1.3,0-1.9,0c2.6-0.5,3.1-2.8,3.9-4.8c0-0.1-0.8-0.5-1.2-0.7c1.4-1.8,1.9-3.4-0.3-4.6C48.3,133.8,47.4,136.7,46.5,139.5z
			 M75.8,138.4c-2.1-1.9-3.9-1.5-5.5,1.1C71.9,139.1,73.6,138.8,75.8,138.4z"/>
		<path class="st2" d="M59.9,179l-0.2,0c1.1,1.2,2.6,2.3,3.3,3.7c3.4,7.1,6.6,14.3,10,21.4c3.1,6.8,6.3,13.6,9.4,20.3
			c1.4,3.1,2.3,6.6,4.3,9.4c3.9,5.4,9.6,8,16.2,8.2c4.7,0.1,9.4,0,14-0.4c3.4-0.3,5.9,1,7.4,3.9c1.6,3.1,3,6.4,4.2,9.7
			c1.1,2.9-0.6,4-3.5,5.1c-4.5,1.7-6.1-3-9.5-3.4c0,0,0-0.8,0.1-1.3c-0.8,0.1-1.7,0.6-2.2,0.3c-1.2-0.6-2.4-1.4-3.3-2.4
			c-1-1.1-1.6-2.5-2.4-3.8c0.3-0.1,0.6-0.2,0.8-0.3c-0.5,1.1-1,2.3-1.5,3.5c-0.5-0.4-0.9-0.9-1.4-1.3c-0.1-0.7-0.1-1.3-0.3-2.9
			c-1.3,0.9-2.2,1.6-3.6,2.6c-1.6,0,1.4-5.1-1.8-3.8c-1.1-1.3-2-2.2-2.9-3.2c-0.8,0.8-1.7,1.6-2.4,2.5c-1,1.3-1.8,1.7-2.9,0.1
			c-1.2-1.7-2.7-3.1-4.2-4.9c0.1,2.1,0.1,3.7,0.3,5.2c0.1,0.8,0.9,1.5,1,2.3c0.1,0.7-0.1,1.4-0.2,2.1c0,0,0.1,0,0.1,0
			c-0.6-1.4-1-3-1.9-4.3c-1.6-2.2-3.5-4.1-5.4-6.1c-0.2-0.3-0.9-0.4-1.3-0.2c-2,0.8-2.2,0.1-1.9-1.8c0.1-0.6-0.6-1.6-1.2-2.2
			c-2.7-2.8-2.9-6.4-3.4-9.9c-0.1-0.5,1.1-1.1,1.2-1.7c0.2-1.8,0.2-3.6,0.3-5.4c-0.4,0-0.7,0-1.1,0c0,1.3,0,2.6,0,3.9
			c-0.4,0-0.7,0.1-1.1,0.1c-0.4-2.5-0.7-5-1.1-7.3c-0.9,0.9-1.8,1.7-2.6,2.5c0.4-2.3,2.2-4.7-0.5-7c-0.7,2.4-1.3,4.7,0.5,6.9
			c0,1.8,0,3.5,0,5.3c-0.5,0-1,0-1.5,0.1c-0.3-5.7-0.7-11.4-0.9-17.2c-0.2-4.1-0.1-8.1-0.2-12.2c0-0.4,0-0.8-0.2-1.2
			c-2.2-4.3-4.4-8.5-6.5-12.9C59.9,180.6,60,179.7,59.9,179z M79.9,237.9c1.8-2.9,2.1-5.1,0.9-7.2c-0.3-0.6-1.7-0.5-3.1-0.9
			C78.6,232.8,79.2,234.9,79.9,237.9z"/>
		<path class="st2" d="M121.6,145.4c1.9,0.3,3,0.5,4.1,0.6c0,0.2,0,0.3-0.1,0.5c-2.2,0-4.4,0-6.9,0c0.6-1.7,1.1-3,1.7-4.6
			c-1.6,0.2-2.9,0.3-4.7,0.5c0.2-0.6,0.3-1.8,0.7-1.9c3.3-0.8,5.1-3.3,7.3-5.5c5.1-5.2,11.6-4.7,17.9-3.1c2.8,0.7,5.4,2.5,7.9,4.4
			c-7.4-2.3-14.7-5.4-22.2,0.1c8.8-2.5,16,0.3,22.6,6.1c-1.6,0-3.2,0-4.9,0c-0.5-0.6-1.1-1.4-1.6-2c-0.9,1.7-1.3,4.2-2.5,4.7
			c-2.5,1-5.4,1.1-8.1,1.1c-2.1,0-3.2-3.6-2.4-8.3C127.2,140.7,124.7,142.9,121.6,145.4z"/>
		<path class="st2" d="M166.7,83.1c5.3,3.5,10.6,7,15.8,10.5c0.1-0.2,0.3-0.3,0.4-0.5c-1.2-1.1-2.3-2.2-3.5-3.3
			c0.1-0.2,0.3-0.4,0.4-0.5c2.5,1.7,5.1,3.3,8.1,5.3c-0.1-1.2-0.2-1.8-0.3-2.4c8.3,8.9,16.6,17.8,24.7,26.5c-1,0.1-2.4,0.2-3.8,0.3
			c-3.9,0.3-9.4-3.1-11.3-6.6c-1.3-2.3-3.9-4-4.8-6.4c-1.1-2.9-3.4-3.8-5.7-4.8c-0.1-0.1-0.4,0-0.7,0.1c0.3,0.5,0.6,0.9,0.9,1.4
			c-0.1,0.1-0.1,0.2-0.2,0.3c-0.8-0.6-1.9-1.1-2.4-1.8c-3.5-5.6-8.9-9.3-13.9-13.4c-1.5-1.3-2.8-2.8-4.3-4.3
			C166.3,83.4,166.5,83.3,166.7,83.1z"/>
		<path class="st2" d="M57.7,202.1c-0.1,0.6,0.1,1.5-0.3,1.9c-2.6,3-0.3,6.6-1.6,9.9c-0.6,0.4-1.5,1.1-3.3,2.3
			c4.4-13.9,1.7-26.8-1.5-39.7c-0.3,0-0.7,0.1-1,0.1c0.2,1,0.3,2,0.5,3c-0.2,0.1-0.4,0.1-0.7,0.1c-0.2-1.1-0.8-2.4-0.4-3.2
			c1.6-3.4,0-6.6-0.5-9.8c-0.7-4.5-1.5-9-2.2-13.5c-0.1-0.7,0.4-1.4,0.8-2.9c0.5,1.3,0.9,1.9,0.9,2.4c-0.3,8.1,2.2,15.3,5.8,22.4
			c2.1,4.1,2.8,8.9,3.4,13.5c0.2,1.5,0.6,3,1.5,4.5c0.1-1,0.2-2,0.3-2.9c1.4,5.4,2.6,10.7-0.2,16.8c-0.5-2.1-0.8-3.6-1.2-5
			C58,202.1,57.8,202.1,57.7,202.1z"/>
		<path class="st2" d="M84.8,280.7c-0.5,0.7-1.1,1.5-1.6,2.2c-0.4,0-0.7,0-1.1,0c-0.5-1.8-0.9-3.6-1.4-5.4c-0.3-1.1-0.7-2.6-1.5-3
			c-3.6-1.9-4.1-5.2-4.3-8.7c0-0.3,0.4-0.7,0.7-1c0.3,0.3,0.6,0.5,0.8,0.9c1,1.5,2,3,3.1,4.5c0.3-0.2,0.6-0.3,0.9-0.5
			c-1.2-2.8-2.4-5.6-3.8-8.7c4.5-0.4,4.4,3.5,6.2,5.3c1.9,1.8,3.1,4.4,4.7,6.6c0.6,0.8,1.5-3.4,1.8,0c0.1,0.7-0.4,1.5-0.7,2.9
			c1.2-1.1,1.9-1.8,2.9-2.8c-0.6,3.5-1.1,6.5-1.6,9.5c0,0-0.1,0.1-0.2,0.2C88,282,86.4,281.4,84.8,280.7z"/>
		<path class="st2" d="M104.5,258.9c1.1,0.3,1.9,0.5,2.3,0.6c0.7-0.9,1.3-2.2,1.9-2.3c1,0,2.3,0.5,2.9,1.3c2.7,3.3,5.2,6.7,7.7,10
			c-0.4,0.3-0.8,0.6-1.2,1c-0.7-0.9-1.3-1.8-2-2.7c-0.2,0.1-0.4,0.2-0.7,0.3c1.2,2.4,2.4,4.8,3.6,7.2c-0.1,0.1-0.3,0.2-0.4,0.3
			c-0.8-1.1-1.6-2.2-2.4-3.3c-0.7,0.8-1.3,1.6-2.1,2.4c0.9,1.1,1.7,2.1,2.5,3.1c-0.3,0.3-0.5,0.6-0.8,0.9c-1.2-0.9-2.3-1.9-3.6-2.8
			c0.1,0.5,0.1,1.4,0.3,2.3c0.3,0.9,0.7,1.8,0.7,2.9c-1.8-2.9-3.7-5.8-5.7-8.9c1.2,0.8,2.3,1.5,3.4,2.3c0.2-0.1,0.4-0.2,0.6-0.4
			c-1.2-1.8-2.1-3.9-3.6-5.2C105.3,265.5,104.5,262.6,104.5,258.9z"/>
		<path class="st2" d="M227.1,217c-2.6-3.1-6.6-2.6-10-3.6c0.1-0.5,0.1-0.8,0.2-0.9c3.9-1.7,6.9-4.6,9.9-7.6
			c0.5-0.5,1.1-0.9,1.7-1.2c4-1.6,8.1-3.2,12.1-4.8c0.5-0.2,0.7-1,1.5-2.1c0.5,0.8,1,1.6,1.5,2.3l0-0.1c-1.6,1.3-3.2,2.6-4.8,3.9
			c-0.4,0.4-0.9,0.8-1.5,1.3c0.6,0.3,1.1,0.6,2.1,1.1c-1.4,1-2.6,1.8-3.9,2.7c-1.7-1.7-2.9-1.3-4.4,1.7c-0.7,1.4-1.5,2.8-1.9,4.3
			c-0.2,0.8,0.4,1.8,0.6,2.8c-0.9,0.1-1.8,0.1-2.6,0.2c-0.1-0.7,0-1.8-0.3-1.9c-1.9-0.6-1.9-1.6-1.1-3.1c0.3-0.5,0.5-1.1,0.7-1.6
			c-0.1-0.1-0.2-0.1-0.4-0.2c-0.7,0.6-1.4,1.3-2.4,2.2C225.2,213.9,226.1,215.4,227.1,217z"/>
		<path class="st2" d="M207.3,123.4c-13.2,0.2-24.2-4.9-33.2-15c1.9,0.6,3.9,1.1,5.7,1.9c5.9,2.4,11.7,5,17.6,7.5
			c2.6,1.1,5.3,1.8,7.9,2.8c1.1,0.4,2,1.1,3,1.7C208,122.7,207.7,123,207.3,123.4z"/>
		<path class="st2" d="M199.2,237.5c-0.4-0.1-0.7-0.1-1.1-0.2c0.7-3.2,1.3-6.4,3.5-9c3.8-4.4,7.6-8.8,11.7-13.5
			c1.7,1.4,3.9,3.2,5.9,4.8c-2.9,4.9-7.8,6.5-11.7,9.4C204.3,231.4,201.9,234.7,199.2,237.5L199.2,237.5z"/>
		<path class="st2" d="M199.1,237.6c0.7,0.5,1.4,1.1,2.2,1.6c3.9-3.1,6.4-9,13.6-7.9c-1.9,1.6-3.8,3.1-5.7,4.7
			c1.4-0.1,2.7-0.4,1.8,2.5c4.4-1.6,8.1-3,12.4-4.7c-1.2,1.6-1.9,3.2-3.2,4.1c-5.7,4.3-12.3,3.9-18.8,3.5c-1.3-0.1-2.7-0.3-4.3-0.4
			c-0.1,0.3-0.3,1-0.5,2C195.7,240.5,195.7,240.5,199.1,237.6C199.2,237.5,199.1,237.6,199.1,237.6z"/>
		<path class="st2" d="M260.5,242.6c1.4,2.8-1,3.8-2.1,5.1c-0.5,0.7-1.8,1.1-2.7,1.1c-6.2,0.2-12.4,0.3-18.7,0.4
			c-0.4,0-0.9-0.3-1.5-0.9c6.3-0.2,7.8-6.3,12.1-9.2c-0.1,1.6-0.2,3.1-0.4,5.4c0.7-1.1,1-1.5,1.4-2.2c1.4,5.5,1.4,5.5,4.6,3.6
			c-0.9-0.1-1.4-0.2-2-0.3c1.6-2.1,3.2-4.1,4.7-6.1c0,1.9,0,4.1,0,6.2c0.3,0.1,0.5,0.3,0.8,0.4C257.9,245,259.1,243.9,260.5,242.6z"
			/>
		<path class="st2" d="M88.7,251.7C88.7,251.7,88.6,251.7,88.7,251.7c2.3,4.2,4.6,8.5,7.1,12.7c1.6,2.8,1.5,5.8,1,8.8
			c-0.6,3.4-1.6,6.6-2.4,9.8c-0.7-3.6-2.2-7.4,1.3-11.3c-2,0-2.8,0-3.2,0c-2.1-4.9-4.1-9.6-6.1-14.4c0.2-0.1,0.4-0.2,0.6-0.2
			c0.7,1.1,1.3,2.4,2.1,3.3c0.5,0.5,1.4,0.6,2.1,0.9c0-0.7,0.2-1.5-0.1-2c-2-3.2-4.2-6.4-6.6-9.9C86.1,250.1,87.4,250.9,88.7,251.7z
			"/>
		<path class="st2" d="M212.9,186.5c-0.2,0.6-0.4,1.3-0.6,1.9c-0.5-0.3-0.9-0.6-1.4-0.9c2-4.6,4.9-9.2,0.8-13.6
			c-0.3,1.7-0.6,3.6-0.9,5.6c-0.4-0.1-0.7-0.1-1.1-0.2c1.4-2.6-1.1-5.7,1.8-8.4c0.7-0.7-0.3-3.3-0.6-5c-0.5-2.8-1-5.7-1.8-8.5
			c-0.5-1.9-1.5-3.7-2-5.5c-0.4-1.2-0.4-2.5-0.5-3.7c0.3-0.1,0.7-0.2,1-0.3c1.4,2.2,2.7,4.4,4.1,6.6c0,0.1,0,0.2,0,0.4
			c1.2,4.9,2.4,9.8,3.6,14.7c-0.4,0.1-0.7,0.2-1.1,0.3c-0.2-1.1-0.4-2.3-0.8-4.2c-0.2,1.1-0.3,1.4-0.3,1.7c0.6,2.9-0.8,6,1.6,8.9
			c0.9,1.1,0,3.8-0.1,5.8C214.1,183.5,213.5,185,212.9,186.5z"/>
		<path class="st2" d="M144.9,233.9c7.8-4.2,15.5-8.4,23.8-12.8c-5.4,6.9-10.4,13.4-15.7,20.2c0.4-2.9-1.2-6,2.9-7.8
			c-2.7-0.8-4.3-2.3-6.4-0.1c-0.9,0.9-2.8,0.9-4.3,1.4C145.1,234.4,145,234.2,144.9,233.9z"/>
		<path class="st2" d="M89.3,48.7c-2.7,2.3-4.8,5.4-8.7,5.7c-0.6,0-1.1-0.3-1.1-0.3c-0.8,0.8-1.3,1.7-2.1,2.1
			c-2.4,1.1-4.9,2.1-7.5,3c-0.5,0.2-1.2,0-1.8,0c0.2-0.7,0.1-1.8,0.6-2.1c2.1-1.5,4.3-2.8,6.5-4.1c0.6-0.4,1.1-0.9,1.7-1.3
			c1.4-0.8,2.8-1.7,4.3-2.2c2-0.7,4.1-1,6.1-1.5c0-0.3-0.1-0.5-0.1-0.8C87.8,47.7,88.5,48.2,89.3,48.7
			C89.2,48.6,89.2,48.6,89.3,48.7z"/>
		<path class="st2" d="M99.3,326c-0.6,0.1-2,0.4-3.6,0.7c0.1-1.1,0.2-2.1,0.3-3.2c0.2,0,0.4,0,0.5,0c0.1,0.3,0.2,0.6,0.2,0.9
			c3.5-1.6,4.2-4,1.8-7.8c1.1,0.8,1.8,1.3,2.6,2c0.9-4.2-4.3-5.1-4.2-8.7c-1-0.1-2-0.1-3-0.2c0-0.2,0-0.3,0-0.5
			c0.5-0.1,1.1-0.2,1.6-0.4c1-0.4,2.1-1.4,2.9-1.2c2.4,0.6,4.8,1.7,5.7,4.3c0.6,1.8,0.5,3.9,0.5,5.9c0,1.7-2,1.2-2.4,1.8
			C101,321.1,100.4,323.3,99.3,326z"/>
		<path class="st2" d="M78.8,63.9c-0.2,0.4-0.3,1.2-0.6,1.3c-4,1.2-8,2.3-12.5,3.6c1-3.3,2-5.5,4.9-6.3c4.3-1.2,8.7-2.3,13-3.6
			c0.9-0.3,1.6-1.1,2.4-1.6c0.2,0.2,0.4,0.3,0.6,0.5c-0.7,0.6-1.2,1.7-1.9,1.8c-2.5,0.4-4.4,1.5-5.7,3.7
			C78.9,63.4,78.9,63.7,78.8,63.9z"/>
		<path class="st2" d="M125.3,205.2c-3.3-0.2-6.7,0.2-9.9-0.6c-7.7-2-15.4-0.7-23-0.3c-1.8,0.1-3.5,0.6-5.2,0.7
			c-1.2,0.1-2.3-0.3-3.5-0.8c2.8-1.9,5.5-3.3,8.8-2c3.1,1.2,6.2,1,9.2-0.7c0.9-0.5,2.1-0.5,3.2-0.4c6.8,1.1,13.6,2.4,20.4,3.6
			C125.3,204.8,125.3,205,125.3,205.2z"/>
		<path class="st2" d="M214.7,182c0.1-2,1-4.7,0.1-5.8c-2.5-2.9-1.1-6-1.6-8.9c-0.1-0.3,0.1-0.6,0.3-1.7c0.4,1.9,0.6,3.1,0.8,4.2
			c0.4-0.1,0.7-0.2,1.1-0.3c-1.2-4.9-2.4-9.8-3.6-14.7c2.8,2.1,3.8,5.4,4.4,8.5c0.8,3.8,0.9,7.8,0.8,11.7c0,2.3-0.9,4.6-1.4,6.8
			C215.5,182,215,182,214.7,182z"/>
		<path class="st2" d="M78.9,43.9c1.4-0.8,2.7-1.6,4.1-2.4c1.4-0.8,2.8-1.6,4.2-2.4c0,0.1,0,0.5,0,0.8c4.2-1.5,8.5-3,12.9-4.5
			c0.2,0.5,0.3,1,0.5,1.4c-5,1.9-10.1,3.7-15.1,5.6c-1.2,0.4-2.3,1-3.3,1.7c-3,2-5.9,4-8.9,6.1c-0.2-0.2-0.3-0.5-0.5-0.7
			c1.9-1.7,3.9-3.3,5.8-5C78.6,44.2,78.8,44,78.9,43.9z"/>
		<path class="st2" d="M167.7,237.7c-0.6,0.4-1.3,0.7-1.9,1c1.6-8,5-14.4,13.3-17.2c-2.6,3.5-5.2,7-7.9,10.6
			C169.2,231.9,167.9,233.6,167.7,237.7L167.7,237.7z"/>
		<path class="st2" d="M85.5,352.7c-1.4-6,4-7.1,6.8-10.1c0.6-0.6,3.2,1.5,2.2-1.6c0.3-0.1,0.6-0.3,0.8-0.2c0.3,0.1,0.7,0.5,0.8,0.8
			c0.1,0.3-0.2,0.8-0.4,1.1c-2.3,2.8-4.5,5.6-7,8.2C87.9,351.9,86.5,352.2,85.5,352.7z"/>
		<path class="st2" d="M230.4,191.9c0.6,3.3-1.3,5.4-3.4,7.5c-2,2-3.9,3.9-6.5,5.5c0-0.5-0.1-1.1,0.1-1.5c2.6-3.7,5.2-7.4,7.9-11
			c0.3-0.5,1.3-0.5,2-0.7C230.5,191.7,230.5,191.8,230.4,191.9z"/>
		<path class="st2" d="M226.3,118.6c6,1.1,11.2,2.1,15.8,2.9c0.6,1.3,1,2.2,1.4,3.1C242.1,125.5,232.8,123.1,226.3,118.6z"/>
		<path class="st2" d="M151.6,280.1c-1.5,0.9-2.8,2.2-4.4,2.7c-4.6,1.6-9.4,1.5-14.2,0.6c6.1-1.4,12.1-2.8,18.1-4.1
			C151.1,279.6,151.3,279.9,151.6,280.1z"/>
		<path class="st2" d="M104.9,331.8c-0.4-0.8-0.7-1.5-1.1-2.3c-5-0.7-4.6,5.4-7.8,6.8c-0.3-0.3-0.6-0.5-0.9-0.8
			c2.7-4,5.4-8,8.5-12.5C105.4,326.2,104.6,329.1,104.9,331.8L104.9,331.8z"/>
		<path class="st2" d="M244,199c0.9,1.4,1.7,2.9,2.9,4.7c0.3-1.2,0.4-1.7,0.6-2.3c1.4,1.5,2.5,3.1,3.9,4.1c1.3,1,3,1.4,4.5,2.4
			c-4.3,1.3-7.6-2.1-11.6-1.8c0-0.3,0.1-0.6,0.1-0.9c0.6-0.1,1.2-0.1,1.3-0.1C245.1,203,244.6,201,244,199
			C244.1,199,244,199,244,199z"/>
		<path class="st2" d="M167.6,237.8c0.8,0.3,1.6,0.5,2.3,0.8c1.7,0.7,3.3,1.5,5.3,2.4c0.2,2.3-3.2,3.4-7.5,1.9
			C167.7,241.1,167.7,239.4,167.6,237.8C167.7,237.7,167.6,237.8,167.6,237.8z"/>
		<path class="st2" d="M203.1,160.4c1.3,1.3,3.2,2.3,0.5,4c-0.5,0.3-0.6,1.4-1.1,1.7c-1.2,0.8-2.5,1.4-3.8,1.9c-0.2,0.1-1.1-1-1-1.1
			c0.7-1.1,1.4-2.3,2.3-3.3C201,162.5,202.1,161.5,203.1,160.4z"/>
		<path class="st2" d="M132.5,46.6c-5.4-0.3-10.8-0.5-16.2-0.8c0-0.3,0-0.7,0.1-1c5.5-0.5,11-1.3,16.3,0.9
			C132.6,46,132.6,46.3,132.5,46.6z"/>
		<path class="st2" d="M185.7,337.2c-5.5,1.2-11,2.5-16.5,3.7c-0.1-0.3-0.1-0.6-0.2-0.9c5.2-2.7,10.9-3.1,16.5-3.6
			C185.6,336.7,185.6,337,185.7,337.2z"/>
		<path class="st2" d="M96.8,347.7c1.3-4.7,6.1-7.2,6.9-12c1.9,1.7,1.8,4,0,5.7c-1.8,1.6-3.6,3.4-5.3,5.1
			C97.8,346.9,97.3,347.3,96.8,347.7z"/>
		<path class="st2" d="M46.5,139.5c0.9-2.9,1.8-5.7,2.7-8.7c2.2,1.1,1.8,2.8,0.3,4.6c0.5,0.3,1.2,0.6,1.2,0.7
			c-0.8,2-1.3,4.3-3.9,4.8C46.7,140.4,46.6,140,46.5,139.5z"/>
		<path class="st2" d="M86.7,181.3c0.5-0.8,0.9-1.5,1.4-2.4c2.2,1.4,4.4,2.8,7,4.5C88.9,183.4,88.9,183.4,86.7,181.3z"/>
		<path class="st2" d="M84.8,280.7c1.6,0.7,3.2,1.3,4.8,2c-0.6,1.2-1.2,2.4-1.8,3.5c-0.2-0.1-0.2-0.2-0.3-0.2
			C85.3,284.9,84.5,283.1,84.8,280.7z"/>
		<path class="st2" d="M87.5,286c0,0,0.1,0.1,0.3,0.2c0,0.2,0,0.3,0,0.3c1.8,3.1,0.5,5.5-4.3,5.9C85,290,86.2,288,87.5,286z"/>
		<path class="st2" d="M121.5,290c-0.6,2.2-1.1,4.3-1.9,7.1c-1.2-2.9-5-3.3-5-7.2c1.4,1.3,2.4,2.9,3.6,3.1
			C119.1,293.1,120.2,291.2,121.5,290z"/>
		<path class="st2" d="M99.6,177.6c2.6,0.5,5.1,0.9,7.7,1.4c0,0.3,0,0.6-0.1,1c-0.8,0.6-1.6,1.1-2.1,1.5c-2.2-0.9-4.1-1.6-6-2.4
			C99.3,178.6,99.4,178.1,99.6,177.6z"/>
		<path class="st2" d="M93.8,210.8c2.6,0.1,5.1,0.3,7.8,0.4c-0.5,1.6-0.9,2.8-1.2,3.7c-2.2-1.2-4.4-2.5-6.7-3.7
			C93.8,211.1,93.8,211,93.8,210.8z"/>
		<path class="st2" d="M74.3,274c-2-4.3-4.1-8.6-6.1-12.9C72,264.6,73.5,269.3,74.3,274z"/>
		<path class="st2" d="M115.2,340.7c-2.3-2.7-1.7-5.6-1-8.6c0.3,0,0.5-0.1,0.8-0.1c0.4,2.9,0.9,5.7,1.3,8.6
			C115.9,340.6,115.6,340.6,115.2,340.7z"/>
		<path class="st2" d="M131.8,266.4c-1-0.8-2-1.7-3.2-2.6c-0.5,0.4-1.6,1.2-2.6,1.9c-0.2-0.3-0.4-0.5-0.6-0.8c1.4-1,2.8-2.9,4.2-2.9
			c1.1,0,2.1,2.3,3.2,3.5C132.4,265.8,132.1,266.1,131.8,266.4z"/>
		<path class="st2" d="M175.4,239.3c0.8-2.2,1.6-4.5,2.4-6.7c0.2,0,0.3,0.1,0.5,0.1c-0.2,1.1-0.4,2.2-0.6,3.5c0.8,0,1.4,0,2,0
			c0.3,0.3,0.6,0.6,0.8,0.9c-1.1,1.2-2.1,2.4-3.2,3.5C176.6,240.3,176,239.8,175.4,239.3z"/>
		<path class="st2" d="M124.5,122.9c-2.7,1.1-5.3,2.2-8.2,3.4C118.4,122.9,120.9,121.7,124.5,122.9z"/>
		<path class="st2" d="M87.8,286.5c0,0,0-0.1,0-0.3c0.6-1.2,1.2-2.4,1.8-3.5c0.1-0.1,0.2-0.2,0.2-0.2c0.7-0.4,1.5-0.8,2.3-1.3
			C92.1,286,90.8,287.4,87.8,286.5z"/>
		<path class="st2" d="M89.3,48.7C89.2,48.6,89.2,48.6,89.3,48.7c0.1-0.7,0.2-1.7,0.6-1.8c2.2-0.5,4.4-0.9,6.6-1.3
			c0.1,0.3,0.1,0.5,0.2,0.8C94.2,47.2,91.7,47.9,89.3,48.7z"/>
		<path class="st2" d="M235.4,224.6c3.1-0.5,5.4-1,7.9-1.4C241.1,226.3,240.5,226.5,235.4,224.6z"/>
		<path class="st2" d="M225.1,255c3.4-0.5,6.9-1.6,10,0.7C231.8,255.5,228.4,255.2,225.1,255z"/>
		<path class="st2" d="M73.3,243.8c0.4,0.7,0.8,1.6,1.3,2.2c1.8,2.2,3.7,4.3,5.6,6.4c-0.3,0.2-0.6,0.5-0.8,0.7
			c-2.3-2.8-4.6-5.6-6.9-8.4C72.7,244.3,73,244.1,73.3,243.8z"/>
		<path class="st2" d="M248.2,188.4c2-2.2,4-4.5,5.9-6.7c0.3,0.2,0.5,0.4,0.7,0.6c-2,2.2-3.9,4.5-5.9,6.7
			C248.7,188.8,248.5,188.6,248.2,188.4z"/>
		<path class="st2" d="M230.4,191.9c0.1-0.1,0.1-0.2,0.1-0.3c0.1-3.3,0.9-4.3,4.1-3.7C233,189.4,231.7,190.7,230.4,191.9z"/>
		<path class="st2" d="M78.8,63.9c0.1-0.3,0.2-0.5,0.2-0.8c1.9,0,3.7,0,5.8,0C82.8,65.4,80.5,65.6,78.8,63.9z"/>
		<path class="st2" d="M227.1,217c-0.9-1.6-1.8-3.1-2.7-4.7c1-0.9,1.7-1.6,2.4-2.2c0.1,0.1,0.2,0.1,0.4,0.2
			c-0.2,0.6-0.4,1.1-0.7,1.6c-0.8,1.5-0.9,2.6,1.1,3.1c0.3,0.1,0.2,1.3,0.3,1.9C227.5,217,227.3,217,227.1,217z"/>
		<path class="st2" d="M120.3,340.1c-1.6-4.5,2.6-3,3.3-5.1c0.3,0.3,0.5,0.5,0.8,0.8C123,337.2,121.7,338.7,120.3,340.1z"/>
		<path class="st2" d="M78.9,43.9c-0.1,0.2-0.2,0.3-0.3,0.5c-0.6,0.3-1.1,0.5-1.7,0.8c-0.2-0.2-0.3-0.4-0.5-0.5
			c1.3-1.9,2.6-3.8,3.9-5.6c0.2,0.1,0.4,0.2,0.6,0.3C80.2,40.8,79.5,42.3,78.9,43.9z"/>
		<path class="st2" d="M104.8,331.8c2.3,1.6,3,3.7,1.4,6.4C105.8,336.1,103.3,334.5,104.8,331.8
			C104.9,331.8,104.8,331.8,104.8,331.8z"/>
		<path class="st2" d="M205.6,195.7c0.8-1.3,1.6-2.5,2.4-3.8c0.3,0.2,0.5,0.3,0.8,0.5c-0.8,1.6-1.6,3.3-2.3,4.9
			c-0.3-0.2-0.6-0.5-0.8-0.7C205.6,196.3,205.6,196,205.6,195.7z"/>
		<path class="st2" d="M82.4,252.7c-1.1-1.6-2.2-3.3-3.3-4.9c0.3-0.2,0.6-0.4,0.8-0.6c1.1,1.6,2.3,3.1,3.4,4.7
			C83,252.2,82.7,252.4,82.4,252.7z"/>
		<path class="st2" d="M70.1,75c-0.9,1.9-1.8,3.9-2.7,5.9c-0.3-0.1-0.5-0.2-0.8-0.3c0.8-2,1.5-4,2.3-6.1
			C69.3,74.7,69.7,74.8,70.1,75z"/>
		<path class="st2" d="M197.5,128.4c2.2,1.1,4.9,1.5,5,5.1c-0.8-0.8-1.6-1.6-2.4-2.4c-0.9-0.8-2-1.4-3-2.2
			C197.2,128.8,197.4,128.6,197.5,128.4z"/>
		<path class="st2" d="M75.8,138.4c-2.1,0.4-3.8,0.8-5.5,1.1C71.9,136.9,73.6,136.4,75.8,138.4z"/>
		<path class="st2" d="M79.9,237.9c-0.8-2.9-1.4-5.1-2.2-8.1c1.4,0.4,2.8,0.3,3.1,0.9C82,232.8,81.8,235,79.9,237.9z"/>
		<path class="st2" d="M69.4,219.3c-1.8-2.2-1.3-4.5-0.5-6.9C71.5,214.6,69.7,217,69.4,219.3C69.3,219.3,69.4,219.3,69.4,219.3z"/>
	</g>
</g>
<g id="Calque_2">
	<g class="st3">
		
			<image style="overflow:visible;opacity:0.5;" width="50" height="344" xlink:href="796BE88F.png"  transform="matrix(1 0 0 1 236 55)">
		</image>
		<g>
			<g>
				<path d="M230.4,385.9v-15c0-7.7,4.3-13,11.7-13c7.6,0,12,5.2,12,13.4v11.3h18.3v3.3H230.4z M251.1,382.6V371
					c0-6.8-3.6-9.6-8.9-9.6c-5.6,0-8.8,3.7-8.8,9.4v11.8H251.1z"/>
				<path d="M252.8,346.1h19.6v3.3h-42v-15.1c0-8.3,4.4-12.7,11-12.7c5.3,0,8.8,3.2,9.8,7.9c1-4.3,3.8-7.2,11-7.2h1.6
					c2.9,0,6.9,0.2,8.5-0.5v3.3c-1.8,0.8-5.2,0.6-8.8,0.6h-1.1c-6.9,0-9.8,2-9.8,10.1V346.1z M249.8,346.1V336
					c0-7.4-2.8-10.8-8.3-10.8c-5.2,0-8.1,3.4-8.1,9.9v11H249.8z"/>
				<path d="M251.1,276.5c11.5,0,21.9,6.1,21.9,19.1c0,11.8-9.5,18.7-21.6,18.7c-11.9,0-21.6-6.7-21.6-19.1
					C229.8,283.6,238.9,276.5,251.1,276.5z M251.2,310.8c9.7,0,18.8-5.3,18.8-15.4c0-10.9-8.9-15.4-18.8-15.4
					c-9.8,0-18.4,5.2-18.4,15.3C232.8,306.1,241.7,310.8,251.2,310.8z"/>
				<path d="M253.1,230.9c-8.2,0-16.1-0.1-20.3-0.2v0.2c5.6,1.7,26.3,10.2,39.6,15.5v3.2c-10.3,4-33.3,12.8-39.7,14.8v0.1
					c4.8-0.3,14.6-0.4,21.8-0.4h17.9v3.2h-42v-4.9c14.4-5.8,33.2-13,38-14.6v-0.1c-3.1-1-24-9.4-38-15.2v-4.8h42v3.2H253.1z"/>
				<path d="M251.1,180.6c11.5,0,21.9,6.1,21.9,19.1c0,11.8-9.5,18.7-21.6,18.7c-11.9,0-21.6-6.7-21.6-19.1
					C229.8,187.7,238.9,180.6,251.1,180.6z M251.2,214.9c9.7,0,18.8-5.3,18.8-15.4c0-10.9-8.9-15.4-18.8-15.4
					c-9.8,0-18.4,5.2-18.4,15.3C232.8,210.2,241.7,214.9,251.2,214.9z"/>
				<path d="M233.4,163.8v14.1h-3v-31.6h3v14.2h39v3.3H233.4z"/>
				<path d="M230.4,136.9h42v3.2h-42V136.9z"/>
				<path d="M251.1,89.8c11.5,0,21.9,6.1,21.9,19.1c0,11.8-9.5,18.7-21.6,18.7c-11.9,0-21.6-6.7-21.6-19.1
					C229.8,97,238.9,89.8,251.1,89.8z M251.2,124.1c9.7,0,18.8-5.3,18.8-15.4c0-10.9-8.9-15.4-18.8-15.4c-9.8,0-18.4,5.2-18.4,15.3
					C232.8,119.4,241.7,124.1,251.2,124.1z"/>
				<path d="M272.4,80.6h-42v-4.8c10.1-6.5,33.5-21.9,38.1-24.5v-0.1c-6.1,0.4-12.2,0.3-19.1,0.3h-19v-3.3h42v4.4
					c-9.7,6.2-34.1,21.8-38.8,24.8v0.1c5.5-0.3,11.6-0.2,19.3-0.2h19.5V80.6z"/>
			</g>
		</g>
	</g>
</g>
</svg>
