<?xml version="1.0" encoding="utf-8"?>
<!-- Generator: Adobe Illustrator 24.0.0, SVG Export Plug-In . SVG Version: 6.00 Build 0)  -->
<svg version="1.1" id="Calque_1" xmlns="http://www.w3.org/2000/svg" xmlns:xlink="http://www.w3.org/1999/xlink" x="0px" y="0px"
	 width="294px" height="405px" viewBox="0 0 294 405" style="enable-background:new 0 0 294 405;" xml:space="preserve">
<style type="text/css">
	.st0{opacity:0.31;}
	.st1{fill:#FFFFFF;}
</style>
<g class="st0">
	<path class="st1" d="M87.75,286.51c3.07,0.84,4.31-0.54,4.41-5.27c-0.89,0.48-1.62,0.87-2.35,1.26c0.5-3.02,1.01-6.04,1.58-9.51
		c-1.01,0.96-1.71,1.64-2.91,2.78c0.38-1.44,0.81-2.21,0.74-2.93c-0.31-3.45-1.16,0.78-1.78-0.03c-1.59-2.2-2.75-4.83-4.68-6.62
		c-1.84-1.71-1.73-5.67-6.23-5.26c1.38,3.16,2.59,5.95,3.8,8.74c-0.31,0.16-0.63,0.33-0.94,0.49c-1.02-1.5-2.03-3.01-3.06-4.5
		c-0.22-0.31-0.51-0.57-0.77-0.85c-0.24,0.34-0.69,0.7-0.68,1.03c0.18,3.48,0.69,6.75,4.3,8.66c0.8,0.43,1.12,1.95,1.46,3.03
		c0.56,1.78,0.96,3.6,1.43,5.41c0.37,0,0.74,0,1.12-0.01c0.54-0.74,1.08-1.47,1.63-2.21c-0.34,2.39,0.44,4.22,2.67,5.32
		c-1.25,1.98-2.51,3.96-4.04,6.38C88.22,292,89.6,289.63,87.75,286.51z M104.89,331.76c-1.63,2.68,0.94,4.3,1.29,6.46
		c1.67-2.69,0.89-4.74-1.37-6.39c-0.24-2.71,0.6-5.58-1.28-8.8c-3.08,4.52-5.8,8.49-8.51,12.47c0.31,0.25,0.62,0.51,0.93,0.76
		c3.27-1.47,2.85-7.52,7.83-6.83C104.16,330.23,104.53,331,104.89,331.76z M230.51,191.59c-0.67,0.22-1.62,0.23-1.97,0.69
		c-2.7,3.62-5.3,7.32-7.87,11.04c-0.25,0.36-0.11,1-0.15,1.51c2.58-1.56,4.57-3.51,6.53-5.47c2.06-2.06,3.93-4.23,3.38-7.48
		c1.28-1.22,2.56-2.45,4.15-3.97C231.46,187.3,230.63,188.25,230.51,191.59z M167.73,237.67c0,1.73,0,3.46,0,5.22
		c4.28,1.51,7.63,0.35,7.47-1.93c-1.96-0.9-3.6-1.67-5.26-2.39c-0.74-0.32-1.53-0.54-2.29-0.81c0.32-4.15,1.56-5.87,3.61-5.6
		c2.68-3.61,5.25-7.08,7.88-10.62c-8.29,2.75-11.69,9.16-13.29,17.16C166.46,238.37,167.09,238.02,167.73,237.67z M78.52,44.34
		c-1.94,1.67-3.89,3.34-5.83,5.01c0.17,0.23,0.35,0.46,0.52,0.69c2.95-2.03,5.88-4.09,8.86-6.07c1.03-0.69,2.17-1.27,3.33-1.71
		c5.01-1.9,10.04-3.74,15.07-5.6c-0.18-0.48-0.35-0.96-0.53-1.44c-4.31,1.52-8.63,3.03-12.86,4.52c0.01-0.21,0.03-0.61,0.04-0.75
		c-1.41,0.82-2.79,1.63-4.17,2.44c-1.36,0.8-2.72,1.62-4.09,2.43c0.66-1.54,1.32-3.08,1.98-4.62c-0.19-0.1-0.38-0.21-0.57-0.31
		c-1.31,1.88-2.61,3.75-3.92,5.63c0.17,0.18,0.34,0.36,0.51,0.55C77.42,44.85,77.97,44.59,78.52,44.34z M78.78,63.91
		c1.68,1.72,4.03,1.51,6.04-0.75c-2.07,0-3.94,0-5.81,0c1.24-2.21,3.14-3.3,5.65-3.67c0.72-0.1,1.3-1.15,1.95-1.76
		c-0.2-0.16-0.4-0.31-0.61-0.47c-0.8,0.56-1.53,1.36-2.42,1.62c-4.3,1.29-8.64,2.45-12.98,3.63c-2.87,0.78-3.87,3.02-4.87,6.28
		c4.51-1.29,8.51-2.41,12.49-3.62C78.51,65.09,78.6,64.35,78.78,63.91z M89.18,48.6c-0.7-0.46-1.4-0.93-2.1-1.39
		c0.03,0.26,0.06,0.53,0.09,0.79c-2.04,0.49-4.13,0.84-6.11,1.51c-1.49,0.5-2.86,1.38-4.25,2.15c-0.62,0.35-1.12,0.9-1.73,1.28
		c-2.16,1.38-4.39,2.65-6.47,4.13c-0.45,0.32-0.38,1.36-0.55,2.07c0.62,0.02,1.3,0.22,1.84,0.02c2.52-0.92,5.04-1.86,7.47-2.97
		c0.75-0.34,1.24-1.22,2.07-2.07c0.01,0,0.59,0.31,1.14,0.26c3.9-0.35,6.03-3.45,8.69-5.73c2.45-0.74,4.91-1.48,7.36-2.21
		c-0.07-0.27-0.14-0.55-0.21-0.82c-2.2,0.4-4.42,0.73-6.58,1.27C89.49,46.98,89.39,48.01,89.18,48.6z M211.72,154.97
		c-0.01-0.21-0.01-0.35,0.01-0.42c1.35-0.46,5.75,1.31,6.08,2.83c1.08,4.96,2.09,9.95,2.65,14.99c0.27,2.37-0.54,4.85-0.86,7.28
		c0.22,0.03,0.45,0.05,0.67,0.08c1.14-5.87,2.28-11.74,3.47-17.9c0.2,0.88,0.35,1.51,0.49,2.15c0.14-0.04,0.29-0.08,0.43-0.12
		c-0.16-1.75-0.32-3.5-0.48-5.24c0.89,1.26,0.88,2.69,1.39,3.89c1.6,3.74-2.33,8.05,1.38,11.66c0.68,0.66,0.1,2.63,0.1,4.57
		c0.99-2.31,1.29-4.85,2.69-5.89c2.23-1.65,2.43-3.84,3.03-5.98c0.54-1.94,0.74-3.97,1.1-5.96c0.19,0,0.38,0.01,0.56,0.01
		c0,2.3,0,4.6,0,7.06c1.11-0.59,1.85-0.98,2.67-1.41c1.41,1.89-0.69,5.68,3.22,5.34c0.32,1.1,0.57,1.98,1.04,3.64
		c1.13-3.44,1.93-5.9,2.8-8.56c0.36,0.95,0.66,1.76,1.14,3.03c0.28-2.72,0.5-4.88,0.72-7.03c0.21,0.01,0.43,0.02,0.64,0.03
		c0,1.32,0,2.64,0,4.17c0.63-0.43,0.94-0.64,1.29-0.89c0.27,0.76,0.53,1.47,0.78,2.17c0.13-0.03,0.25-0.06,0.38-0.09
		c0.1-1.34,0.21-2.69,0.32-4.11c0.6,0.28,0.99,0.46,1.9,0.88c0.19-3.22,0.36-6.09,0.53-9.04c0.14-0.01,0.87-0.08,1.6-0.15
		c-0.09-0.82-0.11-1.66-0.28-2.46c-0.32-1.44-1.15-2.9-1.02-4.27c0.2-2.07-0.2-3.54-1.73-4.98c-1.1-1.04-2-2.42-2.59-3.82
		c-0.56-1.33-0.49-2.99-2.61-1.57c-0.21,0.14-1.13-0.24-1.2-0.52c-0.92-3.51-4.37-4.17-6.81-5.68c-6.65-4.11-13.6-7.74-20.45-11.54
		c-0.05-0.03-0.24,0.19-0.42,0.33c0.87,0.97,1.74,1.95,2.85,3.19c-11.64,2.48-22.26-0.49-33.52-2.7c3.04,1.89,5.71,3.55,8.37,5.2
		c-0.19,0.36-0.38,0.72-0.57,1.08c-0.74-0.35-1.55-0.61-2.21-1.08c-1.43-0.99-2.75-1.82-3.23,0.45c0.72,1.28,1.04,2.53,1.41,3.78
		c0.13,0.45,0.3,0.93,0.59,1.3c1.69,2.2,3.54,4.29,5.09,6.59c0.98,1.46,2.59,3.81,2.08,4.73c-2,3.58,0.58,4.98,2.44,6.86
		c0.17,0.17,0.52,0.18,0.85,0.28c0-0.58,0-1.06,0-1.54c0.23-0.17,0.46-0.33,0.69-0.5c0.3,0.71,0.6,1.42,1.08,2.57
		c0.26-1.43,0.38-2.04,0.49-2.65c0.25-0.04,0.5-0.07,0.75-0.11c0.72,2.88,4.4,4.76,2.36,8.62c-0.19,0.37,0.22,1.06,0.35,1.6
		c0.57-0.25,1.14-0.5,2.25-0.99c0.39,4.46,1.01,8.6,1.06,12.75c0.07,6.13-5.44,10.93-11.57,10.23c-2.18-0.25-4.3-1.06-6.83-1.72
		c-0.4,1.47-0.87,3.17-1.41,5.14c2.89-0.18,5.1-0.31,7.47-0.46c0.06,0.62,0.2,1.91,0.33,3.27c3.51-2.97,6.96-5.88,11.13-9.41
		c0,3.56,0,6.24,0,8.16c-0.94,0.96-2.12,1.61-2.29,2.46c-0.48,2.32-0.53,4.73-0.75,7.1c0,0.28,0.01,0.57,0.01,0.85
		c-0.69,2.44-1.39,4.88-2.08,7.32c1.81-1.15,3.14-2.36,3.93-3.86c1.29-2.46,2.27-5.1,3.31-7.68c0.77-1.91,1.44-3.87,2.16-5.81
		c0.59-1.5,1.17-2.99,1.76-4.49c0.3-0.01,0.84,0.03,0.85-0.05c0.53-2.27,1.38-4.54,1.4-6.83c0.04-3.9-0.06-7.88-0.83-11.68
		C215.51,160.35,214.48,157.12,211.72,154.97z M199.19,237.5c-3.54,3-3.54,3-2.71,5.35c0.27-1,0.44-1.65,0.52-1.96
		c1.64,0.17,2.98,0.35,4.32,0.43c6.57,0.39,13.18,0.75,18.84-3.5c1.24-0.93,1.99-2.53,3.18-4.11c-4.38,1.65-8.07,3.04-12.44,4.69
		c0.97-2.84-0.4-2.55-1.76-2.49c1.87-1.53,3.75-3.07,5.69-4.66c-7.19-1.11-9.62,4.85-13.55,7.91c-0.74-0.55-1.45-1.08-2.17-1.61
		c2.76-2.88,5.22-6.17,8.37-8.54c3.93-2.95,8.88-4.55,11.74-9.42c-2.01-1.66-4.18-3.44-5.87-4.82c-4.12,4.76-7.93,9.12-11.69,13.51
		c-2.21,2.58-2.81,5.82-3.53,8.99C198.49,237.35,198.85,237.42,199.19,237.5z M244.04,198.99c0.55,2,1.11,3.99,1.71,6.16
		c-0.09,0.01-0.71,0.07-1.33,0.13c-0.04,0.3-0.09,0.6-0.13,0.9c4.03-0.22,7.31,3.15,11.58,1.84c-1.45-0.98-3.16-1.43-4.47-2.41
		c-1.45-1.08-2.53-2.64-3.92-4.15c-0.16,0.61-0.28,1.1-0.59,2.27c-1.12-1.85-1.98-3.28-2.85-4.72c-0.48-0.74-0.95-1.48-1.48-2.31
		c-0.82,1.17-1.06,1.94-1.54,2.14c-4.01,1.66-8.08,3.2-12.1,4.83c-0.63,0.25-1.22,0.7-1.7,1.19c-2.96,2.99-5.97,5.91-9.91,7.63
		c-0.11,0.05-0.1,0.35-0.22,0.85c3.38,1.02,7.41,0.51,9.97,3.64c0.23,0.01,0.46,0.01,0.69,0.02c0.86-0.06,1.73-0.13,2.62-0.19
		c-0.27-1.05-0.85-2.03-0.64-2.8c0.41-1.5,1.24-2.89,1.93-4.3c1.47-3.03,2.64-3.41,4.37-1.7c1.26-0.88,2.47-1.73,3.86-2.7
		c-0.95-0.51-1.51-0.81-2.06-1.11c0.6-0.54,1.02-0.95,1.48-1.32C240.87,201.57,242.47,200.27,244.04,198.99z M88.64,251.68
		c0.09-0.71,0.36-1.47,0.22-2.13c-0.17-0.8-0.9-1.5-1.03-2.3c-0.23-1.49-0.2-3.02-0.31-5.16c1.52,1.74,2.99,3.2,4.19,4.85
		c1.17,1.62,1.92,1.23,2.93-0.09c0.69-0.91,1.6-1.65,2.41-2.46c0.87,0.97,1.74,1.93,2.88,3.19c3.25-1.31,0.26,3.73,1.84,3.76
		c1.39-1.01,2.31-1.68,3.62-2.63c0.15,1.52,0.22,2.19,0.28,2.86c0.46,0.43,0.92,0.85,1.38,1.28c0.49-1.15,0.99-2.3,1.48-3.46
		c-0.27,0.1-0.55,0.2-0.82,0.3c0.79,1.29,1.44,2.71,2.43,3.82c0.87,0.98,2.06,1.77,3.25,2.36c0.52,0.26,1.38-0.19,2.19-0.33
		c-0.02,0.45-0.08,1.25-0.05,1.26c3.4,0.38,4.96,5.17,9.5,3.44c2.89-1.1,4.55-2.14,3.5-5.06c-1.19-3.31-2.58-6.57-4.2-9.68
		c-1.48-2.86-3.94-4.14-7.37-3.89c-4.65,0.35-9.34,0.48-14.01,0.36c-6.62-0.17-12.35-2.74-16.22-8.16
		c-1.96-2.74-2.84-6.24-4.28-9.37c-3.11-6.79-6.27-13.56-9.4-20.33c-3.3-7.15-6.52-14.34-9.95-21.42c-0.69-1.43-2.18-2.48-3.31-3.7
		c0.14-1.34,0.37-2.68,0.4-4.02c0.06-2.57,0.02-5.14,0.02-7.71c0.29-0.02,0.57-0.04,0.86-0.06c0.4,0.53,0.8,1.07,1.53,2.05
		c0.24-1.84,0.99-3.79,0.46-4.23c-2.29-1.94-1.25-4.2-0.49-5.87c1.8-3.97,2.12-7.98,1.71-12.18c-0.19-1.95,0.64-3.04,2.98-2.9
		c-0.43,3.67,2.22,3.83,4.14,4.15c-0.19-1.18-0.79-2.52-0.48-3.58c0.68-2.34,4.15-4.16,6.86-3.99c-1.77,6.81-0.36,8.35,6.83,7.6
		c1.46-0.15,2.97,0.13,4.4-0.11c0.67-0.11,1.68-0.96,1.73-1.54c0.27-3.71-2.6-7.91-6.23-9.24c-2.4-0.88-4.93-1.44-7.3-2.38
		c-1.22-0.48-2.23-1.48-3.33-2.25c0.14-0.22,0.29-0.43,0.43-0.65c2.67,0.62,5.34,1.24,8.01,1.86c-5.31-4.7-12.96-5.82-15.39-2.37
		c1.43,0.19,2.7,0.19,3.84,0.57c0.76,0.25,1.86,0.99,1.89,1.57c0.04,0.71-0.72,1.68-1.4,2.17c-1.54,1.09-3.25,1.95-5.23,3.1
		c-0.57-0.75-1.1-3.22-3.36,0.17c0.69-17.29,1.33-33.53,1.98-49.77c-0.21-0.06-0.41-0.13-0.62-0.19c-1.19,2.15-2.38,4.3-3.67,6.65
		c-0.41-1.76-0.75-3.19-1.09-4.63c-0.36,0.29-0.78,0.62-1.61,1.28c0.53-1.84,0.92-3.19,1.33-4.61c-0.63,0.26-1.11,0.46-1.6,0.66
		c-0.09-0.44-0.33-0.92-0.23-1.31c1.14-4.42,2.34-8.82,3.74-14.05c-1.1,0.7-2.34,1.03-2.64,1.76c-1.89,4.51-3.56,9.12-5.31,13.7
		c0.62,0.71,1.23,1.42,1.8,2.08c-5.87,8.74-6.08,7.44-2.02,12.68c1.17-0.42,2.34-0.84,3.89-1.4c-4.3,6.37-4.3,6.37-2.58,10.44
		c-3.61,2.28-6.62,5.16-8.48,9.02c0.19,0.2,0.38,0.4,0.56,0.6c1.77-1.39,3.54-2.78,5.31-4.16c-0.09,0.8-0.38,1.33-0.79,1.74
		c-1.76,1.74-2.47,4.91-5.96,4.37c-0.24-0.04-0.88,0.86-0.87,1.31c0.01,0.6,0.33,1.35,0.77,1.75c0.55,0.49,1.36,0.69,2.35,1.15
		c-0.89,1.69-1.68,3.2-2.47,4.71c0.11,0.06,0.22,0.13,0.33,0.19c0.92-1.22,1.83-2.44,2.56-3.4c-0.26,3.22-0.52,6.51-0.79,9.8
		c0.1,0.46,0.2,0.92,0.3,1.38c0.65,0,1.31,0,1.92,0c-0.47,1.93-0.89,3.69-1.31,5.44c0.32,0.18,0.63,0.36,0.95,0.54
		c0.85-1.15,1.96-2.18,2.49-3.46c0.57-1.39,0.61-3,0.83-4.27c0.45,0.24,1.25,0.66,2.15,1.15c-2.53,6.3-2.14,12.59,0.67,18.79
		c-0.15-1.64-0.29-3.28-0.46-5.15c0.58-0.18,1.23-0.38,1.48-0.46c0.36-1.86,0.65-3.35,0.94-4.85c0.26,0.04,0.51,0.09,0.77,0.13
		c0,1.23,0,2.45,0,4.21c1.18-1.5,2.01-2.57,2.85-3.63c0.25,0.13,0.51,0.26,0.76,0.39c-0.24,0.89-0.28,1.91-0.75,2.66
		c-1.97,3.19-2.39,6.69-2.15,10.3c0.2,2.85,0.66,5.68,1.01,8.51c0.32,2.58,0.63,5.16,0.95,7.75c0.08,0.75-0.05,1.61,0.26,2.25
		c2.11,4.31,4.32,8.56,6.47,12.85c0.17,0.33,0.16,0.78,0.17,1.17c0.05,4.06,0,8.12,0.16,12.18c0.22,5.73,0.58,11.45,0.88,17.18
		c0.49-0.02,0.99-0.03,1.48-0.05c0-1.75,0-3.51,0-5.26c0,0-0.06,0.07-0.06,0.07c0.86-0.81,1.72-1.62,2.62-2.46
		c0.33,2.26,0.69,4.78,1.06,7.3c0.37-0.04,0.74-0.08,1.11-0.12c0-1.3,0-2.61,0-3.91c0.36,0.01,0.73,0.03,1.09,0.04
		c-0.09,1.8-0.07,3.61-0.31,5.39c-0.08,0.61-1.25,1.18-1.19,1.68c0.44,3.52,0.7,7.13,3.37,9.93c0.57,0.6,1.3,1.55,1.18,2.2
		c-0.33,1.83-0.09,2.53,1.88,1.76c0.36-0.14,1.05-0.05,1.29,0.21c1.85,1.98,3.76,3.93,5.37,6.1c0.91,1.22,1.32,2.82,1.95,4.26
		c-1.33-0.78-2.66-1.56-4.15-2.44c2.36,3.55,4.52,6.72,6.55,9.95c0.31,0.49,0.06,1.32,0.07,1.99c-0.72-0.3-1.65-0.41-2.11-0.94
		c-0.85-0.99-1.43-2.22-2.13-3.34c-0.18,0.08-0.36,0.16-0.55,0.24c2,4.75,4.01,9.5,6.06,14.36c0.4,0,1.23,0,3.23,0
		c-3.55,3.95-2.06,7.75-1.34,11.33c0.79-3.12,1.83-6.4,2.41-9.75c0.51-2.94,0.66-5.96-0.97-8.76
		C93.37,260.17,91.03,255.91,88.64,251.68z M121.62,145.44c3.06-2.6,5.62-4.76,8.72-7.39c-0.87,4.62,0.23,8.23,2.36,8.27
		c2.73,0.05,5.64-0.11,8.14-1.07c1.21-0.47,1.65-2.96,2.52-4.69c0.51,0.63,1.1,1.37,1.61,2.01c1.7,0,3.29,0,4.88,0
		c-6.56-5.8-13.84-8.64-22.59-6.11c7.43-5.44,14.72-2.35,22.16-0.09c-2.52-1.87-5.06-3.71-7.89-4.41
		c-6.31-1.58-12.77-2.09-17.86,3.12c-2.19,2.23-4,4.7-7.25,5.5c-0.37,0.09-0.47,1.28-0.68,1.88c1.76-0.18,3.09-0.31,4.71-0.48
		c-0.59,1.61-1.05,2.87-1.69,4.59c2.57,0,4.75,0,6.94,0c0.02-0.16,0.03-0.31,0.05-0.47C124.65,145.92,123.53,145.74,121.62,145.44z
		 M166.67,83.14c-0.17,0.15-0.34,0.29-0.5,0.44c1.41,1.43,2.72,2.98,4.25,4.26c4.95,4.12,10.34,7.76,13.87,13.38
		c0.5,0.8,1.58,1.24,2.38,1.85c0.07-0.11,0.15-0.22,0.22-0.33c-0.29-0.43-0.58-0.87-0.92-1.36c0.35-0.05,0.57-0.15,0.72-0.09
		c2.32,1.08,4.56,1.89,5.66,4.83c0.9,2.39,3.46,4.1,4.76,6.41c1.94,3.46,7.45,6.94,11.3,6.58c1.4-0.13,2.81-0.22,3.78-0.3
		c-8.07-8.68-16.36-17.6-24.66-26.52c0.07,0.57,0.15,1.18,0.3,2.37c-2.98-1.96-5.52-3.63-8.06-5.31c-0.12,0.18-0.25,0.36-0.37,0.54
		c1.17,1.09,2.34,2.19,3.5,3.28c-0.14,0.16-0.27,0.32-0.41,0.48C177.23,90.14,171.95,86.64,166.67,83.14z M57.66,202.15
		c0.15-0.01,0.29-0.01,0.44-0.02c0.34,1.43,0.69,2.87,1.19,4.99c2.7-6.12,1.52-11.47,0.15-16.84c-0.1,0.98-0.21,1.97-0.31,2.95
		c-0.91-1.48-1.34-2.98-1.55-4.52c-0.64-4.63-1.31-9.43-3.39-13.47c-3.66-7.13-6.09-14.37-5.82-22.43c0.02-0.54-0.37-1.1-0.86-2.44
		c-0.44,1.43-0.94,2.2-0.84,2.88c0.67,4.5,1.5,8.97,2.22,13.46c0.52,3.23,2.11,6.36,0.54,9.78c-0.38,0.83,0.22,2.11,0.36,3.19
		c0.22-0.05,0.44-0.1,0.66-0.15c-0.16-0.99-0.32-1.97-0.48-2.96c0.35-0.03,0.7-0.07,1.05-0.1c3.14,12.88,5.91,25.79,1.47,39.69
		c1.74-1.21,2.66-1.85,3.25-2.26c1.31-3.32-0.95-6.88,1.62-9.87C57.72,203.63,57.57,202.79,57.66,202.15z M104.54,258.85
		c-0.02,3.72,0.78,6.64,3.61,8.99c1.57,1.3,2.45,3.43,3.64,5.19c-0.2,0.12-0.4,0.23-0.6,0.35c-1.15-0.77-2.29-1.54-3.45-2.32
		c2.02,3.16,3.88,6.05,5.73,8.94c0.02-1.13-0.45-1.99-0.71-2.91c-0.25-0.88-0.27-1.82-0.33-2.27c1.26,0.99,2.44,1.92,3.62,2.84
		c0.25-0.3,0.5-0.61,0.75-0.91c-0.82-1-1.65-2-2.53-3.07c0.73-0.86,1.39-1.64,2.07-2.43c0.81,1.09,1.62,2.18,2.43,3.27
		c0.12-0.11,0.25-0.23,0.37-0.34c-1.19-2.4-2.37-4.8-3.56-7.2c0.22-0.08,0.43-0.17,0.65-0.25c0.66,0.91,1.32,1.82,1.97,2.73
		c0.41-0.32,0.82-0.64,1.23-0.95c-2.56-3.36-5.04-6.79-7.72-10.05c-0.63-0.76-1.95-1.32-2.93-1.29c-0.61,0.02-1.17,1.33-1.9,2.25
		C106.44,259.31,105.59,259.1,104.54,258.85z M207.32,123.44c0.35-0.39,0.69-0.79,1.04-1.18c-0.99-0.56-1.93-1.25-2.99-1.66
		c-2.63-1-5.35-1.75-7.95-2.82c-5.9-2.43-11.73-5.03-17.62-7.47c-1.84-0.77-3.79-1.27-5.7-1.89
		C183.11,118.54,194.12,123.61,207.32,123.44z M260.47,242.57c-1.39,1.33-2.57,2.46-3.75,3.59c-0.27-0.13-0.54-0.27-0.82-0.4
		c0-2.15,0-4.3,0-6.22c-1.49,1.92-3.09,3.98-4.68,6.05c0.55,0.08,1.1,0.15,1.97,0.27c-3.24,1.84-3.24,1.84-4.65-3.62
		c-0.41,0.66-0.71,1.14-1.38,2.2c0.17-2.32,0.28-3.77,0.4-5.37c-4.3,2.95-5.82,9.01-12.07,9.23c0.6,0.52,1.04,0.86,1.47,0.85
		c6.23-0.09,12.45-0.17,18.67-0.38c0.94-0.03,2.17-0.42,2.71-1.09C259.44,246.31,261.9,245.32,260.47,242.57z M144.9,233.88
		c0.08,0.28,0.15,0.55,0.23,0.83c1.45-0.43,3.35-0.44,4.26-1.39c2.1-2.18,3.7-0.61,6.44,0.15c-4.05,1.8-2.46,4.85-2.87,7.81
		c5.28-6.79,10.35-13.3,15.69-20.17C160.43,225.53,152.67,229.71,144.9,233.88z M99.32,326c1.14-2.73,1.7-4.85,2.88-6.51
		c0.4-0.57,2.45-0.12,2.45-1.78c-0.01-1.97,0.07-4.05-0.52-5.88c-0.82-2.55-3.29-3.64-5.68-4.25c-0.82-0.21-1.93,0.83-2.94,1.23
		c-0.49,0.2-1.04,0.24-1.57,0.35c0.01,0.16,0.02,0.32,0.03,0.47c0.99,0.07,1.98,0.14,3,0.21c-0.15,3.59,5.07,4.52,4.18,8.7
		c-0.84-0.62-1.5-1.11-2.63-1.95c2.48,3.77,1.74,6.25-1.76,7.81c-0.07-0.31-0.15-0.61-0.22-0.91c-0.18,0.02-0.36,0.03-0.54,0.05
		c-0.09,1.03-0.17,2.07-0.26,3.17C97.33,326.4,98.71,326.12,99.32,326z M125.3,205.17c-0.01-0.17-0.03-0.34-0.04-0.51
		c-6.8-1.2-13.6-2.44-20.41-3.57c-1.02-0.17-2.29-0.13-3.15,0.35c-3,1.67-6.05,1.89-9.17,0.69c-3.36-1.29-6.08,0.06-8.85,2
		c1.15,0.52,2.33,0.85,3.49,0.79c1.75-0.08,3.47-0.55,5.22-0.66c7.68-0.48,15.32-1.73,23.04,0.27
		C118.56,205.34,122,204.99,125.3,205.17z M85.52,352.74c0.97-0.51,2.38-0.88,3.22-1.78c2.45-2.61,4.67-5.43,6.96-8.19
		c0.23-0.28,0.45-0.73,0.4-1.06c-0.05-0.3-0.44-0.61-0.76-0.76c-0.21-0.09-0.55,0.1-0.83,0.17c1.08,3.04-1.55,0.91-2.16,1.56
		C89.57,345.67,84.11,346.73,85.52,352.74z M226.27,118.59c6.58,4.48,15.82,6.89,17.23,6.03c-0.42-0.93-0.83-1.85-1.4-3.13
		C237.49,120.65,232.28,119.69,226.27,118.59z M151.55,280.1c-0.2-0.25-0.41-0.5-0.61-0.75c-5.96,1.35-11.92,2.7-18.07,4.1
		c4.86,0.83,9.61,0.99,14.24-0.62C148.71,282.27,150.07,281.03,151.55,280.1z M203.12,160.39c-1.07,1.1-2.15,2.1-3.09,3.21
		c-0.86,1.01-1.63,2.12-2.3,3.26c-0.08,0.14,0.83,1.17,1.02,1.1c1.32-0.51,2.63-1.11,3.82-1.88c0.51-0.33,0.57-1.36,1.08-1.69
		C206.32,162.67,204.45,161.65,203.12,160.39z M132.52,46.61c0.05-0.29,0.1-0.58,0.16-0.87c-5.32-2.18-10.82-1.45-16.3-0.9
		c-0.02,0.34-0.04,0.67-0.06,1.01C121.71,46.1,127.11,46.36,132.52,46.61z M185.69,337.21c-0.06-0.26-0.11-0.52-0.17-0.78
		c-5.67,0.5-11.36,0.9-16.54,3.59c0.07,0.3,0.13,0.59,0.2,0.89C174.68,339.67,180.19,338.44,185.69,337.21z M96.77,347.66
		c0.52-0.41,1.07-0.79,1.56-1.25c1.78-1.69,3.48-3.47,5.33-5.08c1.89-1.63,1.91-4.02,0.03-5.68
		C102.9,340.51,98.05,342.95,96.77,347.66z M86.67,181.34c2.21,2.08,2.21,2.08,8.46,2.09c-2.62-1.69-4.84-3.12-7.01-4.52
		C87.58,179.81,87.17,180.5,86.67,181.34z M121.5,289.95c-1.26,1.26-2.41,3.18-3.24,3.06c-1.23-0.19-2.24-1.84-3.63-3.13
		c-0.03,3.9,3.79,4.28,4.99,7.2C120.36,294.29,120.91,292.19,121.5,289.95z M99.59,177.65c-0.16,0.5-0.32,0.99-0.48,1.49
		c1.9,0.76,3.8,1.51,5.99,2.38c0.54-0.39,1.31-0.95,2.09-1.51c0.02-0.32,0.03-0.65,0.05-0.97
		C104.69,178.57,102.14,178.11,99.59,177.65z M93.84,210.84c-0.04,0.16-0.08,0.31-0.12,0.47c2.23,1.24,4.47,2.47,6.68,3.7
		c0.32-0.96,0.71-2.16,1.22-3.72C98.96,211.13,96.4,210.98,93.84,210.84z M74.34,273.99c-0.83-4.69-2.3-9.35-6.09-12.93
		C70.27,265.37,72.3,269.68,74.34,273.99z M115.22,340.68c0.37-0.05,0.74-0.1,1.1-0.14c-0.44-2.86-0.87-5.72-1.31-8.57
		c-0.27,0.04-0.54,0.07-0.81,0.11C113.5,335.04,112.92,337.99,115.22,340.68z M131.82,266.41c0.3-0.29,0.6-0.57,0.91-0.86
		c-1.07-1.26-2.16-3.55-3.21-3.53c-1.41,0.03-2.78,1.84-4.16,2.89c0.21,0.27,0.42,0.54,0.63,0.8c1.05-0.77,2.09-1.54,2.63-1.94
		C129.79,264.73,130.8,265.57,131.82,266.41z M175.39,239.34c0.61,0.46,1.23,0.93,1.84,1.39c1.07-1.18,2.15-2.36,3.22-3.54
		c-0.27-0.32-0.55-0.64-0.82-0.95c-0.61,0-1.22,0-1.96,0c0.2-1.27,0.38-2.39,0.56-3.51c-0.16-0.04-0.32-0.08-0.48-0.12
		C176.96,234.86,176.18,237.1,175.39,239.34z M124.53,122.87c-3.6-1.17-6.09,0.08-8.18,3.39
		C119.19,125.08,121.86,123.98,124.53,122.87z M235.4,224.6c5.06,1.87,5.74,1.72,7.86-1.39C240.86,223.63,238.46,224.06,235.4,224.6
		z M225.11,255.01c3.32,0.23,6.64,0.46,9.96,0.69C232,253.36,228.56,254.48,225.11,255.01z M73.29,243.77
		c-0.29,0.28-0.58,0.56-0.86,0.84c2.32,2.81,4.63,5.62,6.95,8.43c0.28-0.23,0.55-0.47,0.83-0.7c-1.86-2.12-3.75-4.21-5.57-6.37
		C74.09,245.32,73.74,244.51,73.29,243.77z M248.2,188.36c0.26,0.23,0.51,0.45,0.77,0.68c1.97-2.24,3.94-4.49,5.91-6.73
		c-0.25-0.22-0.49-0.44-0.74-0.65C252.17,183.89,250.19,186.13,248.2,188.36z M120.28,340.14c1.37-1.45,2.75-2.91,4.12-4.36
		c-0.26-0.25-0.52-0.5-0.77-0.75C122.9,337.16,118.67,335.64,120.28,340.14z M82.39,252.7c0.33-0.27,0.66-0.53,0.98-0.8
		c-1.13-1.57-2.26-3.15-3.39-4.72c-0.28,0.2-0.56,0.39-0.85,0.59C80.22,249.42,81.3,251.06,82.39,252.7z M70.07,75.02
		c-0.39-0.17-0.79-0.33-1.18-0.5c-0.76,2.02-1.51,4.04-2.27,6.05c0.25,0.1,0.5,0.2,0.75,0.3C68.27,78.92,69.17,76.97,70.07,75.02z"
		/>
	<path class="st1" d="M205.61,195.68c0.22-2.37,0.27-4.78,0.75-7.1c0.17-0.85,1.35-1.49,2.29-2.46c0-1.92,0-4.6,0-8.16
		c-4.17,3.52-7.62,6.44-11.13,9.41c-0.14-1.36-0.27-2.64-0.33-3.27c-2.37,0.14-4.58,0.28-7.47,0.46c0.54-1.97,1.01-3.66,1.41-5.14
		c2.53,0.66,4.65,1.47,6.83,1.72c6.13,0.7,11.64-4.1,11.57-10.23c-0.05-4.15-0.67-8.29-1.06-12.75c-1.11,0.49-1.68,0.74-2.25,0.99
		c-0.13-0.54-0.54-1.23-0.35-1.6c2.04-3.86-1.64-5.74-2.36-8.62c-0.25,0.04-0.5,0.07-0.75,0.11c-0.11,0.61-0.23,1.22-0.49,2.65
		c-0.49-1.16-0.79-1.87-1.08-2.57c-0.23,0.17-0.46,0.33-0.69,0.5c0,0.48,0,0.97,0,1.54c-0.33-0.1-0.67-0.11-0.85-0.28
		c-1.86-1.87-4.45-3.28-2.44-6.86c0.51-0.92-1.1-3.27-2.08-4.73c-1.55-2.3-3.4-4.39-5.09-6.59c-0.28-0.37-0.45-0.85-0.59-1.3
		c-0.37-1.24-0.69-2.5-1.41-3.78c0.49-2.28,1.8-1.45,3.23-0.45c0.67,0.46,1.47,0.72,2.21,1.08c0.19-0.36,0.38-0.72,0.57-1.08
		c-2.67-1.66-5.34-3.32-8.37-5.2c11.26,2.2,21.87,5.18,33.52,2.7c-1.11-1.24-1.98-2.21-2.85-3.19c0.18-0.14,0.37-0.36,0.42-0.33
		c6.84,3.8,13.79,7.43,20.45,11.54c2.44,1.51,5.88,2.17,6.81,5.68c0.07,0.28,0.99,0.66,1.2,0.52c2.12-1.41,2.05,0.25,2.61,1.57
		c0.59,1.4,1.49,2.78,2.59,3.82c1.53,1.44,1.93,2.92,1.73,4.98c-0.14,1.38,0.7,2.83,1.02,4.27c0.18,0.8,0.19,1.64,0.28,2.46
		c-0.73,0.07-1.46,0.13-1.6,0.15c-0.17,2.94-0.34,5.81-0.53,9.04c-0.91-0.42-1.3-0.6-1.9-0.88c-0.11,1.42-0.21,2.76-0.32,4.11
		c-0.13,0.03-0.25,0.06-0.38,0.09c-0.25-0.71-0.51-1.41-0.78-2.17c-0.35,0.24-0.66,0.45-1.29,0.89c0-1.53,0-2.85,0-4.17
		c-0.21-0.01-0.43-0.02-0.64-0.03c-0.22,2.15-0.44,4.3-0.72,7.03c-0.48-1.27-0.78-2.08-1.14-3.03c-0.87,2.65-1.68,5.12-2.8,8.56
		c-0.48-1.66-0.73-2.54-1.04-3.64c-3.91,0.34-1.81-3.45-3.22-5.34c-0.82,0.44-1.55,0.83-2.67,1.41c0-2.46,0-4.76,0-7.06
		c-0.19,0-0.38-0.01-0.56-0.01c-0.35,1.99-0.56,4.02-1.1,5.96c-0.59,2.15-0.79,4.34-3.03,5.98c-1.41,1.04-1.71,3.58-2.69,5.89
		c0-1.94,0.58-3.91-0.1-4.57c-3.71-3.61,0.22-7.92-1.38-11.66c-0.51-1.2-0.5-2.63-1.39-3.89c0.16,1.75,0.32,3.5,0.48,5.24
		c-0.14,0.04-0.29,0.08-0.43,0.12c-0.15-0.64-0.29-1.28-0.49-2.15c-1.19,6.16-2.33,12.03-3.47,17.9c-0.22-0.03-0.45-0.05-0.67-0.08
		c0.32-2.43,1.13-4.92,0.86-7.28c-0.57-5.03-1.58-10.03-2.65-14.99c-0.33-1.52-4.74-3.28-6.08-2.83c-1.37-2.2-2.74-4.4-4.1-6.6
		c-0.33,0.11-0.66,0.22-0.99,0.33c0.17,1.24,0.18,2.52,0.54,3.7c0.57,1.88,1.53,3.65,2.02,5.54c0.73,2.79,1.23,5.64,1.77,8.48
		c0.32,1.71,1.36,4.36,0.64,5.02c-2.93,2.67-0.42,5.75-1.82,8.35c0.35,0.06,0.7,0.13,1.05,0.19c0.33-1.96,0.65-3.92,0.93-5.61
		c4.08,4.43,1.14,9.01-0.84,13.61c0.46,0.3,0.92,0.6,1.37,0.9c0.21-0.65,0.43-1.3,0.64-1.95c-0.72,1.94-1.38,3.89-2.16,5.81
		c-1.04,2.59-2.02,5.22-3.31,7.68c-0.79,1.5-2.12,2.71-3.93,3.86c0.69-2.44,1.39-4.88,2.08-7.31c0.28,0.24,0.56,0.48,0.84,0.72
		c0.78-1.62,1.55-3.25,2.33-4.87c-0.27-0.16-0.54-0.31-0.81-0.47C207.2,193.17,206.41,194.42,205.61,195.68z M197.5,128.44
		c-0.14,0.2-0.28,0.4-0.43,0.6c0.99,0.72,2.03,1.39,2.97,2.17c0.86,0.72,1.61,1.56,2.41,2.35
		C202.4,129.96,199.67,129.55,197.5,128.44z"/>
	<path class="st1" d="M46.54,139.53c0.26-3.29,0.53-6.57,0.79-9.8c-0.72,0.96-1.64,2.18-2.56,3.4c-0.11-0.06-0.22-0.13-0.33-0.19
		c0.79-1.51,1.59-3.02,2.47-4.71c-0.99-0.46-1.8-0.66-2.35-1.15c-0.44-0.4-0.76-1.15-0.77-1.75c-0.01-0.46,0.63-1.35,0.87-1.31
		c3.49,0.54,4.2-2.62,5.96-4.37c0.41-0.41,0.7-0.95,0.79-1.74c-1.77,1.39-3.54,2.78-5.31,4.16c-0.19-0.2-0.38-0.4-0.56-0.6
		c1.86-3.86,4.87-6.75,8.48-9.02c-1.72-4.08-1.72-4.08,2.58-10.44c-1.55,0.56-2.72,0.98-3.89,1.4c-4.07-5.24-3.85-3.94,2.02-12.68
		c-0.57-0.66-1.18-1.36-1.8-2.08c1.75-4.58,3.42-9.18,5.31-13.7c0.3-0.73,1.55-1.06,2.64-1.76c-1.4,5.22-2.6,9.63-3.74,14.05
		c-0.1,0.39,0.15,0.87,0.23,1.31c0.49-0.2,0.97-0.4,1.6-0.66c-0.41,1.41-0.8,2.77-1.33,4.61c0.83-0.66,1.25-0.99,1.61-1.28
		c0.34,1.44,0.68,2.87,1.09,4.63c1.3-2.35,2.49-4.5,3.67-6.65c0.21,0.06,0.41,0.13,0.62,0.19c-0.64,16.24-1.29,32.48-1.98,49.77
		c2.26-3.39,2.79-0.92,3.36-0.17c1.97-1.15,3.68-2.01,5.23-3.1c0.68-0.48,1.44-1.46,1.4-2.17c-0.03-0.58-1.13-1.32-1.89-1.57
		c-1.15-0.37-2.41-0.38-3.84-0.57c2.44-3.45,10.09-2.33,15.39,2.37c-2.67-0.62-5.34-1.24-8.01-1.86c-0.14,0.22-0.29,0.43-0.43,0.65
		c1.1,0.77,2.11,1.77,3.33,2.25c2.38,0.94,4.9,1.5,7.3,2.38c3.63,1.33,6.51,5.53,6.23,9.24c-0.04,0.58-1.06,1.43-1.73,1.54
		c-1.43,0.24-2.94-0.04-4.4,0.11c-7.18,0.75-8.59-0.79-6.83-7.6c-2.71-0.17-6.18,1.65-6.86,3.99c-0.31,1.07,0.3,2.4,0.48,3.58
		c-1.91-0.32-4.57-0.48-4.14-4.15c-2.35-0.14-3.18,0.95-2.98,2.9c0.41,4.2,0.09,8.21-1.71,12.18c-0.76,1.67-1.8,3.94,0.49,5.87
		c0.52,0.44-0.22,2.39-0.46,4.23c-0.73-0.98-1.13-1.51-1.53-2.05c-0.29,0.02-0.57,0.04-0.86,0.06c0,2.57,0.05,5.14-0.02,7.71
		c-0.03,1.34-0.26,2.68-0.4,4.02c0,0,0.16-0.01,0.16-0.01c-0.31-2.58-0.63-5.16-0.95-7.75c-0.35-2.84-0.81-5.67-1.01-8.51
		c-0.25-3.6,0.17-7.1,2.15-10.3c0.47-0.75,0.51-1.77,0.75-2.66c-0.25-0.13-0.51-0.26-0.76-0.39c-0.83,1.06-1.67,2.12-2.85,3.63
		c0-1.76,0-2.99,0-4.21c-0.26-0.04-0.51-0.09-0.77-0.13c-0.29,1.5-0.58,2.99-0.94,4.85c-0.26,0.08-0.9,0.28-1.48,0.46
		c0.17,1.87,0.31,3.51,0.46,5.15c-2.8-6.21-3.2-12.5-0.67-18.79c-0.9-0.48-1.7-0.91-2.15-1.15c-0.22,1.27-0.26,2.88-0.83,4.27
		c-0.53,1.28-1.64,2.32-2.49,3.46c-0.32-0.18-0.63-0.36-0.95-0.54c0.42-1.76,0.85-3.51,1.31-5.44c-0.61,0-1.27,0-1.91,0.01
		c2.62-0.49,3.14-2.75,3.91-4.76c0.03-0.07-0.77-0.46-1.22-0.72c1.44-1.79,1.9-3.45-0.32-4.58
		C48.31,133.79,47.43,136.66,46.54,139.53z M75.75,138.37c-2.14-1.92-3.89-1.46-5.54,1.08C71.93,139.12,73.64,138.78,75.75,138.37z"
		/>
	<path class="st1" d="M59.94,178.97c0,0-0.16,0.01-0.16,0.01c1.12,1.22,2.61,2.27,3.31,3.7c3.43,7.09,6.65,14.27,9.95,21.42
		c3.13,6.78,6.29,13.55,9.4,20.33c1.43,3.13,2.32,6.63,4.28,9.37c3.88,5.42,9.6,7.99,16.22,8.16c4.67,0.12,9.36-0.01,14.01-0.36
		c3.43-0.26,5.89,1.03,7.37,3.89c1.62,3.12,3.01,6.38,4.2,9.68c1.06,2.92-0.61,3.96-3.5,5.06c-4.54,1.73-6.11-3.05-9.5-3.44
		c-0.03,0,0.03-0.81,0.05-1.26c-0.8,0.14-1.67,0.59-2.19,0.33c-1.19-0.59-2.38-1.38-3.25-2.36c-0.99-1.11-1.63-2.53-2.43-3.82
		c0.27-0.1,0.55-0.2,0.82-0.3c-0.49,1.15-0.99,2.3-1.48,3.46c-0.46-0.43-0.92-0.85-1.38-1.28c-0.07-0.67-0.13-1.34-0.28-2.86
		c-1.31,0.95-2.23,1.62-3.62,2.63c-1.58-0.03,1.41-5.06-1.84-3.76c-1.14-1.26-2.01-2.23-2.88-3.19c-0.81,0.82-1.72,1.56-2.41,2.46
		c-1.01,1.32-1.76,1.71-2.93,0.09c-1.19-1.66-2.66-3.11-4.19-4.85c0.11,2.14,0.08,3.67,0.31,5.16c0.12,0.8,0.86,1.49,1.03,2.3
		c0.14,0.66-0.13,1.42-0.22,2.13c-0.01,0,0.09,0.03,0.09,0.03c-0.63-1.43-1.04-3.03-1.95-4.26c-1.62-2.16-3.53-4.12-5.37-6.1
		c-0.24-0.26-0.93-0.35-1.29-0.21c-1.97,0.78-2.21,0.08-1.88-1.76c0.12-0.65-0.61-1.6-1.18-2.2c-2.67-2.8-2.93-6.41-3.37-9.93
		c-0.06-0.5,1.11-1.07,1.19-1.68c0.24-1.78,0.23-3.59,0.31-5.39c-0.36-0.01-0.73-0.03-1.09-0.04c0,1.3,0,2.61,0,3.91
		c-0.37,0.04-0.74,0.08-1.11,0.12c-0.36-2.52-0.73-5.04-1.06-7.3c-0.9,0.85-1.76,1.66-2.61,2.46c0.38-2.33,2.23-4.7-0.46-6.99
		c-0.73,2.4-1.32,4.72,0.51,6.92c0,1.75,0,3.51,0,5.26c-0.49,0.02-0.99,0.03-1.48,0.05c-0.3-5.73-0.66-11.45-0.88-17.18
		c-0.15-4.05-0.1-8.12-0.16-12.18c-0.01-0.39,0-0.84-0.17-1.17c-2.15-4.29-4.36-8.54-6.47-12.85
		C59.89,180.58,60.02,179.72,59.94,178.97z M79.94,237.86c1.81-2.87,2.08-5.05,0.9-7.17c-0.31-0.55-1.67-0.51-3.07-0.89
		C78.57,232.77,79.16,234.95,79.94,237.86z"/>
	<path class="st1" d="M121.62,145.44c1.91,0.3,3.02,0.48,4.13,0.65c-0.02,0.16-0.03,0.31-0.05,0.47c-2.19,0-4.37,0-6.94,0
		c0.63-1.72,1.1-2.98,1.69-4.59c-1.63,0.17-2.95,0.3-4.71,0.48c0.2-0.6,0.3-1.79,0.68-1.88c3.25-0.8,5.06-3.27,7.25-5.5
		c5.1-5.2,11.56-4.7,17.86-3.12c2.82,0.71,5.36,2.54,7.89,4.41c-7.44-2.26-14.74-5.35-22.16,0.09c8.76-2.53,16.03,0.31,22.59,6.11
		c-1.59,0-3.18,0-4.88,0c-0.51-0.63-1.1-1.37-1.61-2.01c-0.87,1.73-1.3,4.22-2.52,4.69c-2.49,0.96-5.41,1.11-8.14,1.07
		c-2.13-0.04-3.23-3.64-2.36-8.27C127.24,140.68,124.69,142.85,121.62,145.44z"/>
	<path class="st1" d="M166.67,83.14c5.28,3.5,10.56,7.01,15.84,10.51c0.14-0.16,0.27-0.32,0.41-0.48c-1.17-1.09-2.34-2.19-3.5-3.28
		c0.12-0.18,0.25-0.36,0.37-0.54c2.54,1.67,5.08,3.35,8.06,5.31c-0.15-1.19-0.23-1.8-0.3-2.37c8.29,8.92,16.59,17.84,24.66,26.52
		c-0.97,0.08-2.38,0.17-3.78,0.3c-3.85,0.35-9.37-3.12-11.3-6.58c-1.29-2.31-3.85-4.02-4.76-6.41c-1.11-2.94-3.35-3.75-5.66-4.83
		c-0.14-0.07-0.37,0.04-0.72,0.09c0.33,0.5,0.63,0.93,0.92,1.36c-0.07,0.11-0.15,0.22-0.22,0.33c-0.81-0.61-1.88-1.05-2.38-1.85
		c-3.53-5.62-8.92-9.25-13.87-13.38c-1.54-1.28-2.84-2.84-4.25-4.26C166.34,83.43,166.51,83.28,166.67,83.14z"/>
	<path class="st1" d="M57.66,202.15c-0.08,0.64,0.06,1.48-0.29,1.89c-2.57,3-0.31,6.56-1.62,9.87c-0.59,0.41-1.51,1.05-3.25,2.26
		c4.43-13.9,1.66-26.81-1.47-39.69c-0.35,0.03-0.7,0.07-1.05,0.1c0.16,0.99,0.32,1.97,0.48,2.96c-0.22,0.05-0.44,0.1-0.66,0.15
		c-0.15-1.07-0.75-2.36-0.36-3.19c1.57-3.43-0.02-6.56-0.54-9.78c-0.72-4.49-1.55-8.96-2.22-13.46c-0.1-0.68,0.4-1.44,0.84-2.88
		c0.49,1.34,0.87,1.9,0.86,2.44c-0.26,8.06,2.16,15.29,5.82,22.43c2.08,4.05,2.75,8.85,3.39,13.47c0.21,1.53,0.64,3.04,1.55,4.52
		c0.1-0.98,0.21-1.97,0.31-2.95c1.38,5.37,2.56,10.72-0.15,16.84c-0.51-2.12-0.85-3.55-1.19-4.99
		C57.95,202.14,57.8,202.14,57.66,202.15z"/>
	<path class="st1" d="M84.82,280.71c-0.54,0.74-1.08,1.47-1.63,2.21c-0.37,0-0.74,0-1.12,0.01c-0.47-1.8-0.87-3.63-1.43-5.41
		c-0.34-1.08-0.66-2.61-1.46-3.03c-3.61-1.91-4.12-5.18-4.3-8.66c-0.02-0.33,0.44-0.69,0.68-1.03c0.26,0.28,0.55,0.54,0.77,0.85
		c1.03,1.49,2.04,3,3.06,4.5c0.31-0.16,0.63-0.33,0.94-0.49c-1.21-2.79-2.43-5.57-3.8-8.74c4.5-0.4,4.39,3.55,6.23,5.26
		c1.93,1.79,3.09,4.42,4.68,6.62c0.63,0.81,1.47-3.42,1.78,0.03c0.07,0.72-0.36,1.49-0.74,2.93c1.2-1.14,1.9-1.82,2.91-2.78
		c-0.58,3.47-1.08,6.49-1.58,9.5c-0.02,0.01-0.09,0.08-0.22,0.2C88,282.03,86.41,281.37,84.82,280.71z"/>
	<path class="st1" d="M104.54,258.85c1.05,0.26,1.9,0.46,2.33,0.56c0.73-0.92,1.3-2.23,1.9-2.25c0.98-0.03,2.3,0.53,2.93,1.29
		c2.68,3.26,5.17,6.68,7.72,10.05c-0.41,0.32-0.82,0.64-1.23,0.95c-0.66-0.91-1.32-1.82-1.97-2.73c-0.22,0.08-0.43,0.17-0.65,0.25
		c1.19,2.4,2.37,4.8,3.56,7.2c-0.12,0.11-0.25,0.23-0.37,0.34c-0.81-1.09-1.62-2.18-2.43-3.27c-0.67,0.79-1.34,1.57-2.07,2.43
		c0.88,1.07,1.7,2.07,2.53,3.07c-0.25,0.3-0.5,0.61-0.75,0.91c-1.18-0.92-2.35-1.85-3.62-2.84c0.06,0.45,0.08,1.39,0.33,2.27
		c0.26,0.92,0.73,1.79,0.71,2.91c-1.85-2.89-3.7-5.78-5.73-8.94c1.15,0.78,2.3,1.55,3.45,2.32c0.2-0.12,0.4-0.23,0.6-0.35
		c-1.19-1.76-2.07-3.89-3.64-5.19C105.31,265.49,104.52,262.57,104.54,258.85z"/>
	<path class="st1" d="M227.05,216.99c-2.57-3.14-6.6-2.62-9.97-3.64c0.12-0.5,0.12-0.81,0.22-0.85c3.94-1.72,6.95-4.63,9.91-7.63
		c0.48-0.49,1.07-0.94,1.7-1.19c4.03-1.63,8.09-3.16,12.1-4.83c0.48-0.2,0.72-0.97,1.54-2.14c0.53,0.83,1.01,1.57,1.48,2.31
		c0,0,0.02-0.06,0.02-0.06c-1.59,1.3-3.18,2.6-4.76,3.91c-0.45,0.38-0.88,0.79-1.48,1.32c0.55,0.3,1.11,0.59,2.06,1.11
		c-1.38,0.97-2.6,1.81-3.86,2.7c-1.73-1.7-2.9-1.33-4.37,1.7c-0.69,1.42-1.52,2.81-1.93,4.3c-0.21,0.77,0.37,1.75,0.64,2.8
		c-0.89,0.07-1.76,0.13-2.62,0.19c-0.08-0.66-0.02-1.84-0.27-1.91c-1.95-0.56-1.92-1.65-1.1-3.12c0.29-0.52,0.5-1.1,0.74-1.65
		c-0.12-0.07-0.24-0.14-0.35-0.21c-0.71,0.64-1.42,1.28-2.44,2.19C225.23,213.87,226.14,215.43,227.05,216.99z"/>
	<path class="st1" d="M207.32,123.44c-13.2,0.17-24.2-4.89-33.21-15.02c1.9,0.62,3.85,1.13,5.7,1.89
		c5.89,2.45,11.72,5.04,17.62,7.47c2.6,1.07,5.32,1.82,7.95,2.82c1.05,0.4,2,1.09,2.99,1.66
		C208.01,122.65,207.66,123.04,207.32,123.44z"/>
	<path class="st1" d="M199.21,237.49c-0.36-0.07-0.71-0.15-1.07-0.22c0.73-3.18,1.33-6.42,3.53-8.99c3.76-4.4,7.57-8.75,11.69-13.51
		c1.69,1.39,3.86,3.17,5.87,4.82c-2.86,4.87-7.81,6.47-11.74,9.42c-3.15,2.36-5.61,5.66-8.37,8.54
		C199.12,237.55,199.21,237.49,199.21,237.49z"/>
	<path class="st1" d="M199.12,237.55c0.72,0.53,1.43,1.06,2.17,1.61c3.92-3.06,6.36-9.01,13.55-7.91c-1.94,1.59-3.82,3.12-5.69,4.66
		c1.36-0.06,2.73-0.35,1.76,2.49c4.37-1.64,8.06-3.03,12.44-4.69c-1.19,1.58-1.94,3.17-3.18,4.11c-5.66,4.25-12.27,3.89-18.84,3.5
		c-1.34-0.08-2.68-0.26-4.32-0.43c-0.08,0.31-0.26,0.96-0.52,1.96c-0.82-2.35-0.82-2.35,2.72-5.36
		C199.21,237.49,199.12,237.55,199.12,237.55z"/>
	<path class="st1" d="M260.47,242.57c1.43,2.75-1.02,3.75-2.11,5.1c-0.54,0.67-1.77,1.06-2.71,1.09c-6.22,0.21-12.45,0.3-18.67,0.38
		c-0.43,0.01-0.87-0.33-1.47-0.85c6.25-0.22,7.77-6.28,12.07-9.23c-0.12,1.6-0.23,3.06-0.4,5.37c0.67-1.06,0.96-1.54,1.38-2.2
		c1.4,5.46,1.4,5.46,4.65,3.62c-0.88-0.12-1.43-0.2-1.98-0.27c1.6-2.07,3.2-4.13,4.69-6.05c0,1.92,0,4.07,0,6.22
		c0.27,0.13,0.54,0.27,0.82,0.4C257.9,245.03,259.08,243.9,260.47,242.57z"/>
	<path class="st1" d="M88.73,251.71c0,0-0.1-0.04-0.09-0.03c2.39,4.24,4.73,8.5,7.18,12.7c1.63,2.8,1.48,5.82,0.97,8.76
		c-0.58,3.35-1.62,6.63-2.41,9.75c-0.72-3.58-2.21-7.37,1.34-11.33c-1.99,0-2.83,0-3.23,0c-2.05-4.86-4.05-9.61-6.06-14.36
		c0.18-0.08,0.36-0.16,0.55-0.24c0.69,1.13,1.27,2.36,2.13,3.34c0.46,0.53,1.39,0.64,2.11,0.94c-0.01-0.67,0.23-1.51-0.07-1.99
		c-2.04-3.24-4.2-6.4-6.55-9.95C86.07,250.15,87.4,250.93,88.73,251.71z"/>
	<path class="st1" d="M212.95,186.5c-0.21,0.65-0.43,1.3-0.64,1.95c-0.46-0.3-0.92-0.6-1.37-0.9c1.99-4.6,4.93-9.18,0.84-13.61
		c-0.28,1.69-0.61,3.65-0.93,5.61c-0.35-0.06-0.7-0.13-1.05-0.19c1.4-2.6-1.11-5.68,1.82-8.35c0.72-0.66-0.32-3.3-0.64-5.02
		c-0.54-2.84-1.04-5.69-1.77-8.48c-0.5-1.89-1.46-3.66-2.02-5.54c-0.36-1.18-0.37-2.46-0.54-3.7c0.33-0.11,0.66-0.22,0.99-0.33
		c1.37,2.2,2.74,4.4,4.1,6.6c-0.02,0.07-0.03,0.21-0.01,0.42c1.2,4.89,2.41,9.78,3.61,14.66c-0.36,0.08-0.72,0.17-1.08,0.25
		c-0.22-1.14-0.44-2.29-0.81-4.23c-0.19,1.14-0.33,1.44-0.28,1.7c0.55,2.92-0.84,6.03,1.62,8.88c0.94,1.09,0.01,3.81-0.07,5.78
		C214.12,183.5,213.54,185,212.95,186.5z"/>
	<path class="st1" d="M144.9,233.88c7.77-4.17,15.53-8.35,23.75-12.76c-5.35,6.87-10.41,13.38-15.69,20.17
		c0.42-2.95-1.18-6,2.87-7.81c-2.73-0.76-4.34-2.33-6.44-0.15c-0.91,0.95-2.81,0.95-4.26,1.39
		C145.05,234.43,144.97,234.16,144.9,233.88z"/>
	<path class="st1" d="M89.26,48.66c-2.66,2.28-4.78,5.38-8.69,5.73c-0.55,0.05-1.13-0.26-1.14-0.26c-0.82,0.85-1.32,1.73-2.07,2.07
		c-2.44,1.11-4.95,2.06-7.47,2.97c-0.54,0.2-1.22-0.01-1.84-0.02c0.17-0.71,0.1-1.75,0.55-2.07c2.08-1.48,4.31-2.76,6.47-4.13
		c0.6-0.38,1.11-0.94,1.73-1.28c1.39-0.78,2.76-1.65,4.25-2.15c1.98-0.67,4.07-1.02,6.11-1.51c-0.03-0.26-0.06-0.53-0.09-0.79
		c0.7,0.46,1.4,0.93,2.1,1.39C89.21,48.61,89.24,48.63,89.26,48.66z"/>
	<path class="st1" d="M99.32,326c-0.6,0.12-1.98,0.4-3.59,0.72c0.09-1.1,0.18-2.13,0.26-3.17c0.18-0.02,0.36-0.03,0.54-0.05
		c0.07,0.3,0.15,0.6,0.22,0.91c3.51-1.56,4.24-4.04,1.76-7.81c1.14,0.84,1.8,1.33,2.63,1.95c0.88-4.17-4.33-5.11-4.18-8.7
		c-1.02-0.07-2.01-0.14-3-0.21c-0.01-0.16-0.02-0.32-0.03-0.47c0.52-0.11,1.08-0.16,1.57-0.35c1.01-0.4,2.12-1.44,2.94-1.23
		c2.39,0.61,4.85,1.7,5.68,4.25c0.59,1.83,0.52,3.91,0.52,5.88c0.01,1.66-2.04,1.21-2.45,1.78
		C101.01,321.15,100.45,323.27,99.32,326z"/>
	<path class="st1" d="M78.78,63.91c-0.18,0.44-0.27,1.18-0.56,1.27c-3.97,1.21-7.98,2.33-12.49,3.62c1-3.26,2-5.5,4.87-6.28
		c4.33-1.18,8.68-2.34,12.98-3.63c0.89-0.27,1.62-1.07,2.42-1.62c0.2,0.16,0.4,0.31,0.61,0.47c-0.65,0.61-1.23,1.65-1.95,1.76
		c-2.51,0.37-4.41,1.45-5.65,3.66C78.94,63.41,78.86,63.66,78.78,63.91z"/>
	<path class="st1" d="M125.3,205.17c-3.3-0.18-6.74,0.17-9.87-0.64c-7.72-1.99-15.36-0.74-23.04-0.27
		c-1.75,0.11-3.47,0.57-5.22,0.66c-1.16,0.06-2.34-0.28-3.49-0.79c2.77-1.93,5.48-3.29,8.85-2c3.12,1.2,6.17,0.99,9.17-0.69
		c0.86-0.48,2.13-0.52,3.15-0.35c6.81,1.13,13.61,2.37,20.41,3.57C125.27,204.83,125.28,205,125.3,205.17z"/>
	<path class="st1" d="M214.71,182.01c0.08-1.98,1.01-4.69,0.07-5.78c-2.47-2.85-1.08-5.96-1.62-8.88c-0.05-0.26,0.08-0.56,0.28-1.7
		c0.37,1.94,0.59,3.09,0.81,4.23c0.36-0.08,0.72-0.17,1.08-0.25c-1.2-4.89-2.41-9.78-3.61-14.66c2.76,2.15,3.8,5.39,4.42,8.49
		c0.76,3.8,0.87,7.78,0.83,11.68c-0.02,2.28-0.87,4.56-1.4,6.83C215.54,182.04,215.01,182,214.71,182.01z"/>
	<path class="st1" d="M78.87,43.86c1.36-0.81,2.72-1.62,4.09-2.43c1.38-0.81,2.77-1.62,4.17-2.44c-0.01,0.14-0.03,0.54-0.04,0.75
		c4.23-1.49,8.54-3,12.86-4.52c0.18,0.48,0.35,0.96,0.53,1.44c-5.03,1.86-10.06,3.69-15.07,5.6c-1.16,0.44-2.29,1.03-3.33,1.71
		c-2.99,1.98-5.91,4.04-8.86,6.07c-0.17-0.23-0.35-0.46-0.52-0.69c1.94-1.67,3.89-3.34,5.83-5C78.63,44.18,78.75,44.02,78.87,43.86z
		"/>
	<path class="st1" d="M167.72,237.67c-0.63,0.35-1.26,0.69-1.89,1.04c1.6-8.01,5-14.42,13.29-17.16c-2.62,3.54-5.19,7-7.88,10.62
		c-2.05-0.27-3.29,1.45-3.61,5.6L167.72,237.67z"/>
	<path class="st1" d="M85.52,352.74c-1.42-6.01,4.04-7.07,6.84-10.06c0.61-0.65,3.24,1.48,2.16-1.56c0.28-0.07,0.62-0.26,0.83-0.17
		c0.32,0.14,0.71,0.46,0.76,0.76c0.05,0.32-0.17,0.77-0.4,1.06c-2.29,2.76-4.51,5.58-6.96,8.19
		C87.9,351.85,86.49,352.22,85.52,352.74z"/>
	<path class="st1" d="M230.44,191.88c0.55,3.25-1.32,5.41-3.38,7.48c-1.96,1.97-3.95,3.91-6.53,5.47c0.04-0.51-0.11-1.15,0.15-1.51
		c2.57-3.72,5.17-7.41,7.87-11.04c0.34-0.46,1.3-0.47,1.97-0.69C230.51,191.67,230.49,191.77,230.44,191.88z"/>
	<path class="st1" d="M226.27,118.59c6.01,1.1,11.22,2.05,15.83,2.9c0.57,1.28,0.99,2.2,1.4,3.13
		C242.09,125.48,232.84,123.07,226.27,118.59z"/>
	<path class="st1" d="M151.55,280.1c-1.47,0.93-2.84,2.17-4.44,2.72c-4.63,1.61-9.39,1.45-14.24,0.62
		c6.15-1.39,12.11-2.75,18.07-4.1C151.14,279.6,151.34,279.85,151.55,280.1z"/>
	<path class="st1" d="M104.9,331.76c-0.37-0.77-0.74-1.53-1.12-2.32c-4.98-0.69-4.56,5.36-7.83,6.83c-0.31-0.25-0.62-0.51-0.93-0.76
		c2.71-3.98,5.43-7.95,8.51-12.47c1.87,3.21,1.04,6.09,1.28,8.8L104.9,331.76z"/>
	<path class="st1" d="M244.04,199.02c0.87,1.43,1.73,2.87,2.85,4.72c0.3-1.17,0.43-1.67,0.59-2.27c1.39,1.51,2.48,3.07,3.92,4.15
		c1.31,0.98,3.01,1.43,4.47,2.41c-4.27,1.31-7.55-2.06-11.58-1.84c0.04-0.3,0.09-0.6,0.13-0.9c0.62-0.06,1.24-0.13,1.33-0.13
		c-0.6-2.17-1.16-4.16-1.7-6.17C244.05,198.97,244.04,199.02,244.04,199.02z"/>
	<path class="st1" d="M167.64,237.76c0.77,0.27,1.55,0.48,2.29,0.81c1.66,0.72,3.3,1.5,5.26,2.39c0.16,2.27-3.19,3.44-7.47,1.93
		c0-1.76,0-3.49,0-5.22C167.72,237.67,167.64,237.76,167.64,237.76z"/>
	<path class="st1" d="M203.12,160.39c1.33,1.26,3.2,2.28,0.52,4c-0.51,0.33-0.57,1.36-1.08,1.69c-1.19,0.77-2.5,1.37-3.82,1.88
		c-0.18,0.07-1.1-0.97-1.02-1.1c0.68-1.14,1.44-2.25,2.3-3.26C200.97,162.49,202.05,161.49,203.12,160.39z"/>
	<path class="st1" d="M132.52,46.61c-5.4-0.26-10.8-0.51-16.2-0.77c0.02-0.34,0.04-0.67,0.06-1.01c5.48-0.54,10.97-1.28,16.3,0.9
		C132.62,46.03,132.57,46.32,132.52,46.61z"/>
	<path class="st1" d="M185.69,337.21c-5.51,1.23-11.01,2.47-16.52,3.7c-0.07-0.3-0.13-0.59-0.2-0.89
		c5.18-2.69,10.87-3.09,16.54-3.59C185.58,336.69,185.64,336.95,185.69,337.21z"/>
	<path class="st1" d="M96.77,347.66c1.28-4.71,6.13-7.16,6.92-12.01c1.88,1.66,1.85,4.05-0.03,5.68c-1.85,1.6-3.55,3.39-5.33,5.08
		C97.84,346.87,97.29,347.25,96.77,347.66z"/>
	<path class="st1" d="M46.54,139.53c0.89-2.87,1.77-5.74,2.68-8.67c2.22,1.13,1.76,2.79,0.32,4.58c0.45,0.26,1.24,0.65,1.22,0.72
		c-0.77,2.01-1.29,4.27-3.91,4.76C46.74,140.45,46.64,139.99,46.54,139.53z"/>
	<path class="st1" d="M86.67,181.34c0.5-0.84,0.91-1.53,1.45-2.43c2.18,1.4,4.4,2.84,7.01,4.52
		C88.88,183.42,88.88,183.42,86.67,181.34z"/>
	<path class="st1" d="M84.82,280.71c1.59,0.66,3.18,1.32,4.77,1.98c-0.61,1.18-1.22,2.35-1.82,3.53c-0.15-0.1-0.24-0.16-0.27-0.18
		C85.27,284.94,84.48,283.11,84.82,280.71z"/>
	<path class="st1" d="M87.5,286.04c0.03,0.02,0.12,0.08,0.27,0.19c-0.02,0.16-0.02,0.26-0.02,0.28c1.85,3.12,0.46,5.5-4.3,5.91
		C84.99,289.99,86.24,288.02,87.5,286.04z"/>
	<path class="st1" d="M121.5,289.95c-0.59,2.23-1.14,4.33-1.88,7.12c-1.2-2.92-5.02-3.3-4.99-7.2c1.39,1.29,2.39,2.94,3.63,3.13
		C119.09,293.14,120.24,291.21,121.5,289.95z"/>
	<path class="st1" d="M99.59,177.65c2.55,0.46,5.1,0.92,7.65,1.38c-0.02,0.32-0.03,0.65-0.05,0.97c-0.78,0.56-1.56,1.13-2.09,1.51
		c-2.19-0.87-4.09-1.63-5.99-2.38C99.27,178.64,99.43,178.14,99.59,177.65z"/>
	<path class="st1" d="M93.84,210.84c2.56,0.15,5.12,0.29,7.79,0.44c-0.51,1.56-0.91,2.76-1.22,3.72c-2.21-1.22-4.44-2.46-6.68-3.7
		C93.77,211.15,93.8,210.99,93.84,210.84z"/>
	<path class="st1" d="M74.34,273.99c-2.03-4.31-4.06-8.62-6.09-12.93C72.04,264.64,73.5,269.29,74.34,273.99z"/>
	<path class="st1" d="M115.22,340.68c-2.3-2.69-1.72-5.64-1.01-8.61c0.27-0.04,0.54-0.07,0.81-0.11c0.44,2.86,0.87,5.72,1.31,8.57
		C115.95,340.59,115.59,340.63,115.22,340.68z"/>
	<path class="st1" d="M131.82,266.41c-1.02-0.84-2.04-1.67-3.21-2.64c-0.54,0.4-1.59,1.17-2.63,1.94c-0.21-0.27-0.42-0.54-0.63-0.8
		c1.39-1.05,2.76-2.86,4.16-2.89c1.05-0.02,2.14,2.27,3.21,3.53C132.43,265.84,132.13,266.12,131.82,266.41z"/>
	<path class="st1" d="M175.39,239.34c0.78-2.24,1.57-4.49,2.35-6.73c0.16,0.04,0.32,0.08,0.48,0.12c-0.18,1.12-0.36,2.24-0.56,3.51
		c0.75,0,1.35,0,1.96,0c0.27,0.32,0.55,0.64,0.82,0.95c-1.07,1.18-2.15,2.36-3.22,3.54C176.62,240.27,176.01,239.81,175.39,239.34z"
		/>
	<path class="st1" d="M124.53,122.87c-2.67,1.11-5.34,2.21-8.18,3.39C118.44,122.95,120.93,121.7,124.53,122.87z"/>
	<path class="st1" d="M87.75,286.51c-0.01-0.03,0-0.12,0.02-0.28c0.61-1.18,1.22-2.36,1.83-3.53c0.13-0.12,0.2-0.18,0.22-0.2
		c0.73-0.39,1.46-0.78,2.35-1.26C92.06,285.97,90.82,287.35,87.75,286.51z"/>
	<path class="st1" d="M89.26,48.66c-0.02-0.03-0.05-0.05-0.08-0.06c0.21-0.59,0.31-1.62,0.64-1.7c2.17-0.54,4.38-0.87,6.58-1.27
		c0.07,0.27,0.14,0.55,0.21,0.82C94.16,47.18,91.71,47.92,89.26,48.66z"/>
	<path class="st1" d="M235.4,224.6c3.05-0.54,5.45-0.96,7.86-1.39C241.14,226.31,240.46,226.47,235.4,224.6z"/>
	<path class="st1" d="M225.11,255.01c3.45-0.53,6.89-1.65,9.96,0.69C231.75,255.47,228.43,255.24,225.11,255.01z"/>
	<path class="st1" d="M73.29,243.77c0.44,0.74,0.8,1.55,1.34,2.2c1.82,2.16,3.71,4.25,5.57,6.37c-0.28,0.23-0.55,0.47-0.83,0.7
		c-2.32-2.81-4.63-5.62-6.95-8.43C72.72,244.33,73,244.05,73.29,243.77z"/>
	<path class="st1" d="M248.2,188.36c1.98-2.24,3.96-4.47,5.94-6.71c0.25,0.22,0.49,0.44,0.74,0.65c-1.97,2.24-3.94,4.49-5.91,6.73
		C248.72,188.82,248.46,188.59,248.2,188.36z"/>
	<path class="st1" d="M230.44,191.88c0.05-0.11,0.07-0.21,0.07-0.29c0.12-3.34,0.94-4.29,4.07-3.67
		C233,189.43,231.72,190.66,230.44,191.88z"/>
	<path class="st1" d="M78.78,63.91c0.08-0.25,0.16-0.5,0.23-0.75c1.87,0,3.74,0,5.81,0C82.81,65.42,80.46,65.63,78.78,63.91z"/>
	<path class="st1" d="M227.05,216.99c-0.91-1.56-1.82-3.12-2.73-4.67c1.02-0.91,1.73-1.55,2.44-2.19c0.12,0.07,0.24,0.14,0.35,0.21
		c-0.24,0.55-0.45,1.12-0.74,1.65c-0.82,1.47-0.85,2.55,1.1,3.12c0.25,0.07,0.19,1.25,0.27,1.91
		C227.51,217,227.28,216.99,227.05,216.99z"/>
	<path class="st1" d="M120.28,340.14c-1.61-4.49,2.61-2.98,3.34-5.11c0.26,0.25,0.52,0.5,0.77,0.75
		C123.03,337.23,121.65,338.68,120.28,340.14z"/>
	<path class="st1" d="M78.87,43.86c-0.12,0.16-0.24,0.32-0.35,0.48c-0.55,0.25-1.1,0.5-1.65,0.76c-0.17-0.18-0.34-0.36-0.51-0.55
		c1.31-1.88,2.61-3.75,3.92-5.63c0.19,0.1,0.38,0.21,0.57,0.31C80.18,40.78,79.52,42.32,78.87,43.86z"/>
	<path class="st1" d="M104.81,331.84c2.26,1.65,3.04,3.7,1.37,6.39c-0.35-2.17-2.92-3.78-1.29-6.47
		C104.9,331.76,104.81,331.84,104.81,331.84z"/>
	<path class="st1" d="M205.61,195.68c0.79-1.25,1.59-2.51,2.38-3.76c0.27,0.16,0.54,0.31,0.81,0.47c-0.78,1.62-1.55,3.25-2.33,4.87
		c-0.28-0.24-0.56-0.47-0.84-0.72C205.62,196.25,205.62,195.96,205.61,195.68z"/>
	<path class="st1" d="M82.39,252.7c-1.08-1.64-2.17-3.28-3.25-4.93c0.28-0.2,0.56-0.39,0.85-0.59c1.13,1.57,2.26,3.15,3.39,4.72
		C83.04,252.17,82.72,252.43,82.39,252.7z"/>
	<path class="st1" d="M70.07,75.02c-0.9,1.95-1.8,3.91-2.7,5.86c-0.25-0.1-0.5-0.2-0.75-0.3c0.76-2.02,1.51-4.04,2.27-6.05
		C69.28,74.68,69.68,74.85,70.07,75.02z"/>
	<path class="st1" d="M197.5,128.44c2.16,1.11,4.9,1.52,4.96,5.12c-0.8-0.79-1.55-1.63-2.41-2.35c-0.94-0.78-1.98-1.45-2.97-2.17
		C197.22,128.84,197.36,128.64,197.5,128.44z"/>
	<path class="st1" d="M75.75,138.37c-2.11,0.41-3.82,0.75-5.54,1.08C71.86,136.91,73.61,136.45,75.75,138.37z"/>
	<path class="st1" d="M79.94,237.86c-0.78-2.91-1.37-5.09-2.17-8.06c1.4,0.37,2.76,0.33,3.07,0.89
		C82.02,232.81,81.75,234.99,79.94,237.86z"/>
	<path class="st1" d="M69.37,219.27c-1.83-2.2-1.25-4.52-0.51-6.92c2.68,2.29,0.84,4.66,0.46,6.99
		C69.31,219.34,69.37,219.27,69.37,219.27z"/>
</g>
<g>
</g>
<g>
</g>
<g>
</g>
<g>
</g>
<g>
</g>
<g>
</g>
<g>
</g>
<g>
</g>
<g>
</g>
<g>
</g>
<g>
</g>
<g>
</g>
<g>
</g>
<g>
</g>
<g>
</g>
</svg>
